<svg id="account-circle" viewBox="0 0 20 20" xmlns="http://www.w3.org/2000/svg">
	<path d="M15.79,15.5044 C15.283,13.6094 13.872,12.0854 12.047,11.4204 C13.212,10.7204 14,9.4584 14,8.0004 C14,5.7914 12.209,4.0004 10,4.0004 C7.791,4.0004 6,5.7914 6,8.0004 C6,9.4584 6.788,10.7204 7.953,11.4204 C6.128,12.0854 4.717,13.6094 4.21,15.5044 C2.845,14.0684 2,12.1324 2,10.0004 C2,5.5884 5.589,2.0004 10,2.0004 C14.411,2.0004 18,5.5884 18,10.0004 C18,12.1324 17.155,14.0684 15.79,15.5044 M10,10.0004 C8.897,10.0004 8,9.1024 8,8.0004 C8,6.8974 8.897,6.0004 10,6.0004 C11.103,6.0004 12,6.8974 12,8.0004 C12,9.1024 11.103,10.0004 10,10.0004 M6.013,16.9254 C6.082,14.7794 7.838,13.0524 10,13.0524 C12.162,13.0524 13.918,14.7794 13.987,16.9254 C12.811,17.6054 11.452,18.0004 10,18.0004 C8.548,18.0004 7.188,17.6054 6.013,16.9254 M10,0.0004 C4.486,0.0004 0,4.4854 0,10.0004 C0,15.5144 4.486,20.0004 10,20.0004 C15.513,20.0004 20,15.5144 20,10.0004 C20,4.4854 15.513,0.0004 10,0.0004" />
</svg>