<svg id="add-circle" viewBox="0 0 20 20" xmlns="http://www.w3.org/2000/svg">
	<path d="M14,9 C14.553,9 15,9.447 15,10 C15,10.553 14.553,11 14,11 L11,11 L11,14 C11,14.553 10.553,15 10,15 C9.447,15 9,14.553 9,14 L9,11 L6,11 C5.447,11 5,10.553 5,10 C5,9.447 5.447,9 6,9 L9,9 L9,6 C9,5.447 9.447,5 10,5 C10.553,5 11,5.447 11,6 L11,9 L14,9 Z M10,18 C14.411,18 18,14.411 18,10 C18,5.589 14.411,2 10,2 C5.589,2 2,5.589 2,10 C2,14.411 5.589,18 10,18 Z M10,0 C15.514,0 20,4.486 20,10 C20,15.514 15.514,20 10,20 C4.486,20 0,15.514 0,10 C0,4.486 4.486,0 10,0 Z" />
</svg>