<svg id="address-book" viewBox="0 0 20 20" xmlns="http://www.w3.org/2000/svg">
	<path d="M12.0283,10.6396 C13.4403,11.0846 14.4733,12.3896 14.4733,13.9506 L7.5003,13.9506 C7.5003,12.3896 8.5333,11.0846 9.9453,10.6396 C9.1203,10.2476 8.5463,9.4136 8.5463,8.4406 C8.5463,7.0926 9.6383,5.9996 10.9863,5.9996 C12.3323,5.9996 13.4273,7.0926 13.4273,8.4406 C13.4273,9.4136 12.8523,10.2476 12.0283,10.6396 Z M17,18 L17,2 L4,2 L4,6 C4.553,6 5,6.448 5,7 C5,7.552 4.553,8 4,8 L4,12 C4.553,12 5,12.448 5,13 C5,13.552 4.553,14 4,14 L4,18 L17,18 Z M18,0 C18.553,0 19,0.448 19,1 L19,19 C19,19.552 18.553,20 18,20 L3,20 C2.447,20 2,19.552 2,19 L2,14 C1.447,14 1,13.552 1,13 C1,12.448 1.447,12 2,12 L2,8 C1.447,8 1,7.552 1,7 C1,6.448 1.447,6 2,6 L2,1 C2,0.448 2.447,0 3,0 L18,0 Z" />
</svg>