<svg id="archive" viewBox="0 0 20 20" xmlns="http://www.w3.org/2000/svg">
	<path d="M18,1 C18.553,1 19,1.448 19,2 L19,2 L19,6 C19,6.552 18.553,7 18,7 L18,7 L18,18 C18,18.552 17.553,19 17,19 L17,19 L3,19 C2.447,19 2,18.552 2,18 L2,18 L2,7 L1.917,7 C1.41,7 1,6.552 1,6 L1,6 L1,2 C1,1.448 1.447,1 2,1 L2,1 Z M16,7 L4,7 L4,17 L16,17 L16,7 Z M12,10 C12.553,10 13,10.448 13,11 C13,11.552 12.553,12 12,12 L12,12 L8,12 C7.447,12 7,11.552 7,11 C7,10.448 7.447,10 8,10 L8,10 Z M17,3 L3,3 L3,5 L17,5 L17,3 Z" />
</svg>