<svg id="arrow-up" viewBox="0 0 20 20" xmlns="http://www.w3.org/2000/svg">
	<path d="M10.9375,18 L10.9375,4.396 L15.2965,8.711 C15.6895,9.1 16.3225,9.096 16.7105,8.703 C17.0995,8.312 17.0955,7.677 16.7045,7.289 L10.6415,1.289 C10.4535,1.103 10.1985,0.999 9.9325,1 C9.6665,1.001 9.4135,1.108 9.2265,1.297 L3.2895,7.297 C3.0965,7.491 3.0005,7.746 3.0005,8 C3.0005,8.258 3.0995,8.516 3.2965,8.711 C3.6895,9.1 4.3225,9.096 4.7105,8.703 L8.9375,4.432 L8.9375,18 C8.9375,18.553 9.3855,19 9.9375,19 C10.4905,19 10.9375,18.553 10.9375,18" />
</svg>