<svg id="arrow-right" viewBox="0 0 20 20" xmlns="http://www.w3.org/2000/svg">
	<path d="M2,10.9374 L15.604,10.9374 L11.289,15.2964 C10.9,15.6884 10.904,16.3224 11.297,16.7104 C11.688,17.0994 12.323,17.0954 12.711,16.7034 L18.711,10.6414 C18.897,10.4524 19.001,10.1974 19,9.9324 C18.999,9.6664 18.892,9.4134 18.703,9.2264 L12.703,3.2894 C12.509,3.0964 12.254,3.0004 12,3.0004 C11.742,3.0004 11.484,3.0994 11.289,3.2964 C10.9,3.6884 10.904,4.3224 11.297,4.7104 L15.568,8.9374 L2,8.9374 C1.447,8.9374 1,9.3854 1,9.9374 C1,10.4894 1.447,10.9374 2,10.9374" />
</svg>