<svg id="arrow-down" viewBox="0 0 20 20" xmlns="http://www.w3.org/2000/svg">
	<path d="M9.0625,2 L9.0625,15.604 L4.7035,11.289 C4.3105,10.9 3.6775,10.904 3.2895,11.297 C2.9005,11.688 2.9045,12.323 3.2955,12.711 L9.3585,18.711 C9.5465,18.897 9.8015,19.001 10.0675,19 C10.3335,18.999 10.5865,18.892 10.7735,18.703 L16.7105,12.703 C16.9035,12.509 16.9995,12.254 16.9995,12 C16.9995,11.742 16.9005,11.484 16.7035,11.289 C16.3105,10.9 15.6775,10.904 15.2895,11.297 L11.0625,15.568 L11.0625,2 C11.0625,1.447 10.6145,1 10.0625,1 C9.5095,1 9.0625,1.447 9.0625,2" />
</svg>