<svg id="arrow-left" viewBox="0 0 20 20" xmlns="http://www.w3.org/2000/svg">
	<path d="M18,9.0624 L4.396,9.0624 L8.711,4.7034 C9.1,4.3114 9.096,3.6774 8.703,3.2894 C8.312,2.9004 7.677,2.9044 7.289,3.2964 L1.289,9.3584 C1.103,9.5474 0.999,9.8024 1,10.0674 C1.001,10.3334 1.108,10.5864 1.297,10.7734 L7.297,16.7104 C7.491,16.9034 7.746,16.9994 8,16.9994 C8.258,16.9994 8.516,16.9004 8.711,16.7034 C9.1,16.3114 9.096,15.6774 8.703,15.2894 L4.432,11.0624 L18,11.0624 C18.553,11.0624 19,10.6144 19,10.0624 C19,9.5104 18.553,9.0624 18,9.0624" />
</svg>