<svg id="attachment" viewBox="0 0 20 20" xmlns="http://www.w3.org/2000/svg">
	<path d="M17.8363 3.18C17.0823 2.419 16.0753 2 15.0013 2H15.0002C13.9272 2 12.9202 2.419 12.1672 3.18L6.50125 8.896C6.50025 8.896 6.50025 8.897 6.50025 8.898L4.73225 10.682C3.76025 11.661 3.76025 13.255 4.73225 14.234C5.20325 14.71 5.83225 14.972 6.50325 14.972C7.17525 14.972 7.80425 14.71 8.27525 14.234L12.8792 9.59C13.2682 9.197 13.2662 8.564 12.8733 8.175C12.4812 7.787 11.8483 7.789 11.4593 8.181L6.85625 12.826C6.73025 12.953 6.58125 12.972 6.50325 12.972C6.42625 12.972 6.27725 12.953 6.15125 12.826C5.95425 12.627 5.95425 12.29 6.15125 12.091L10.8503 7.35L13.5883 4.588C13.9633 4.209 14.4653 4 15.0013 4C15.5373 4 16.0402 4.209 16.4163 4.588C17.2022 5.382 17.2022 6.673 16.4163 7.467L15.3542 8.539L14.7072 9.191L10.7502 13.183C10.7502 13.183 10.7503 13.184 10.7493 13.184L8.98025 14.97C7.66425 16.298 5.34625 16.299 4.02625 14.97C2.65425 13.585 2.65425 11.332 4.02625 9.947L8.63025 5.303C9.01925 4.91 9.01725 4.277 8.62425 3.888C8.23225 3.5 7.59925 3.502 7.21025 3.894L2.60725 8.539C0.46425 10.7 0.46425 14.217 2.60725 16.378C3.64425 17.424 5.02725 18 6.50325 18H6.50425C7.98025 17.999 9.36325 17.423 10.3993 16.378L14.2393 12.504L17.8372 8.875C19.3923 7.305 19.3923 4.75 17.8363 3.18Z" />
</svg>