<svg id="bell" viewBox="0 0 20 20" xmlns="http://www.w3.org/2000/svg">
	<path d="M14.8927,15 L5.1067,15 C4.5697,15 4.0897,14.638 4.0147,14.176 C3.9227,13.612 4.2837,13.182 4.6867,13.05 C5.4727,12.792 5.9997,12.033 5.9997,11.162 L5.9997,8 C5.9997,6.395 6.9557,4.95 8.4327,4.32 C8.8697,4.134 9.1147,3.666 9.0197,3.201 C9.0067,3.136 8.9997,3.069 8.9997,3 C8.9997,2.449 9.4487,2 9.9997,2 C10.5517,2 10.9997,2.449 10.9997,3 C10.9997,3.069 10.9937,3.136 10.9807,3.201 C10.8857,3.666 11.1307,4.134 11.5677,4.32 C13.0447,4.95 13.9997,6.395 13.9997,8 L13.9997,11.162 C13.9997,12.033 14.5277,12.792 15.3127,13.05 C15.7167,13.182 16.0777,13.612 15.9857,14.175 C15.9107,14.638 15.4307,15 14.8927,15 M9.9997,18 C9.2637,18 8.6247,17.595 8.2787,17 L11.7217,17 C11.3747,17.595 10.7367,18 9.9997,18 M15.9377,11.149 L15.9997,11.162 L15.9997,8 C15.9997,5.833 14.8407,3.862 12.9937,2.8 C12.8907,1.239 11.5867,0 9.9997,0 C8.4137,0 7.1097,1.239 7.0067,2.8 C5.1597,3.862 3.9997,5.833 3.9997,8 L4.0627,11.149 C2.6517,11.613 1.8007,13.021 2.0397,14.497 C2.2727,15.924 3.5907,17 5.1067,17 L6.1427,17 C6.5887,18.72 8.1417,20 9.9997,20 C11.8587,20 13.4117,18.72 13.8577,17 L14.8927,17 C16.4087,17 17.7277,15.924 17.9597,14.496 C18.1997,13.021 17.3487,11.613 15.9377,11.149" />
</svg>