<svg id="bell-strikethrough" viewBox="0 0 20 20" xmlns="http://www.w3.org/2000/svg">
	<path d="M15.8935,6.9344 C15.9565,7.2834 15.9995,7.6374 15.9995,8.0004 L15.9995,8.0004 L15.9995,11.1624 L15.9375,11.1494 C17.3485,11.6134 18.1995,13.0214 17.9595,14.4964 C17.7275,15.9234 16.4085,17.0004 14.8925,17.0004 L14.8925,17.0004 L13.8735498,16.9998768 C13.4285512,18.7234493 11.8608584,20 10,20 C8.14031606,20 6.57774261,18.723154 6.13187872,17.000372 L5.8285,17.0004 L7.8285,15.0004 L14.8925,15.0004 C15.4305,15.0004 15.9105,14.6374 15.9855,14.1754 C16.0775,13.6114 15.7165,13.1824 15.3125,13.0494 C14.5275,12.7914 14.0005,12.0334 14.0005,11.1624 L14.0005,11.1624 L14.0005,8.8284 Z M17.707,2.293 C18.098,2.684 18.098,3.316 17.707,3.707 L2.707,18.707 C2.512,18.902 2.256,19 2,19 C1.744,19 1.488,18.902 1.293,18.707 C0.902,18.316 0.902,17.684 1.293,17.293 L16.293,2.293 C16.684,1.902 17.316,1.902 17.707,2.293 Z M11.7313126,17.0006479 L8.26868741,17.0006479 C8.61503826,17.5977009 9.26132424,18 10,18 C10.7386758,18 11.3849617,17.5977009 11.7313126,17.0006479 Z M9.9999,-0.0005 C11.5869,-0.0005 12.8909,1.2385 12.9929,2.8005 C13.2819,2.9665 13.5479,3.1625 13.8019,3.3705 L13.8019,3.3705 L12.3769,4.7955 C12.1269,4.6105 11.8609,4.4455 11.5679,4.3205 C11.1309,4.1335 10.8859,3.6665 10.9809,3.2005 C10.9929,3.1355 10.9999,3.0685 10.9999,2.9995 C10.9999,2.4485 10.5519,1.9995 9.9999,1.9995 C9.4479,1.9995 8.9999,2.4485 8.9999,2.9995 C8.9999,3.0685 9.0069,3.1355 9.0199,3.2005 C9.1139,3.6665 8.8689,4.1335 8.4329,4.3205 C6.9549,4.9505 5.9999,6.3955 5.9999,7.9995 L5.9999,7.9995 L5.9999,11.1625 C5.9999,11.1665 5.9979,11.1695 5.9979,11.1735 L5.9979,11.1735 L2.1729,14.9995 C2.1139,14.8375 2.0689,14.6695 2.0399,14.4965 C1.8009,13.0205 2.6519,11.6135 4.0629,11.1495 L4.0629,11.1495 L3.9999,7.9995 C3.9999,5.8325 5.1589,3.8615 7.0069,2.8005 C7.1099,1.2385 8.4129,-0.0005 9.9999,-0.0005 Z" />
</svg>