<svg id="briefcase" viewBox="0 0 20 20" xmlns="http://www.w3.org/2000/svg">
	<path d="M2,17 L2,10.495 C4.604,11.487 7.303,11.988 10,11.988 C12.697,11.988 15.396,11.487 18,10.495 L18,17 L2,17 Z M18,7 L18,8.34 C12.752,10.561 7.248,10.561 2,8.34 L2,7 L18,7 Z M7,4 C7,3.449 7.448,3 8,3 L12,3 C12.552,3 13,3.449 13,4 L13,5 L7,5 L7,4 Z M19,5 L15,5 L15,4 C15,2.346 13.654,1 12,1 L8,1 C6.346,1 5,2.346 5,4 L5,5 L1,5 C0.447,5 0,5.448 0,6 L0,18 C0,18.552 0.447,19 1,19 L19,19 C19.553,19 20,18.552 20,18 L20,6 C20,5.448 19.553,5 19,5 Z" />
</svg>