<svg id="briefcase-check" viewBox="0 0 20 20" xmlns="http://www.w3.org/2000/svg">
	<path d="M19,5 C19.553,5 20,5.448 20,6 L20,18 C20,18.552 19.553,19 19,19 L1,19 C0.447,19 0,18.552 0,18 L0,6 C0,5.448 0.447,5 1,5 L5,5 L5,4 C5,2.346 6.346,1 8,1 L12,1 C13.654,1 15,2.346 15,4 L15,5 L19,5 Z M2,17 L18,17 L18,7 L2,7 L2,17 Z M7,4 L7,5 L13,5 L13,4 C13,3.449 12.552,3 12,3 L8,3 C7.448,3 7,3.449 7,4 Z M9,15 C8.744,15 8.488,14.902 8.293,14.707 L6.293,12.707 C5.902,12.316 5.902,11.684 6.293,11.293 C6.684,10.902 7.316,10.902 7.707,11.293 L9,12.586 L12.293,9.293 C12.684,8.902 13.316,8.902 13.707,9.293 C14.098,9.684 14.098,10.316 13.707,10.707 L9.707,14.707 C9.512,14.902 9.256,15 9,15 Z" />
</svg>