<svg id="briefcase-strikethrough" viewBox="0 0 20 20" xmlns="http://www.w3.org/2000/svg">
	<path d="M19,5 L18.828,5 L16.828,7 L18,7 L18,8.34 C16.783,8.854 15.553,9.237 14.314,9.513 L11.93,11.898 C13.979,11.717 16.017,11.25 18,10.495 L18,17 L6.828,17 L4.828,19 L19,19 C19.553,19 20,18.552 20,18 L20,6 C20,5.448 19.553,5 19,5 L19,5 Z M18.707,2.293 C18.316,1.902 17.684,1.902 17.293,2.293 L1.293,18.293 C0.902,18.684 0.902,19.316 1.293,19.707 C1.488,19.902 1.744,20 2,20 C2.256,20 2.512,19.902 2.707,19.707 L18.707,3.707 C19.098,3.316 19.098,2.684 18.707,2.293 L18.707,2.293 Z M7,4 C7,3.449 7.448,3 8,3 L12,3 C12.552,3 13,3.449 13,4 L13,5 L7,5 L7,4 Z M2,10.495 C3.471,11.055 4.973,11.441 6.485,11.686 L8.256,9.916 C6.152,9.727 4.057,9.21 2,8.34 L2,7 L11.172,7 L14.9,3.271 C14.572,1.97 13.402,1 12,1 L8,1 C6.346,1 5,2.346 5,4 L5,5 L1,5 C0.447,5 0,5.448 0,6 L0,18 C0,18.149 0.037,18.289 0.097,18.416 C0.189,18.113 0.346,17.826 0.586,17.586 L2,16.172 L2,10.495 Z" />
</svg>