<svg id="bullet-list" viewBox="0 0 20 20" xmlns="http://www.w3.org/2000/svg">
	<path d="M6,4.999 C5.447,4.999 5,4.551 5,3.999 C5,3.447 5.447,2.999 6,2.999 L18,2.999 C18.553,2.999 19,3.447 19,3.999 C19,4.551 18.553,4.999 18,4.999 L6,4.999 Z M1.5,2.5 C2.329,2.5 3,3.171 3,3.999 C3,4.826 2.329,5.498 1.5,5.498 C0.671,5.498 0,4.826 0,3.999 C0,3.171 0.671,2.5 1.5,2.5 Z M1.5,14.5 C2.329,14.5 3,15.172 3,15.999 C3,16.827 2.329,17.499 1.5,17.499 C0.671,17.499 0,16.827 0,15.999 C0,15.172 0.671,14.5 1.5,14.5 Z M3,9.999 C3,10.826 2.329,11.499 1.5,11.499 C0.671,11.499 0,10.826 0,9.999 C0,9.172 0.671,8.5 1.5,8.5 C2.329,8.5 3,9.172 3,9.999 Z M18,14.999 C18.553,14.999 19,15.447 19,15.999 C19,16.551 18.553,16.999 18,16.999 L6,16.999 C5.447,16.999 5,16.551 5,15.999 C5,15.447 5.447,14.999 6,14.999 L18,14.999 Z M18,8.999 C18.553,8.999 19,9.447 19,9.999 C19,10.551 18.553,10.999 18,10.999 L6,10.999 C5.447,10.999 5,10.551 5,9.999 C5,9.447 5.447,8.999 6,8.999 L18,8.999 Z" />
</svg>