<svg id="calculator" viewBox="0 0 20 20" xmlns="http://www.w3.org/2000/svg">
	<path d="M15.999,1 C17.103,1 18,1.897 18,3.001 L18,3.001 L18,16.999 C18,18.103 17.103,19 15.999,19 L15.999,19 L4.001,19 C2.897,19 2,18.103 2,16.999 L2,16.999 L2,3.001 C2,1.897 2.897,1 4.001,1 L4.001,1 Z M16,3.001 L4.001,3 L4,16.999 L16,17 L16,3.001 Z M14,11 C14.553,11 15,11.448 15,12 L15,12 L15,15 C15,15.552 14.553,16 14,16 C13.447,16 13,15.552 13,15 L13,15 L13,12 C13,11.448 13.447,11 14,11 Z M7,14 C7.553,14 8,14.448 8,15 C8,15.552 7.553,16 7,16 L7,16 L6,16 C5.447,16 5,15.552 5,15 C5,14.448 5.447,14 6,14 L6,14 Z M11,14 C11.553,14 12,14.448 12,15 C12,15.552 11.553,16 11,16 L11,16 L10,16 C9.447,16 9,15.552 9,15 C9,14.448 9.447,14 10,14 L10,14 Z M7,11 C7.553,11 8,11.448 8,12 C8,12.552 7.553,13 7,13 L7,13 L6,13 C5.447,13 5,12.552 5,12 C5,11.448 5.447,11 6,11 L6,11 Z M11,11 C11.553,11 12,11.448 12,12 C12,12.552 11.553,13 11,13 L11,13 L10,13 C9.447,13 9,12.552 9,12 C9,11.448 9.447,11 10,11 L10,11 Z M14,4 C14.553,4 15,4.448 15,5 L15,5 L15,9 C15,9.552 14.553,10 14,10 L14,10 L6,10 C5.447,10 5,9.552 5,9 L5,9 L5,5 C5,4.448 5.447,4 6,4 L6,4 Z M13,6 L7,6 L7,8 L13,8 L13,6 Z" />
</svg>