<svg id="calendar-export" viewBox="0 0 20 20" xmlns="http://www.w3.org/2000/svg">
	<path d="M14,0 C14.553,0 15,0.448 15,1 L15,1 L15,2 L19,2 C19.553,2 20,2.448 20,3 L20,3 L20,19 C20,19.552 19.553,20 19,20 L19,20 L1,20 C0.447,20 0,19.552 0,19 L0,19 L0,3 C0,2.448 0.447,2 1,2 L1,2 L5,2 L5,1 C5,0.448 5.447,0 6,0 C6.553,0 7,0.448 7,1 L7,1 L7,2 L13,2 L13,1 C13,0.448 13.447,0 14,0 Z M5,4 L2,4 L2,18 L18,18 L18,4 L15,4 L15,5 C15,5.552 14.553,6 14,6 C13.447,6 13,5.552 13,5 L13,5 L13,4 L7,4 L7,5 C7,5.552 6.553,6 6,6 C5.447,6 5,5.552 5,5 L5,5 L5,4 Z M9.9728,7.0001 C10.2368,7.0001 10.4888,7.1041 10.6758,7.2891 L10.6758,7.2891 L13.3198,9.9061 C13.7118,10.2941 13.7158,10.9281 13.3268,11.3201 C13.1318,11.5181 12.8738,11.6171 12.6158,11.6171 C12.3628,11.6171 12.1078,11.5201 11.9128,11.3281 L11.9128,11.3281 L10.9728,10.3961 L10.9728,14.9771 C10.9728,15.5301 10.5258,15.9771 9.9728,15.9771 C9.4198,15.9771 8.9728,15.5301 8.9728,14.9771 L8.9728,14.9771 L8.9728,10.4331 L8.0948,11.3201 C7.7068,11.7121 7.0718,11.7161 6.6808,11.3281 C6.2878,10.9391 6.2838,10.3061 6.6728,9.9141 L6.6728,9.9141 L9.2618,7.2971 C9.4478,7.1081 9.7018,7.0011 9.9678,7.0001 L9.9678,7.0001 Z" />
</svg>