<svg id="calendar-today" viewBox="0 0 20 20" xmlns="http://www.w3.org/2000/svg">
	<path d="M6,8 C4.895,8 4,8.896 4,10 C4,11.104 4.895,12 6,12 C7.105,12 8,11.104 8,10 C8,8.896 7.105,8 6,8 M18,18 L2,18 L2,4 L5,4 L5,5 C5,5.552 5.447,6 6,6 C6.553,6 7,5.552 7,5 L7,4 L13,4 L13,5 C13,5.552 13.447,6 14,6 C14.553,6 15,5.552 15,5 L15,4 L18,4 L18,18 Z M19,2 L15,2 L15,1 C15,0.448 14.553,0 14,0 C13.447,0 13,0.448 13,1 L13,2 L7,2 L7,1 C7,0.448 6.553,0 6,0 C5.447,0 5,0.448 5,1 L5,2 L1,2 C0.447,2 0,2.448 0,3 L0,19 C0,19.552 0.447,20 1,20 L19,20 C19.553,20 20,19.552 20,19 L20,3 C20,2.448 19.553,2 19,2 L19,2 Z" />
</svg>