<svg id="calendar-unavailable" viewBox="0 0 20 20" xmlns="http://www.w3.org/2000/svg">
	<path d="M13.2842,8.2158 C12.8932,7.8248 12.2612,7.8248 11.8702,8.2158 L10.0002,10.0858 L8.1302,8.2158 C7.7392,7.8248 7.1062,7.8248 6.7162,8.2158 C6.3252,8.6068 6.3252,9.2388 6.7162,9.6298 L8.5862,11.4998 L6.7162,13.3698 C6.3252,13.7608 6.3252,14.3938 6.7162,14.7838 C6.9112,14.9798 7.1672,15.0768 7.4232,15.0768 C7.6792,15.0768 7.9342,14.9798 8.1302,14.7838 L10.0002,12.9138 L11.8702,14.7838 C12.0652,14.9798 12.3212,15.0768 12.5772,15.0768 C12.8332,15.0768 13.0892,14.9798 13.2842,14.7838 C13.6752,14.3938 13.6752,13.7608 13.2842,13.3698 L11.4142,11.4998 L13.2842,9.6298 C13.6752,9.2388 13.6752,8.6068 13.2842,8.2158 M18,18 L2,18 L2,4 L5,4 L5,5 C5,5.552 5.447,6 6,6 C6.553,6 7,5.552 7,5 L7,4 L13,4 L13,5 C13,5.552 13.447,6 14,6 C14.553,6 15,5.552 15,5 L15,4 L18,4 L18,18 Z M19,2 L15,2 L15,1 C15,0.448 14.553,0 14,0 C13.447,0 13,0.448 13,1 L13,2 L7,2 L7,1 C7,0.448 6.553,0 6,0 C5.447,0 5,0.448 5,1 L5,2 L1,2 C0.447,2 0,2.448 0,3 L0,19 C0,19.552 0.447,20 1,20 L19,20 C19.553,20 20,19.552 20,19 L20,3 C20,2.448 19.553,2 19,2 L19,2 Z" />
</svg>