<svg id="calendar" viewBox="0 0 20 20" xmlns="http://www.w3.org/2000/svg">
	<path d="M18,18 L18,4 L15,4 L15,5 C15,5.552 14.553,6 14,6 C13.447,6 13,5.552 13,5 L13,4 L7,4 L7,5 C7,5.552 6.553,6 6,6 C5.447,6 5,5.552 5,5 L5,4 L2,4 L2,18 L18,18 Z M19,2 C19.553,2 20,2.448 20,3 L20,19 C20,19.553 19.553,20 19,20 L1,20 C0.447,20 0,19.553 0,19 L0,3 C0,2.448 0.447,2 1,2 L5,2 L5,1 C5,0.448 5.447,0 6,0 C6.553,0 7,0.448 7,1 L7,2 L13,2 L13,1 C13,0.448 13.447,0 14,0 C14.553,0 15,0.448 15,1 L15,2 L19,2 Z M14,8 C14.553,8 15,8.448 15,9 C15,9.552 14.553,10 14,10 C13.447,10 13,9.552 13,9 C13,8.448 13.447,8 14,8 Z M10,8 C10.553,8 11,8.448 11,9 C11,9.552 10.553,10 10,10 C9.447,10 9,9.552 9,9 C9,8.448 9.447,8 10,8 Z M6,8 C6.553,8 7,8.448 7,9 C7,9.552 6.553,10 6,10 C5.447,10 5,9.552 5,9 C5,8.448 5.447,8 6,8 Z M14,11 C14.553,11 15,11.448 15,12 C15,12.552 14.553,13 14,13 C13.447,13 13,12.552 13,12 C13,11.448 13.447,11 14,11 Z M10,11 C10.553,11 11,11.448 11,12 C11,12.552 10.553,13 10,13 C9.447,13 9,12.552 9,12 C9,11.448 9.447,11 10,11 Z M6,11 C6.553,11 7,11.448 7,12 C7,12.552 6.553,13 6,13 C5.447,13 5,12.552 5,12 C5,11.448 5.447,11 6,11 Z M14,14 C14.553,14 15,14.448 15,15 C15,15.552 14.553,16 14,16 C13.447,16 13,15.552 13,15 C13,14.448 13.447,14 14,14 Z M10,14 C10.553,14 11,14.448 11,15 C11,15.552 10.553,16 10,16 C9.447,16 9,15.552 9,15 C9,14.448 9.447,14 10,14 Z M7,15 C7,15.552 6.553,16 6,16 C5.447,16 5,15.552 5,15 C5,14.448 5.447,14 6,14 C6.553,14 7,14.448 7,15 Z" />
</svg>