<svg id="calendar-check" viewBox="0 0 20 20" xmlns="http://www.w3.org/2000/svg">
	<path d="M18,18 L18,4 L15,4 L15,5 C15,5.552 14.553,6 14,6 C13.447,6 13,5.552 13,5 L13,4 L7,4 L7,5 C7,5.552 6.553,6 6,6 C5.447,6 5,5.552 5,5 L5,4 L2,4 L2,18 L18,18 Z M19,2 C19.553,2 20,2.448 20,3 L20,19 C20,19.552 19.553,20 19,20 L1,20 C0.447,20 0,19.552 0,19 L0,3 C0,2.448 0.447,2 1,2 L5,2 L5,1 C5,0.448 5.447,0 6,0 C6.553,0 7,0.448 7,1 L7,2 L13,2 L13,1 C13,0.448 13.447,0 14,0 C14.553,0 15,0.448 15,1 L15,2 L19,2 Z M12.293,8.293 C12.684,7.902 13.316,7.902 13.707,8.293 C14.098,8.684 14.098,9.316 13.707,9.707 L9.707,13.707 C9.512,13.902 9.256,14 9,14 C8.744,14 8.488,13.902 8.293,13.707 L6.293,11.707 C5.902,11.316 5.902,10.684 6.293,10.293 C6.684,9.902 7.316,9.902 7.707,10.293 L9,11.586 L12.293,8.293 Z" />
</svg>