<svg id="calendar-warning" viewBox="0 0 20 20" xmlns="http://www.w3.org/2000/svg">
	<path d="M19,2 C19.553,2 20,2.448 20,3 L20,19 C20,19.552 19.553,20 19,20 L1,20 C0.447,20 0,19.552 0,19 L0,3 C0,2.448 0.447,2 1,2 L5,2 L5,1 C5,0.448 5.447,0 6,0 C6.553,0 7,0.448 7,1 L7,2 L13,2 L13,1 C13,0.448 13.447,0 14,0 C14.553,0 15,0.448 15,1 L15,2 L19,2 Z M18,18 L18,4 L15,4 L15,5 C15,5.552 14.553,6 14,6 C13.447,6 13,5.552 13,5 L13,4 L7,4 L7,5 C7,5.552 6.553,6 6,6 C5.447,6 5,5.552 5,5 L5,4 L2,4 L2,18 L18,18 Z M10.71,14.291 C10.801,14.381 10.873,14.491 10.927,14.618 C10.973,14.736 11,14.873 11,15 C11,15.136 10.973,15.264 10.927,15.382 C10.873,15.509 10.801,15.618 10.71,15.709 C10.518,15.9 10.264,16 10,16 C9.863,16 9.736,15.973 9.619,15.927 C9.491,15.873 9.382,15.8 9.29,15.709 C9.2,15.618 9.128,15.499 9.072,15.382 C9.026,15.264 9,15.136 9,15 C9,14.873 9.026,14.736 9.072,14.618 C9.1,14.554 9.128,14.5 9.164,14.445 C9.2,14.391 9.246,14.336 9.29,14.291 C9.526,14.063 9.873,13.955 10.191,14.018 C10.255,14.036 10.318,14.054 10.382,14.072 C10.446,14.1 10.5,14.136 10.555,14.172 C10.609,14.209 10.663,14.245 10.71,14.291 Z M10,7 C10.553,7 11,7.448 11,8 L11,12 C11,12.552 10.553,13 10,13 C9.447,13 9,12.552 9,12 L9,8 C9,7.448 9.447,7 10,7 Z" />
</svg>