<svg id="career" viewBox="0 0 20 20" xmlns="http://www.w3.org/2000/svg">
	<path d="M16.9997582,1.0004 C17.5527582,1.0004 17.9997582,1.4484 17.9997582,2.0004 L17.9997582,18.0004 C17.9997582,18.5524 17.5527582,19.0004 16.9997582,19.0004 C16.4467582,19.0004 15.9997582,18.5524 15.9997582,18.0004 L15.9997582,16.0004 L11.9997582,16.0004 L11.9997582,18.0004 C11.9997582,18.5524 11.5527582,19.0004 10.9997582,19.0004 C10.4467582,19.0004 9.99975817,18.5524 9.99975817,18.0004 L9.99975817,2.0004 C9.99975817,1.4484 10.4467582,1.0004 10.9997582,1.0004 C11.5527582,1.0004 11.9997582,1.4484 11.9997582,2.0004 L11.9997582,4.0004 L15.9997582,4.0004 L15.9997582,2.0004 C15.9997582,1.4484 16.4467582,1.0004 16.9997582,1.0004 Z M11.9997582,14.0004 L15.9997582,14.0004 L15.9997582,11.0004 L11.9997582,11.0004 L11.9997582,14.0004 Z M11.9997582,9.0004 L15.9997582,9.0004 L15.9997582,6.0004 L11.9997582,6.0004 L11.9997582,9.0004 Z M5.63755817,1.286 L8.70055817,4.286 C9.09455817,4.673 9.10055817,5.306 8.71455817,5.7 C8.51855817,5.9 8.25955817,6 7.99955817,6 C7.74655817,6 7.49455817,5.905 7.29955817,5.715 L5.93755817,4.38 L5.93755817,11 C5.93755817,11.553 5.49055817,12 4.93755817,12 C4.38455817,12 3.93755817,11.553 3.93755817,11 L3.93755817,4.451 L2.71455817,5.7 C2.32755817,6.095 1.69555817,6.102 1.30055817,5.715 C0.905558172,5.328 0.899558172,4.695 1.28455817,4.301 L4.22255817,1.301 C4.40855817,1.111 4.66155817,1.003 4.92655817,1 C5.23055817,1.016 5.44755817,1.1 5.63755817,1.286 Z" />
</svg>