<svg id="chat" viewBox="0 0 20 20" xmlns="http://www.w3.org/2000/svg">
	<path d="M19,1 L2,1 C1.447,1 1,1.448 1,2 L1,15 C1,15.552 1.447,16 2,16 L4,16 L4,18.859 C4,19.241 4.217,19.589 4.559,19.757 C4.699,19.826 4.85,19.859 5,19.859 C5.217,19.859 5.433,19.789 5.611,19.651 L10.341,16 L19,16 C19.553,16 20,15.552 20,15 L20,2 C20,1.448 19.553,1 19,1 L19,1 Z M18,14 L9.977,14 C9.771,14 9.57,14.068 9.407,14.194 L6,16.824 L6,14.931 C6,14.417 5.583,14 5.069,14 L3,14 L3,3 L18,3 L18,14 Z M6.5,10 C7.328,10 8,9.328 8,8.5 C8,7.671 7.328,7 6.5,7 C5.672,7 5,7.671 5,8.5 C5,9.328 5.672,10 6.5,10 Z M10.5,10 C11.328,10 12,9.328 12,8.5 C12,7.671 11.328,7 10.5,7 C9.672,7 9,7.671 9,8.5 C9,9.328 9.672,10 10.5,10 Z M14.5,10 C15.328,10 16,9.328 16,8.5 C16,7.671 15.328,7 14.5,7 C13.672,7 13,7.671 13,8.5 C13,9.328 13.672,10 14.5,10 Z" />
</svg>