<svg id="clock" viewBox="0 0 20 20" xmlns="http://www.w3.org/2000/svg">
	<path d="M10,18 C14.411,18 18,14.411 18,10 C18,5.589 14.411,2 10,2 C5.589,2 2,5.589 2,10 C2,14.411 5.589,18 10,18 Z M10,0 C15.514,0 20,4.486 20,10 C20,15.514 15.514,20 10,20 C4.486,20 0,15.514 0,10 C0,4.486 4.486,0 10,0 Z M11,9.5859 L13.707,12.2929 C14.098,12.6839 14.098,13.3159 13.707,13.7069 C13.512,13.9019 13.256,13.9999 13,13.9999 C12.744,13.9999 12.488,13.9019 12.293,13.7069 L9,10.4139 L9,4.9999 C9,4.4479 9.447,3.9999 10,3.9999 C10.553,3.9999 11,4.4479 11,4.9999 L11,9.5859 Z" />
</svg>