<svg id="close" viewBox="0 0 20 20" xmlns="http://www.w3.org/2000/svg">
	<path d="M11.4141,10 L17.7071,3.707 C18.0981,3.316 18.0981,2.684 17.7071,2.293 C17.3161,1.902 16.6841,1.902 16.2931,2.293 L10.0001,8.586 L3.7071,2.293 C3.3161,1.902 2.6841,1.902 2.2931,2.293 C1.9021,2.684 1.9021,3.316 2.2931,3.707 L8.5861,10 L2.2931,16.293 C1.9021,16.684 1.9021,17.316 2.2931,17.707 C2.4881,17.902 2.7441,18 3.0001,18 C3.2561,18 3.5121,17.902 3.7071,17.707 L10.0001,11.414 L16.2931,17.707 C16.4881,17.902 16.7441,18 17.0001,18 C17.2561,18 17.5121,17.902 17.7071,17.707 C18.0981,17.316 18.0981,16.683 17.7071,16.292 L11.4141,10 Z" />
</svg>