<svg id="cookie" viewBox="0 0 20 20" xmlns="http://www.w3.org/2000/svg">
	<path d="M10.0186 19.9799C4.49836 19.9799 0 15.4692 0 9.93378C0 5.75459 2.51467 2.0777 6.4019 0.570783C6.90283 0.36986 7.47389 0.610967 7.68428 1.11327C8.02492 1.92701 8.81639 2.44941 9.68801 2.44941C10.3893 2.44941 11.0505 2.09779 11.4613 1.52517C11.7318 1.15346 12.2127 1.00277 12.6435 1.17355C13.0743 1.34433 13.3348 1.77632 13.2747 2.23844L13.2657 2.30547C13.2516 2.40909 13.2446 2.46089 13.2446 2.51973C13.2446 3.72527 14.2264 4.70979 15.4287 4.70979C15.8194 4.70979 16.1901 4.59928 16.5508 4.38831C16.9816 4.12711 17.5326 4.22757 17.8532 4.61937C18.1738 5.01117 18.1437 5.57376 17.7931 5.94546C17.4023 6.35735 17.1819 6.8898 17.1819 7.45238C17.1819 8.55746 18.0135 9.4817 19.1155 9.6123C19.6465 9.67258 20.0372 10.1447 19.9972 10.6872C19.6165 15.9112 15.2383 20 10.0186 20V19.9799ZM6.35181 2.79098C3.68685 4.15725 2.00372 6.87975 2.00372 9.93378C2.00372 14.3641 5.60041 17.9707 10.0186 17.9707C13.9059 17.9707 17.222 15.1276 17.9033 11.3603C16.3003 10.7676 15.1782 9.2205 15.1782 7.44234C15.1782 7.19118 15.1983 6.95008 15.2483 6.70897C13.5552 6.6286 12.1225 5.54362 11.5415 4.0367C10.9804 4.31799 10.3492 4.46868 9.70805 4.46868C8.37557 4.46868 7.14328 3.83577 6.37185 2.80102L6.35181 2.79098ZM6.1815 8.39673C6.87314 8.39673 7.43382 7.83451 7.43382 7.14097C7.43382 6.44743 6.87314 5.8852 6.1815 5.8852C5.48985 5.8852 4.92917 6.44743 4.92917 7.14097C4.92917 7.83451 5.48985 8.39673 6.1815 8.39673ZM7.43382 12.7467C7.43382 13.4402 6.87314 14.0024 6.1815 14.0024C5.48985 14.0024 4.92917 13.4402 4.92917 12.7467C4.92917 12.0531 5.48985 11.4909 6.1815 11.4909C6.87314 11.4909 7.43382 12.0531 7.43382 12.7467ZM11.7218 14.9569C12.4134 14.9569 12.9741 14.3947 12.9741 13.7011C12.9741 13.0076 12.4134 12.4454 11.7218 12.4454C11.0301 12.4454 10.4695 13.0076 10.4695 13.7011C10.4695 14.3947 11.0301 14.9569 11.7218 14.9569ZM12.5032 8.39673C12.5032 9.09028 11.9426 9.6525 11.2509 9.6525C10.5593 9.6525 9.99858 9.09028 9.99858 8.39673C9.99858 7.70319 10.5593 7.14097 11.2509 7.14097C11.9426 7.14097 12.5032 7.70319 12.5032 8.39673Z" />
</svg>