<svg id="copy" viewBox="0 0 20 20" xmlns="http://www.w3.org/2000/svg">
	<path d="M7.9893,18 L18.0003,18 L18.0003,8 L7.9843,8 L7.9893,18 Z M19.0003,20 L6.9903,20 C6.4383,20 5.9903,19.553 5.9903,19 L5.9833,7 C5.9833,6.735 6.0893,6.481 6.2763,6.293 C6.4643,6.105 6.7183,6 6.9833,6 L19.0003,6 C19.5523,6 20.0003,6.448 20.0003,7 L20.0003,19 C20.0003,19.552 19.5523,20 19.0003,20 Z M4,14 L1,14 C0.447,14 0,13.552 0,13 L0,1 C0,0.448 0.447,0 1,0 L13,0 C13.553,0 14,0.448 14,1 L14,4 C14,4.552 13.553,5 13,5 C12.447,5 12,4.552 12,4 L12,2 L2,2 L2,12 L4,12 C4.553,12 5,12.448 5,13 C5,13.552 4.553,14 4,14 Z" />
</svg>