<svg id="current-location" viewBox="0 0 20 20" xmlns="http://www.w3.org/2000/svg">
	<path d="M12,10 C12,11.104 11.105,12 10,12 C8.895,12 8,11.104 8,10 C8,8.896 8.895,8 10,8 C11.105,8 12,8.896 12,10 M15,11 L15.91,11 C15.486,13.507 13.507,15.486 11,15.91 L11,15 C11,14.448 10.553,14 10,14 C9.447,14 9,14.448 9,15 L9,15.91 C6.493,15.486 4.514,13.507 4.09,11 L5,11 C5.553,11 6,10.552 6,10 C6,9.448 5.553,9 5,9 L4.09,9 C4.514,6.493 6.493,4.514 9,4.09 L9,5 C9,5.552 9.447,6 10,6 C10.553,6 11,5.552 11,5 L11,4.09 C13.507,4.514 15.486,6.493 15.91,9 L15,9 C14.447,9 14,9.448 14,10 C14,10.552 14.447,11 15,11 M19,9 L17.931,9 C17.477,5.389 14.611,2.523 11,2.069 L11,1 C11,0.448 10.553,0 10,0 C9.447,0 9,0.448 9,1 L9,2.069 C5.389,2.523 2.523,5.389 2.069,9 L1,9 C0.447,9 0,9.448 0,10 C0,10.552 0.447,11 1,11 L2.069,11 C2.523,14.611 5.389,17.477 9,17.931 L9,19 C9,19.552 9.447,20 10,20 C10.553,20 11,19.552 11,19 L11,17.931 C14.611,17.477 17.477,14.611 17.931,11 L19,11 C19.553,11 20,10.552 20,10 C20,9.448 19.553,9 19,9" />
</svg>