<svg id="dashboard" viewBox="0 0 20 20" xmlns="http://www.w3.org/2000/svg">
	<path d="M10,4 C5.589,4 2,7.589 2,12 C2,13.829 2.631,15.585 3.771,17 L16.229,17 C17.369,15.585 18,13.829 18,12 C18,7.589 14.411,4 10,4 Z M20,12 C20,14.467 19.092,16.835 17.443,18.668 C17.437,18.675 17.43,18.676 17.424,18.683 C17.346,18.765 17.252,18.828 17.15,18.881 C17.131,18.891 17.115,18.909 17.095,18.918 C16.974,18.97 16.841,19 16.7,19 L3.3,19 C3.29,19 3.282,18.995 3.272,18.995 C3.201,18.993 3.135,18.97 3.065,18.953 C3.007,18.938 2.946,18.934 2.893,18.91 C2.847,18.889 2.81,18.852 2.767,18.825 C2.699,18.781 2.631,18.741 2.576,18.683 C2.57,18.677 2.563,18.675 2.557,18.668 C0.908,16.835 0,14.467 0,12 C0,6.486 4.486,2 10,2 C15.514,2 20,6.486 20,12 Z M10.1631,14.334 C9.7731,14.334 9.3931,14.181 9.1061,13.895 C8.7021,13.49 8.5621,12.902 8.7431,12.359 C8.8261,12.11 8.9821,11.899 9.1951,11.748 L13.9511,8.351 C14.1501,8.208 14.4231,8.23 14.5961,8.404 C14.7681,8.577 14.7911,8.849 14.6491,9.048 L11.2521,13.806 C11.0981,14.02 10.8871,14.175 10.6411,14.256 C10.4841,14.309 10.3231,14.334 10.1631,14.334 Z" />
</svg>