<svg id="database-import" viewBox="0 0 20 20" xmlns="http://www.w3.org/2000/svg">
	<path d="M13.879,19.121 L12.511,17.753 C11.787,17.907 10.946,18 10,18 C7.056,18 5,17.178 5,16 L5,14.986 C6.205,15.638 7.908,16 10,16 C10.264,16 10.502,15.978 10.752,15.966 C10.259,15.402 10,14.705 10,14 C7.056,14 5,13.178 5,12 L5,10.986 C6.205,11.638 7.908,12 10,12 C10.283,12 10.541,11.977 10.81,11.964 C10.835,11.937 10.853,11.905 10.879,11.879 C11.465,11.293 12.232,11 13,11 L13,9.638 C12.185,9.867 11.167,10 10,10 C7.056,10 5,9.178 5,8 L5,6.986 C6.205,7.638 7.908,8 10,8 C11.284,8 12.4,7.849 13.365,7.593 C13.871,6.649 14.854,6 16,6 C16.353,6 16.686,6.072 17,6.184 L17,4 C17,1.533 14.317,0 10,0 C5.683,0 3,1.533 3,4 L3,16 C3,18.467 5.683,20 10,20 C11.649,20 13.059,19.775 14.172,19.36 C14.072,19.284 13.971,19.212 13.879,19.121 M10,2 C12.944,2 15,2.822 15,4 C15,5.178 12.944,6 10,6 C7.056,6 5,5.178 5,4 C5,2.822 7.056,2 10,2 Z M19.707,13.293 C20.098,13.684 20.098,14.316 19.707,14.707 L16.707,17.707 C16.512,17.902 16.256,18 16,18 C15.744,18 15.488,17.902 15.293,17.707 L12.293,14.707 C11.902,14.316 11.902,13.684 12.293,13.293 C12.684,12.902 13.316,12.902 13.707,13.293 L15,14.586 L15,9 C15,8.448 15.447,8 16,8 C16.553,8 17,8.448 17,9 L17,14.586 L18.293,13.293 C18.684,12.902 19.316,12.902 19.707,13.293 Z" />
</svg>