<svg id="database" viewBox="0 0 20 20" xmlns="http://www.w3.org/2000/svg">
	<path d="M10,6 C7.056,6 5,5.178 5,4 C5,2.822 7.056,2 10,2 C12.944,2 15,2.822 15,4 C15,5.178 12.944,6 10,6 L10,6 Z M10,10 C7.056,10 5,9.178 5,8 L5,6.986 C6.205,7.638 7.908,8 10,8 C12.092,8 13.795,7.638 15,6.986 L15,8 C15,9.178 12.944,10 10,10 L10,10 Z M10,18 C7.056,18 5,17.178 5,16 L5,14.986 C6.205,15.638 7.908,16 10,16 C12.092,16 13.795,15.638 15,14.986 L15,16 C15,17.178 12.944,18 10,18 L10,18 Z M15,12 C15,13.178 12.944,14 10,14 C7.056,14 5,13.178 5,12 L5,10.986 C6.205,11.638 7.908,12 10,12 C12.092,12 13.795,11.638 15,10.986 L15,12 Z M10,0 C5.683,0 3,1.533 3,4 L3,16 C3,18.467 5.683,20 10,20 C14.317,20 17,18.467 17,16 L17,4 C17,1.533 14.317,0 10,0 L10,0 Z" />
</svg>