<svg id="document-lock" viewBox="0 0 20 20" xmlns="http://www.w3.org/2000/svg">
	<path d="M16,18 L16,6.237 L11.597,2 L4,2 L4,18 L16,18 Z M17.693,5.09 C17.89,5.279 18,5.539 18,5.811 L18,19 C18,19.552 17.553,20 17,20 L3,20 C2.447,20 2,19.552 2,19 L2,1 C2,0.735 2.105,0.48 2.293,0.293 C2.48,0.105 2.734,0 3,0 L12,0 C12.259,0 12.507,0.101 12.693,0.28 L17.693,5.09 Z M10.6504,7.6509 C10.6504,7.2979 10.3524,6.9999 10.0004,6.9999 C9.6474,6.9999 9.3494,7.2979 9.3494,7.6509 L9.3494,8.9599 L10.6504,8.9599 L10.6504,7.6509 Z M8.0004,13.9999 L12.0004,13.9999 L12.0004,10.9599 L8.0004,10.9599 L8.0004,13.9999 Z M7.3494,7.6509 C7.3494,6.1889 8.5384,4.9999 10.0004,4.9999 C11.4624,4.9999 12.6504,6.1889 12.6504,7.6509 L12.6504,8.9599 L13.0004,8.9599 C13.5524,8.9599 14.0004,9.4079 14.0004,9.9599 L14.0004,14.9999 C14.0004,15.5519 13.5524,15.9999 13.0004,15.9999 L7.0004,15.9999 C6.4474,15.9999 6.0004,15.5519 6.0004,14.9999 L6.0004,9.9599 C6.0004,9.4079 6.4474,8.9599 7.0004,8.9599 L7.3494,8.9599 L7.3494,7.6509 Z" />
</svg>