<svg id="document-clock" viewBox="0 0 20 20" xmlns="http://www.w3.org/2000/svg">
	<path d="M13,0 C13.259,0 13.507,0.101 13.693,0.28 L13.693,0.28 L18.693,5.09 C18.89,5.279 19,5.539 19,5.811 L19,5.811 L19,19 C19,19.552 18.553,20 18,20 L18,20 L4,20 C3.447,20 3,19.552 3,19 L3,19 L3,15.18 C1.77,13.996 1,12.337 1,10.5 C1,8.663 1.77,7.004 3,5.82 L3,5.82 L3,1 C3,0.735 3.105,0.48 3.293,0.293 C3.48,0.105 3.734,0 4,0 L4,0 Z M12.597,2 L5,2 L5,4.501 C5.771,4.179 6.614,4 7.5,4 C11.084,4 14,6.916 14,10.5 C14,14.084 11.084,17 7.5,17 C6.614,17 5.771,16.821 5,16.499 L5,16.499 L5,18 L17,18 L17,6.237 L12.597,2 Z M7.5,6 C5.019,6 3,8.019 3,10.5 C3,12.981 5.019,15 7.5,15 C9.981,15 12,12.981 12,10.5 C12,8.019 9.981,6 7.5,6 Z M7.5001,7 C8.0531,7 8.5001,7.448 8.5001,8 L8.5001,8 L8.5001,10.087 L9.7021,11.294 C10.0931,11.686 10.0911,12.319 9.7001,12.708 C9.5051,12.903 9.2491,13 8.9941,13 C8.7371,13 8.4811,12.902 8.2861,12.706 L8.2861,12.706 L6.5001,10.913 L6.5001,8 C6.5001,7.448 6.9471,7 7.5001,7 Z" />
</svg>