<svg id="document-search" viewBox="0 0 20 20" xmlns="http://www.w3.org/2000/svg">
	<path d="M4,18 L16,18 L16,6.237 L11.597,2 L4,2 L4,18 Z M17,20 L3,20 C2.447,20 2,19.552 2,19 L2,1 C2,0.735 2.105,0.48 2.293,0.293 C2.48,0.105 2.734,0 3,0 L12,0 C12.259,0 12.507,0.101 12.693,0.28 L17.693,5.09 C17.89,5.279 18,5.539 18,5.811 L18,19 C18,19.552 17.553,20 17,20 Z M8,10.5713 C8,11.4383 8.705,12.1433 9.571,12.1433 C10.438,12.1433 11.143,11.4383 11.143,10.5713 C11.143,9.7053 10.438,9.0003 9.571,9.0003 C8.705,9.0003 8,9.7053 8,10.5713 Z M13.707,13.2923 C14.098,13.6833 14.098,14.3163 13.707,14.7073 C13.512,14.9023 13.256,15.0003 13,15.0003 C12.744,15.0003 12.488,14.9023 12.293,14.7073 L11.436,13.8503 C11.436,13.8503 11.436,13.8493 11.435,13.8493 L11.274,13.6893 C10.766,13.9683 10.191,14.1433 9.571,14.1433 C7.603,14.1433 6,12.5403 6,10.5713 C6,8.6023 7.603,7.0003 9.571,7.0003 C11.54,7.0003 13.143,8.6023 13.143,10.5713 C13.143,11.1913 12.969,11.7663 12.688,12.2753 L12.848,12.4343 C12.849,12.4353 12.85,12.4353 12.85,12.4353 L13.707,13.2923 Z" />
</svg>