<svg id="document-check" viewBox="0 0 20 20" xmlns="http://www.w3.org/2000/svg">
	<path d="M9,14 C8.744,14 8.488,13.902 8.293,13.707 L6.293,11.707 C5.902,11.316 5.902,10.684 6.293,10.293 C6.684,9.902 7.316,9.902 7.707,10.293 L9,11.586 L12.293,8.293 C12.684,7.902 13.316,7.902 13.707,8.293 C14.098,8.684 14.098,9.316 13.707,9.707 L9.707,13.707 C9.512,13.902 9.256,14 9,14 Z M4,18 L16,18 L16,6.237 L11.597,2 L4,2 L4,18 Z M17,20 L3,20 C2.447,20 2,19.552 2,19 L2,1 C2,0.735 2.105,0.48 2.293,0.293 C2.48,0.105 2.734,0 3,0 L12,0 C12.259,0 12.507,0.101 12.693,0.28 L17.693,5.09 C17.89,5.279 18,5.539 18,5.811 L18,19 C18,19.552 17.553,20 17,20 Z" />
</svg>