<svg id="dollar" viewBox="0 0 20 20" xmlns="http://www.w3.org/2000/svg">
	<path d="M13.1221,11.2104 C12.5181,10.2124 11.5631,9.5094 10.4331,9.2314 L8.7991,8.8274 C8.1851,8.6764 7.6691,8.2954 7.3421,7.7544 C7.0161,7.2144 6.9191,6.5794 7.0701,5.9664 C7.3831,4.7004 8.6701,3.9294 9.9321,4.2374 C11.1971,4.5504 11.9731,5.8344 11.6601,7.0994 C11.5271,7.6354 11.8551,8.1774 12.3921,8.3094 C12.9281,8.4454 13.4701,8.1144 13.6011,7.5784 C14.1791,5.2424 12.7471,2.8734 10.4101,2.2964 C10.3981,2.2934 10.3881,2.2944 10.3761,2.2914 L10.3761,1.0004 C10.3761,0.4474 9.9291,0.0004 9.3761,0.0004 C8.8231,0.0004 8.3761,0.4474 8.3761,1.0004 L8.3761,2.3014 C6.8311,2.6654 5.5341,3.8444 5.1291,5.4874 C4.8501,6.6194 5.0271,7.7924 5.6301,8.7894 C6.2331,9.7874 7.1881,10.4904 8.3191,10.7694 L9.9531,11.1724 C10.5661,11.3234 11.0831,11.7044 11.4101,12.2454 C11.7361,12.7854 11.8331,13.4204 11.6821,14.0334 C11.3691,15.2994 10.0821,16.0714 8.8201,15.7624 C7.5551,15.4494 6.7791,14.1664 7.0921,12.9004 C7.2251,12.3644 6.8961,11.8224 6.3601,11.6904 C5.8281,11.5574 5.2831,11.8854 5.1501,12.4214 C4.5731,14.7574 6.0051,17.1274 8.3421,17.7034 C8.3531,17.7064 8.3641,17.7074 8.3761,17.7104 L8.3761,19.0004 C8.3761,19.5524 8.8231,20.0004 9.3761,20.0004 C9.9291,20.0004 10.3761,19.5524 10.3761,19.0004 L10.3761,17.7024 C11.9201,17.3374 13.2181,16.1554 13.6231,14.5124 C13.9021,13.3804 13.7251,12.2084 13.1221,11.2104" />
</svg>