<svg id="edit" viewBox="0 0 20 20" xmlns="http://www.w3.org/2000/svg">
	<path d="M16.5633096,4.8645 L15.1343096,3.4365 L16.1583096,2.4135 L17.5853096,3.8415 L16.5633096,4.8645 Z M4.27730956,17.1495 L2.37430956,17.6255 L2.85030956,15.7215 L13.7203096,4.8505 L15.1483096,6.2785 L4.27730956,17.1495 Z M19.7073096,3.1345 L16.8653096,0.2925 C16.4743096,-0.0975 15.8413096,-0.0975 15.4513096,0.2925 L1.24030956,14.5035 C1.11230956,14.6315 1.02130956,14.7915 0.97730956,14.9675 L0.0303095597,18.7575 C-0.0556904403,19.0975 0.0443095597,19.4585 0.29230956,19.7065 C0.48230956,19.8965 0.73830956,19.9995 1.00030956,19.9995 C1.08130956,19.9995 1.16230956,19.9895 1.24230956,19.9695 L5.03130956,19.0225 C5.20730956,18.9785 5.36830956,18.8875 5.49630956,18.7595 L19.7073096,4.5485 C20.0973096,4.1575 20.0973096,3.5255 19.7073096,3.1345 Z" />
</svg>