<svg id="education" viewBox="0 0 20 20" xmlns="http://www.w3.org/2000/svg">
	<path d="M14,13.32275 L10,14.92275 L6,13.32275 L6,9.72075 L9.684,10.94875 C9.786,10.98275 9.894,10.99975 10,10.99975 C10.106,10.99975 10.214,10.98275 10.316,10.94875 L14,9.72075 L14,13.32275 Z M10,5.05375 L15.838,6.99975 L10,8.94575 L4.162,6.99975 L10,5.05375 Z M19.316,6.05175 L10.316,3.05175 C10.111,2.98275 9.889,2.98275 9.684,3.05175 L0.684,6.05175 C0.275,6.18775 0,6.56975 0,6.99975 C0,7.43075 0.275,7.81275 0.684,7.94875 L1.001,8.05475 L1.001,10.99975 C1.001,11.55175 1.448,11.99975 2.001,11.99975 C2.554,11.99975 3.001,11.55175 3.001,10.99975 L3.001,8.72075 L4,9.05375 L4,13.99975 C4,14.40875 4.249,14.77675 4.629,14.92875 L9.629,16.92875 C9.748,16.97575 9.874,16.99975 10,16.99975 C10.126,16.99975 10.252,16.97575 10.371,16.92875 L15.371,14.92875 C15.751,14.77675 16,14.40875 16,13.99975 L16,9.05375 L19.316,7.94875 C19.725,7.81275 20,7.43075 20,6.99975 C20,6.56975 19.725,6.18775 19.316,6.05175 Z" />
</svg>