<svg id="email-open" viewBox="0 0 20 20" xmlns="http://www.w3.org/2000/svg">
	<path d="M2,17.969337 L2,9.99187735 L9.546,13.901919 C9.688,13.9750228 9.844,14.0125901 10,14.0125901 C10.156,14.0125901 10.312,13.9750228 10.454,13.901919 L18,9.99187735 L18,17.969337 L2,17.969337 Z M10,2.06213829 L18,6.93471418 L18,7.71245812 L10,11.8570413 L2,7.71245812 L2,6.93471418 L10,2.06213829 Z M20,6.80069043 C20,6.2422581 19.614,5.55081734 19.143,5.26246319 L10.857,0.216265611 C10.622,0.0720885369 10.311,0 10,0 C9.689,0 9.378,0.0720885369 9.143,0.216265611 L0.857,5.26246319 C0.386,5.55081734 0,6.2422581 0,6.80069043 L0,18.9846685 C0,19.5431008 0.45,20 1,20 L19,20 C19.55,20 20,19.5431008 20,18.9846685 L20,6.80069043 Z" />
</svg>