<svg id="euro" viewBox="0 0 20 20" xmlns="http://www.w3.org/2000/svg">
	<path d="M16.3301,14.2871 C15.0151,15.9321 13.0491,16.8751 10.9371,16.8751 C8.1631,16.8751 5.7701,15.2341 4.6621,12.8751 L9.0001,12.8751 C9.5531,12.8751 10.0001,12.4271 10.0001,11.8751 C10.0001,11.3231 9.5531,10.8751 9.0001,10.8751 L4.0711,10.8751 C4.0291,10.5671 4.0001,10.2561 4.0001,9.9371 C4.0001,9.5751 4.0361,9.2221 4.0901,8.8751 L9.0001,8.8751 C9.5531,8.8751 10.0001,8.4271 10.0001,7.8751 C10.0001,7.3231 9.5531,6.8751 9.0001,6.8751 L4.7221,6.8751 C5.8561,4.5831 8.2121,3.0001 10.9371,3.0001 C13.0491,3.0001 15.0151,3.9431 16.3301,5.5881 C16.6761,6.0191 17.3051,6.0901 17.7361,5.7441 C18.1671,5.3991 18.2371,4.7701 17.8921,4.3391 C16.1951,2.2171 13.6601,1.0001 10.9371,1.0001 C7.0871,1.0001 3.8061,3.4531 2.5521,6.8751 L1.0001,6.8751 C0.4471,6.8751 0.0001,7.3231 0.0001,7.8751 C0.0001,8.4271 0.4471,8.8751 1.0001,8.8751 L2.0691,8.8751 C2.0271,9.2241 2.0001,9.5771 2.0001,9.9371 C2.0001,10.2541 2.0171,10.5671 2.0501,10.8751 L1.0001,10.8751 C0.4471,10.8751 0.0001,11.3231 0.0001,11.8751 C0.0001,12.4271 0.4471,12.8751 1.0001,12.8751 L2.5061,12.8751 C3.7261,16.3621 7.0401,18.8751 10.9371,18.8751 C13.6601,18.8751 16.1951,17.6581 17.8921,15.5361 C18.2371,15.1051 18.1671,14.4751 17.7361,14.1311 C17.3051,13.7861 16.6771,13.8561 16.3301,14.2871" />
</svg>