<svg id="external" viewBox="0 0 20 20" xmlns="http://www.w3.org/2000/svg">
	<path d="M18,19 L2,19 C1.447,19 1,18.552 1,18 L1,2 C1,1.448 1.447,1 2,1 L6,1 C6.553,1 7,1.448 7,2 C7,2.552 6.553,3 6,3 L3,3 L3,17 L17,17 L17,14 C17,13.448 17.447,13 18,13 C18.553,13 19,13.448 19,14 L19,18 C19,18.552 18.553,19 18,19 Z M18.9229,1.6182 C18.9739,1.7402 18.9999,1.8702 18.9999,2.0002 L18.9999,8.0002 C18.9999,8.5522 18.5529,9.0002 17.9999,9.0002 C17.4469,9.0002 16.9999,8.5522 16.9999,8.0002 L16.9999,4.4142 L8.7069,12.7072 C8.5119,12.9022 8.2559,13.0002 7.9999,13.0002 C7.7439,13.0002 7.4879,12.9022 7.2929,12.7072 C6.9019,12.3162 6.9019,11.6832 7.2929,11.2932 L15.5859,3.0002 L11.9579,3.0002 C11.4049,3.0002 10.9579,2.5522 10.9579,2.0002 C10.9579,1.4482 11.4049,1.0002 11.9579,1.0002 L17.9999,1.0002 C18.1299,1.0002 18.2599,1.0262 18.3819,1.0772 C18.6269,1.1792 18.8209,1.3732 18.9229,1.6182 Z" />
</svg>