<svg id="eye-strikethrough" viewBox="0 0 20 20" xmlns="http://www.w3.org/2000/svg">
	<path d="M18.7072,1.293 C19.0982,1.684 19.0982,2.316 18.7072,2.707 L2.7072,18.707 C2.5122,18.902 2.2562,19 2.0002,19 C1.7442,19 1.4882,18.902 1.2932,18.707 C0.9022,18.316 0.9022,17.684 1.2932,17.293 L17.2932,1.293 C17.6842,0.902 18.3162,0.902 18.7072,1.293 Z M17.2642,5.564 C18.9772,7.465 19.8522,9.447 19.9192,9.606 C20.0272,9.857 20.0272,10.143 19.9192,10.394 C19.7862,10.705 16.5842,18 10.0002,18 C8.4362,18 7.0672,17.58 5.8812,16.948 L5.8812,16.948 L7.3872,15.441 C8.1782,15.783 9.0462,16 10.0002,16 C14.5032,16 17.1832,11.396 17.8912,10.002 C17.5802,9.393 16.8912,8.171 15.8402,6.988 L15.8402,6.988 Z M10.0006,1.9995 C11.5646,1.9995 12.9326,2.4195 14.1196,3.0525 L14.1196,3.0525 L12.6136,4.5585 C11.8226,4.2165 10.9546,3.9995 10.0006,3.9995 C5.4976,3.9995 2.8176,8.6035 2.1096,9.9985 C2.4206,10.6065 3.1096,11.8285 4.1606,13.0115 L4.1606,13.0115 L2.7366,14.4355 C1.0236,12.5345 0.1486,10.5525 0.0816,10.3935 C-0.0274,10.1425 -0.0274,9.8575 0.0816,9.6055 C0.2146,9.2955 3.4166,1.9995 10.0006,1.9995 Z M13.8508,8.9771 C13.9388,9.3061 13.9998,9.6441 13.9998,10.0001 C13.9998,12.2051 12.2068,14.0001 9.9998,14.0001 C9.6448,14.0001 9.3058,13.9381 8.9778,13.8511 L8.9778,13.8511 Z M10.0007,5.9999 C10.3557,5.9999 10.6947,6.0619 11.0227,6.1489 L11.0227,6.1489 L6.1497,11.0229 C6.0617,10.6939 6.0007,10.3559 6.0007,9.9999 C6.0007,7.7949 7.7937,5.9999 10.0007,5.9999 Z" />
</svg>