<svg id="eye" viewBox="0 0 20 20" xmlns="http://www.w3.org/2000/svg">
	<path d="M10.0002,8 C8.8972,8 8.0002,8.897 8.0002,10 C8.0002,11.103 8.8972,12 10.0002,12 C11.1032,12 12.0002,11.103 12.0002,10 C12.0002,8.897 11.1032,8 10.0002,8 Z M10.0002,14 C7.7942,14 6.0002,12.206 6.0002,10 C6.0002,7.794 7.7942,6 10.0002,6 C12.2062,6 14.0002,7.794 14.0002,10 C14.0002,12.206 12.2062,14 10.0002,14 Z M2.1096,9.9985 C2.8216,11.3925 5.5146,15.9995 10.0006,15.9995 C14.5036,15.9995 17.1826,11.3955 17.8906,10.0015 C17.1786,8.6075 14.4856,3.9995 10.0006,3.9995 C5.4976,3.9995 2.8176,8.6035 2.1096,9.9985 Z M10.0006,17.9995 C3.4166,17.9995 0.2136,10.7045 0.0816,10.3945 C-0.0274,10.1425 -0.0274,9.8575 0.0816,9.6055 C0.2136,9.2955 3.4166,1.9995 10.0006,1.9995 C16.5846,1.9995 19.7866,9.2955 19.9196,9.6055 C20.0276,9.8575 20.0276,10.1425 19.9196,10.3945 C19.7866,10.7045 16.5846,17.9995 10.0006,17.9995 Z" />
</svg>