<svg id="face-overjoyed" viewBox="0 0 20 20" xmlns="http://www.w3.org/2000/svg">
	<path d="M14,11 C14.311,11 14.604,11.145 14.793,11.391 C14.982,11.637 15.046,11.957 14.967,12.257 C14.38,14.461 12.338,16 10,16 C7.662,16 5.62,14.461 5.033,12.257 C4.954,11.957 5.018,11.637 5.207,11.391 C5.396,11.145 5.689,11 6,11 L6,11 Z M6.5,6 C7.327,6 8,6.673 8,7.5 C8,8.327 7.327,9 6.5,9 C5.673,9 5,8.327 5,7.5 C5,6.673 5.673,6 6.5,6 Z M13.5,6 C14.327,6 15,6.673 15,7.5 C15,8.327 14.327,9 13.5,9 C12.673,9 12,8.327 12,7.5 C12,6.673 12.673,6 13.5,6 Z M10,18 C5.589,18 2,14.411 2,10 C2,5.589 5.589,2 10,2 C14.411,2 18,5.589 18,10 C18,14.411 14.411,18 10,18 M10,0 C4.486,0 0,4.486 0,10 C0,15.514 4.486,20 10,20 C15.514,20 20,15.514 20,10 C20,4.486 15.514,0 10,0" />
</svg>