<svg id="face-happy" viewBox="0 0 20 20" xmlns="http://www.w3.org/2000/svg">
	<path d="M10,2 C5.589,2 2,5.589 2,10 C2,14.411 5.589,18 10,18 C14.411,18 18,14.411 18,10 C18,5.589 14.411,2 10,2 Z M10,20 C4.486,20 0,15.514 0,10 C0,4.486 4.486,0 10,0 C15.514,0 20,4.486 20,10 C20,15.514 15.514,20 10,20 Z M6.5,9 C5.673,9 5,8.327 5,7.5 C5,6.673 5.673,6 6.5,6 C7.327,6 8,6.673 8,7.5 C8,8.327 7.327,9 6.5,9 Z M13.5,9 C12.673,9 12,8.327 12,7.5 C12,6.673 12.673,6 13.5,6 C14.327,6 15,6.673 15,7.5 C15,8.327 14.327,9 13.5,9 Z M10,16 C7.662,16 5.62,14.461 5.033,12.257 C4.892,11.724 5.209,11.176 5.743,11.034 C6.275,10.894 6.824,11.209 6.967,11.743 C7.32,13.072 8.567,14 10,14 C11.434,14 12.681,13.072 13.033,11.743 C13.176,11.209 13.725,10.893 14.257,11.034 C14.79,11.175 15.108,11.723 14.967,12.257 C14.382,14.46 12.339,16 10,16 Z" />
</svg>