<svg id="facebook-filled" viewBox="0 0 20 20" xmlns="http://www.w3.org/2000/svg">
	<path d="M13.1133,5.9937 L11.9803,5.9937 C11.0923,5.9937 10.9203,6.4127 10.9203,7.0317 L10.9203,8.3937 L13.0403,8.3937 L12.7643,10.5337 L10.9203,10.5337 L10.9203,15.9997 L8.7263,15.9997 L8.7263,10.5337 L6.8863,10.5337 L6.8863,8.3937 L8.7263,8.3937 L8.7263,6.8197 C8.7263,4.9937 9.8383,3.9997 11.4683,3.9997 C12.0173,3.9987 12.5673,4.0267 13.1133,4.0827 L13.1133,5.9937 Z M10.0003,-0.0003 C4.4863,-0.0003 0.0003,4.4857 0.0003,9.9997 C0.0003,15.5147 4.4863,19.9997 10.0003,19.9997 C15.5133,19.9997 20.0003,15.5147 20.0003,9.9997 C20.0003,4.4857 15.5133,-0.0003 10.0003,-0.0003 Z" />
</svg>