<svg id="face-neutral" viewBox="0 0 20 20" xmlns="http://www.w3.org/2000/svg">
	<path d="M10,2 C5.589,2 2,5.589 2,10 C2,14.411 5.589,18 10,18 C14.411,18 18,14.411 18,10 C18,5.589 14.411,2 10,2 Z M10,20 C4.486,20 0,15.514 0,10 C0,4.486 4.486,0 10,0 C15.514,0 20,4.486 20,10 C20,15.514 15.514,20 10,20 Z M6.5,9 C5.673,9 5,8.327 5,7.5 C5,6.673 5.673,6 6.5,6 C7.327,6 8,6.673 8,7.5 C8,8.327 7.327,9 6.5,9 Z M13.5,9 C12.673,9 12,8.327 12,7.5 C12,6.673 12.673,6 13.5,6 C14.327,6 15,6.673 15,7.5 C15,8.327 14.327,9 13.5,9 Z M14,14 L6,14 C5.447,14 5,13.552 5,13 C5,12.448 5.447,12 6,12 L14,12 C14.553,12 15,12.448 15,13 C15,13.552 14.553,14 14,14 Z" />
</svg>