<svg id="face-angry" viewBox="0 0 20 20" xmlns="http://www.w3.org/2000/svg">
	<path d="M10,11 C12.338,11 14.38,12.539 14.967,14.743 C15.108,15.276 14.791,15.824 14.257,15.966 C14.171,15.989 14.084,16 13.999,16 C13.558,16 13.152,15.705 13.033,15.257 C12.68,13.928 11.433,13 10,13 C8.567,13 7.32,13.928 6.967,15.257 C6.824,15.792 6.269,16.106 5.743,15.966 C5.209,15.824 4.892,15.276 5.033,14.743 C5.62,12.539 7.662,11 10,11 Z M6.5,7 C7.327,7 8,7.673 8,8.5 C8,9.327 7.327,10 6.5,10 C5.673,10 5,9.327 5,8.5 C5,7.673 5.673,7 6.5,7 Z M13.5,7 C14.327,7 15,7.673 15,8.5 C15,9.327 14.327,10 13.5,10 C12.673,10 12,9.327 12,8.5 C12,7.673 12.673,7 13.5,7 Z M5.1078,4.5403 C5.3568,4.0473 5.9578,3.8483 6.4498,4.0983 L6.4498,4.0983 L8.4498,5.1073 C8.9438,5.3563 9.1418,5.9573 8.8928,6.4503 C8.7168,6.7993 8.3638,7.0003 7.9988,7.0003 C7.8478,7.0003 7.6948,6.9663 7.5498,6.8923 L7.5498,6.8923 L5.5498,5.8833 C5.0568,5.6343 4.8588,5.0333 5.1078,4.5403 Z M13.55,4.098 C14.042,3.847 14.644,4.047 14.893,4.54 C15.142,5.033 14.943,5.635 14.45,5.883 L14.45,5.883 L12.45,6.893 C12.306,6.966 12.152,7 12.001,7 C11.636,7 11.283,6.799 11.107,6.451 C10.858,5.958 11.057,5.356 11.55,5.107 L11.55,5.107 Z M10,18 C5.589,18 2,14.411 2,10 C2,5.589 5.589,2 10,2 C14.411,2 18,5.589 18,10 C18,14.411 14.411,18 10,18 M10,0 C4.486,0 0,4.486 0,10 C0,15.514 4.486,20 10,20 C15.514,20 20,15.514 20,10 C20,4.486 15.514,0 10,0" />
</svg>