<svg id="face-sad" viewBox="0 0 20 20" xmlns="http://www.w3.org/2000/svg">
	<path d="M10,2 C5.589,2 2,5.589 2,10 C2,14.411 5.589,18 10,18 C14.411,18 18,14.411 18,10 C18,5.589 14.411,2 10,2 Z M10,20 C4.486,20 0,15.514 0,10 C0,4.486 4.486,0 10,0 C15.514,0 20,4.486 20,10 C20,15.514 15.514,20 10,20 Z M6.5,9 C5.673,9 5,8.327 5,7.5 C5,6.673 5.673,6 6.5,6 C7.327,6 8,6.673 8,7.5 C8,8.327 7.327,9 6.5,9 Z M13.5,9 C12.673,9 12,8.327 12,7.5 C12,6.673 12.673,6 13.5,6 C14.327,6 15,6.673 15,7.5 C15,8.327 14.327,9 13.5,9 Z M13.999,15.0005 C13.557,15.0005 13.152,14.7045 13.033,14.2565 C12.681,12.9275 11.434,12.0005 10,12.0005 C8.567,12.0005 7.32,12.9285 6.967,14.2575 C6.824,14.7915 6.269,15.1055 5.743,14.9665 C5.209,14.8245 4.892,14.2765 5.033,13.7425 C5.62,11.5395 7.662,10.0005 10,10.0005 C12.339,10.0005 14.382,11.5395 14.967,13.7435 C15.108,14.2775 14.79,14.8245 14.257,14.9665 C14.171,14.9895 14.084,15.0005 13.999,15.0005 Z" />
</svg>