<svg id="factory" viewBox="0 0 20 20" xmlns="http://www.w3.org/2000/svg">
	<path d="M6,0 C6.553,0 7,0.448 7,1 L7,1 L7,7.586 L9.293,5.293 C9.579,5.006 10.009,4.922 10.383,5.076 C10.757,5.231 11,5.596 11,6 L11,6 L11,7.586 L13.293,5.293 C13.58,5.006 14.01,4.922 14.383,5.076 C14.757,5.231 15,5.596 15,6 L15,6 L15,7.586 L17.293,5.293 C17.579,5.006 18.01,4.922 18.383,5.076 C18.757,5.231 19,5.596 19,6 L19,6 L19,19 C19,19.552 18.553,20 18,20 L18,20 L2,20 C1.447,20 1,19.552 1,19 L1,19 L1,1 C1,0.448 1.447,0 2,0 L2,0 Z M5,2 L3,2 L3,18 L17,18 L17,8.414 L14.707,10.707 C14.421,10.994 13.991,11.078 13.617,10.924 C13.243,10.769 13,10.404 13,10 L13,10 L13,8.414 L10.707,10.707 C10.421,10.994 9.991,11.078 9.617,10.924 C9.243,10.769 9,10.404 9,10 L9,10 L9,8.414 L6.707,10.707 C6.421,10.994 5.991,11.078 5.617,10.924 C5.243,10.769 5,10.404 5,10 L5,10 L5,2 Z M6,15 C6.552,15 7,15.448 7,16 C7,16.552 6.552,17 6,17 C5.448,17 5,16.552 5,16 C5,15.448 5.448,15 6,15 Z M10,15 C10.552,15 11,15.448 11,16 C11,16.552 10.552,17 10,17 C9.448,17 9,16.552 9,16 C9,15.448 9.448,15 10,15 Z M14,15 C14.552,15 15,15.448 15,16 C15,16.552 14.552,17 14,17 C13.448,17 13,16.552 13,16 C13,15.448 13.448,15 14,15 Z M6,12 C6.552,12 7,12.448 7,13 C7,13.552 6.552,14 6,14 C5.448,14 5,13.552 5,13 C5,12.448 5.448,12 6,12 Z M10,12 C10.552,12 11,12.448 11,13 C11,13.552 10.552,14 10,14 C9.448,14 9,13.552 9,13 C9,12.448 9.448,12 10,12 Z M14,12 C14.552,12 15,12.448 15,13 C15,13.552 14.552,14 14,14 C13.448,14 13,13.552 13,13 C13,12.448 13.448,12 14,12 Z" />
</svg>