<svg id="fax" viewBox="0 0 20 20" xmlns="http://www.w3.org/2000/svg">
	<path d="M18,16 L18,7 L16,7 L8,7 L6,7 L6,16 L18,16 Z M9,5 L15,5 L15,3 L9,3 L9,5 Z M4,16 L4,6 C4,5.449 3.552,5 3,5 C2.448,5 2,5.449 2,6 L2,16 C2,16.551 2.448,17 3,17 C3.552,17 4,16.551 4,16 Z M19,5 C19.553,5 20,5.448 20,6 L20,17 C20,17.552 19.553,18 19,18 L5.22,18 C4.67,18.609 3.883,19 3,19 C1.346,19 0,17.654 0,16 L0,6 C0,4.346 1.346,3 3,3 C4.302,3 5.401,3.838 5.815,5 L7,5 L7,2 C7,1.448 7.447,1 8,1 L16,1 C16.553,1 17,1.448 17,2 L17,5 L19,5 Z M9.5,9 C9.775,9 10,9.225 10,9.5 C10,9.775 9.775,10 9.5,10 L8.5,10 C8.225,10 8,9.775 8,9.5 C8,9.225 8.225,9 8.5,9 L9.5,9 Z M12.5,9 C12.775,9 13,9.225 13,9.5 C13,9.775 12.775,10 12.5,10 L11.5,10 C11.225,10 11,9.775 11,9.5 C11,9.225 11.225,9 11.5,9 L12.5,9 Z M15.5,9 C15.775,9 16,9.225 16,9.5 C16,9.775 15.775,10 15.5,10 L14.5,10 C14.225,10 14,9.775 14,9.5 C14,9.225 14.225,9 14.5,9 L15.5,9 Z M9.5,11 C9.775,11 10,11.225 10,11.5 C10,11.775 9.775,12 9.5,12 L8.5,12 C8.225,12 8,11.775 8,11.5 C8,11.225 8.225,11 8.5,11 L9.5,11 Z M12.5,11 C12.775,11 13,11.225 13,11.5 C13,11.775 12.775,12 12.5,12 L11.5,12 C11.225,12 11,11.775 11,11.5 C11,11.225 11.225,11 11.5,11 L12.5,11 Z M15.5,11 C15.775,11 16,11.225 16,11.5 C16,11.775 15.775,12 15.5,12 L14.5,12 C14.225,12 14,11.775 14,11.5 C14,11.225 14.225,11 14.5,11 L15.5,11 Z M9.5,13 C9.775,13 10,13.225 10,13.5 C10,13.775 9.775,14 9.5,14 L8.5,14 C8.225,14 8,13.775 8,13.5 C8,13.225 8.225,13 8.5,13 L9.5,13 Z M12.5,13 C12.775,13 13,13.225 13,13.5 C13,13.775 12.775,14 12.5,14 L11.5,14 C11.225,14 11,13.775 11,13.5 C11,13.225 11.225,13 11.5,13 L12.5,13 Z M15.5,13 C15.775,13 16,13.225 16,13.5 C16,13.775 15.775,14 15.5,14 L14.5,14 C14.225,14 14,13.775 14,13.5 C14,13.225 14.225,13 14.5,13 L15.5,13 Z" />
</svg>