<svg id="feedback" viewBox="0 0 20 20" xmlns="http://www.w3.org/2000/svg">
	<path d="M19,1 C19.553,1 20,1.447 20,2 L20,15.108 C20,15.66 19.553,16.108 19,16.108 L10.344,16.108 L5.614,19.789 C5.436,19.928 5.219,20 5,20 C4.851,20 4.7,19.966 4.561,19.898 C4.218,19.73 4,19.381 4,19 L4,16.108 L2,16.108 C1.447,16.108 1,15.66 1,15.108 L1,2 C1,1.447 1.447,1 2,1 L19,1 Z M18,3 L3,3 L3,14.108 L5,14.108 C5.553,14.108 6,14.556 6,15.108 L6,16.954 L9.386,14.319 C9.562,14.182 9.777,14.108 10,14.108 L18,14.108 L18,3 Z M10.1098,5.5713 C10.2328,5.1773 10.7678,5.1773 10.8908,5.5713 L10.8908,5.5713 L11.3758,7.1343 C11.4308,7.3103 11.5888,7.4303 11.7668,7.4303 L11.7668,7.4303 L13.3398,7.4303 C13.7358,7.4303 13.9018,7.9613 13.5808,8.2053 L13.5808,8.2053 L12.3068,9.1713 C12.1638,9.2803 12.1038,9.4733 12.1588,9.6493 L12.1588,9.6493 L12.6448,11.2133 C12.7678,11.6073 12.3348,11.9353 12.0138,11.6913 L12.0138,11.6913 L10.7408,10.7253 C10.5978,10.6173 10.4018,10.6173 10.2588,10.7253 L10.2588,10.7253 L8.9858,11.6913 C8.6648,11.9353 8.2328,11.6073 8.3558,11.2133 L8.3558,11.2133 L8.8408,9.6503 C8.8968,9.4733 8.8358,9.2803 8.6928,9.1713 L8.6928,9.1713 L7.4188,8.2053 C7.0988,7.9613 7.2638,7.4303 7.6598,7.4303 L7.6598,7.4303 L9.2338,7.4303 C9.4108,7.4303 9.5688,7.3103 9.6238,7.1343 L9.6238,7.1343 Z" />
</svg>