<svg id="filter" viewBox="0 0 20 20" xmlns="http://www.w3.org/2000/svg">
	<path d="M6.1006,5.246 C6.3356,5.227 6.5366,5.128 6.7136,5 C7.0586,4.753 7.2826,4.352 7.2466,3.899 C7.2146,3.52 7.0096,3.207 6.7246,3 C6.4926,2.831 6.2076,2.729 5.8996,2.754 C5.6646,2.773 5.4646,2.872 5.2866,3 C4.9416,3.247 4.7176,3.647 4.7536,4.101 C4.7856,4.48 4.9906,4.793 5.2756,5 C5.5076,5.169 5.7916,5.271 6.1006,5.246 Z M17.8886,3 C18.5026,3 18.9996,3.448 18.9996,4 C18.9996,4.552 18.5026,5 17.8886,5 L8.8166,5 C8.4036,6.163 7.3046,7 5.9996,7 C4.6956,7 3.5966,6.163 3.1836,5 L2.1116,5 C1.4966,5 0.9996,4.552 0.9996,4 C0.9996,3.448 1.4966,3 2.1116,3 L3.1836,3 C3.5966,1.837 4.6956,1 5.9996,1 C7.3046,1 8.4036,1.837 8.8166,3 L17.8886,3 Z M14,11.2494 C14.271,11.2494 14.507,11.1454 14.711,10.9994 C15.029,10.7734 15.25,10.4194 15.25,9.9994 C15.25,9.5804 15.029,9.2264 14.712,8.9994 C14.508,8.8534 14.271,8.7494 14,8.7494 C13.729,8.7494 13.492,8.8534 13.288,8.9994 C12.971,9.2264 12.75,9.5804 12.75,9.9994 C12.75,10.4194 12.971,10.7734 13.289,10.9994 C13.493,11.1454 13.729,11.2494 14,11.2494 Z M17.889,8.9994 C18.503,8.9994 19,9.4474 19,9.9994 C19,10.5524 18.503,10.9994 17.889,10.9994 L16.813,10.9994 C16.457,11.9984 15.594,12.7824 14.473,12.9614 C13.021,13.1934 11.65,12.3384 11.178,10.9994 L2.111,10.9994 C1.497,10.9994 1,10.5524 1,9.9994 C1,9.4474 1.497,8.9994 2.111,8.9994 L11.187,8.9994 C11.543,8.0004 12.406,7.2164 13.527,7.0374 C14.979,6.8054 16.35,7.6604 16.822,8.9994 L17.889,8.9994 Z M8,17.2499 C8.271,17.2499 8.507,17.1459 8.712,16.9999 C9.029,16.7729 9.25,16.4199 9.25,15.9999 C9.25,15.5799 9.029,15.2269 8.712,14.9999 C8.507,14.8539 8.271,14.7499 8,14.7499 C7.729,14.7499 7.493,14.8539 7.288,14.9999 C6.971,15.2269 6.75,15.5799 6.75,15.9999 C6.75,16.4199 6.971,16.7729 7.288,16.9999 C7.493,17.1459 7.729,17.2499 8,17.2499 Z M17.889,14.9999 C18.503,14.9999 19,15.4479 19,15.9999 C19,16.5519 18.503,16.9999 17.889,16.9999 L10.816,16.9999 C10.403,18.1629 9.305,18.9999 8,18.9999 C6.695,18.9999 5.597,18.1629 5.184,16.9999 L2.111,16.9999 C1.497,16.9999 1,16.5519 1,15.9999 C1,15.4479 1.497,14.9999 2.111,14.9999 L5.184,14.9999 C5.597,13.8369 6.695,12.9999 8,12.9999 C9.305,12.9999 10.403,13.8369 10.816,14.9999 L17.889,14.9999 Z" />
</svg>