<svg id="fingerprint" viewBox="0 0 20 20" xmlns="http://www.w3.org/2000/svg">
	<path d="M7.1226,19.528 C6.8566,19.528 6.5916,19.423 6.3936,19.213 C4.2056,16.886 3.0006,13.845 3.0006,10.65 L3.0006,10.15 C3.0006,6.29 6.1416,3.15 10.0006,3.15 C13.8596,3.15 17.0006,6.29 17.0006,10.15 C17.0006,10.702 16.5536,11.15 16.0006,11.15 C15.4476,11.15 15.0006,10.702 15.0006,10.15 C15.0006,7.393 12.7576,5.15 10.0006,5.15 C7.2436,5.15 5.0006,7.393 5.0006,10.15 L5.0006,10.65 C5.0006,13.334 6.0136,15.888 7.8516,17.843 C8.2286,18.245 8.2096,18.878 7.8086,19.257 C7.6146,19.438 7.3686,19.528 7.1226,19.528 Z M13.645,19.839 C13.558,19.839 13.47,19.827 13.383,19.804 C9.037,18.628 6,14.658 6,10.15 C6,7.944 7.794,6.15 10,6.15 C12.207,6.15 14,7.944 14,10.15 C14,11.253 14.898,12.15 16,12.15 C17.103,12.15 18,11.253 18,10.15 C18,5.739 14.412,2.15 10,2.15 C5.589,2.15 2,5.739 2,10.15 L2,10.65 C2,12.5 2.368,14.294 3.093,15.981 C3.311,16.488 3.077,17.076 2.569,17.295 C2.062,17.511 1.474,17.277 1.255,16.771 C0.422,14.832 0,12.773 0,10.65 L0,10.15 C0,4.636 4.487,0.15 10,0.15 C15.514,0.15 20,4.636 20,10.15 C20,12.356 18.207,14.15 16,14.15 C13.794,14.15 12,12.356 12,10.15 C12,9.047 11.103,8.15 10,8.15 C8.898,8.15 8,9.047 8,10.15 C8,13.757 10.428,16.933 13.905,17.873 C14.438,18.017 14.753,18.567 14.609,19.1 C14.489,19.546 14.085,19.839 13.645,19.839 Z M16.0005,17.15 C12.1415,17.15 9.0005,14.01 9.0005,10.15 C9.0005,9.598 9.4475,9.15 10.0005,9.15 C10.5535,9.15 11.0005,9.598 11.0005,10.15 C11.0005,12.907 13.2435,15.15 16.0005,15.15 C16.5705,15.15 17.1295,15.055 17.6605,14.868 C18.1855,14.686 18.7535,14.959 18.9365,15.48 C19.1195,16.001 18.8455,16.571 18.3245,16.755 C17.5795,17.017 16.7975,17.15 16.0005,17.15 Z" />
</svg>