<svg id="flag" viewBox="0 0 20 20" xmlns="http://www.w3.org/2000/svg">
	<path d="M10.4141,12 L16.0001,12 L16.0001,4 L12.0001,4 C11.7341,4 11.4801,3.895 11.2931,3.707 L9.5861,2 L4.0001,2 L4.0001,10 L8.0001,10 C8.2661,10 8.5191,10.105 8.7071,10.293 L10.4141,12 Z M3.0001,20 C2.4471,20 2.0001,19.552 2.0001,19 L2.0001,1 C2.0001,0.448 2.4471,0 3.0001,0 L10.0001,0 C10.2661,0 10.5191,0.105 10.7071,0.293 L12.4141,2 L17.0001,2 C17.5531,2 18.0001,2.448 18.0001,3 L18.0001,13 C18.0001,13.552 17.5531,14 17.0001,14 L10.0001,14 C9.7341,14 9.4801,13.895 9.2931,13.707 L7.5861,12 L4.0001,12 L4.0001,19 C4.0001,19.552 3.5531,20 3.0001,20 Z" />
</svg>