<svg id="globe" viewBox="0 0 20 20" xmlns="http://www.w3.org/2000/svg">
	<path d="M12.5527,17.5747 C13.0057,16.5747 13.3417,15.3147 13.5597,13.9317 C14.6057,13.9797 15.6817,14.0567 16.8227,14.1567 C15.8507,15.7447 14.3457,16.9687 12.5527,17.5747 M3.1787,14.1577 C4.2117,14.0717 5.3077,13.9997 6.4337,13.9497 C6.6427,15.3107 6.9667,16.5627 7.4127,17.5627 C5.6367,16.9527 4.1447,15.7357 3.1787,14.1577 M7.4127,2.4377 C6.9547,3.4637 6.6247,4.7557 6.4167,6.1577 C5.3067,6.0657 4.2317,5.9317 3.2217,5.7717 C4.1877,4.2277 5.6617,3.0377 7.4127,2.4377 M16.7837,5.7807 C15.8447,5.9357 14.7837,6.0807 13.5777,6.1827 C13.3617,4.7547 13.0187,3.4537 12.5527,2.4257 C14.3227,3.0237 15.8117,4.2227 16.7837,5.7807 M9.9997,1.9997 C10.1017,1.9997 10.2007,2.0117 10.3017,2.0147 C10.7997,2.4627 11.4907,3.9007 11.8667,6.2897 C11.2767,6.3137 10.6617,6.3287 10.0067,6.3257 C9.3937,6.3217 8.7657,6.3037 8.1357,6.2737 C8.5137,3.8947 9.2007,2.4617 9.6987,2.0147 C9.7987,2.0117 9.8987,1.9997 9.9997,1.9997 M2.3077,12.1727 C2.1127,11.4807 1.9997,10.7537 1.9997,9.9997 C1.9997,9.1867 2.1237,8.4027 2.3507,7.6617 C3.5417,7.8707 4.8577,8.0337 6.2027,8.1477 C6.1617,8.7627 6.1407,9.3847 6.1407,9.9997 C6.1407,10.6267 6.1627,11.2597 6.2057,11.8877 C4.8827,11.9477 3.5837,12.0337 2.4047,12.1437 C2.3687,12.1467 2.3417,12.1657 2.3077,12.1727 M9.9957,11.7907 C9.3187,11.7937 8.6217,11.8057 7.9217,11.8247 C7.8817,11.2537 7.8597,10.6467 7.8597,9.9997 C7.8597,9.3857 7.8807,8.8087 7.9167,8.2627 C8.6167,8.2987 9.3137,8.3217 9.9927,8.3257 C10.0927,8.3257 10.1907,8.3267 10.2877,8.3267 C10.9207,8.3267 11.5137,8.3097 12.0837,8.2857 C12.1187,8.8247 12.1407,9.3937 12.1407,9.9997 C12.1407,10.6427 12.1177,11.2447 12.0787,11.8127 C11.3917,11.7967 10.7007,11.7877 9.9957,11.7907 M9.9997,17.9997 C9.8987,17.9997 9.7987,17.9887 9.6987,17.9847 C9.2127,17.5487 8.5457,16.1697 8.1627,13.8887 C8.7837,13.8727 9.4017,13.8637 10.0037,13.8617 C10.6317,13.8587 11.2397,13.8627 11.8397,13.8747 C11.4567,16.1637 10.7877,17.5477 10.3017,17.9847 C10.2007,17.9887 10.1017,17.9997 9.9997,17.9997 M17.5957,12.1437 C16.2597,12.0197 15.0167,11.9297 13.7937,11.8717 C13.8367,11.2537 13.8597,10.6267 13.8597,9.9997 C13.8597,9.3897 13.8387,8.7787 13.7977,8.1767 C15.2797,8.0487 16.5457,7.8557 17.6497,7.6627 C17.8757,8.4027 17.9997,9.1867 17.9997,9.9997 C17.9997,10.7537 17.8877,11.4807 17.6927,12.1727 C17.6577,12.1657 17.6307,12.1467 17.5957,12.1437 M9.9997,-0.0003 C4.4867,-0.0003 -0.0003,4.4857 -0.0003,9.9997 C-0.0003,15.5137 4.4867,19.9997 9.9997,19.9997 C15.5137,19.9997 19.9997,15.5137 19.9997,9.9997 C19.9997,4.4857 15.5137,-0.0003 9.9997,-0.0003" />
</svg>