<svg id="google-filled" viewBox="0 0 20 20" xmlns="http://www.w3.org/2000/svg">
	<path d="M9.998,15.5576 C6.93,15.5576 4.439,13.0676 4.439,9.9996 C4.439,6.9326 6.93,4.4426 9.998,4.4426 C11.498,4.4426 12.755,4.9926 13.716,5.8926 L12.138,7.4266 C11.737,7.0486 11.037,6.6036 9.998,6.6036 C8.158,6.6036 6.657,8.1326 6.657,10.0056 C6.657,11.8786 8.158,13.4066 9.998,13.4066 C12.127,13.4066 12.91,11.9336 13.055,11.0616 L9.992,11.0616 L9.992,11.0566 L9.992,8.9886 L15.194,8.9886 C15.272,9.3386 15.333,9.6666 15.333,10.1276 C15.333,13.3016 13.205,15.5576 9.998,15.5576 M10,-0.0004 C4.486,-0.0004 0,4.4856 0,9.9996 C0,15.5146 4.486,19.9996 10,19.9996 C15.514,19.9996 20,15.5146 20,9.9996 C20,4.4856 15.514,-0.0004 10,-0.0004" />
</svg>