<svg id="gps" viewBox="0 0 20 20" xmlns="http://www.w3.org/2000/svg">
	<path d="M5.2218,9.1037 L9.2778,9.7757 C9.6758,9.8417 9.9948,10.1407 10.0878,10.5337 L11.0278,14.5347 L15.3678,4.0787 L5.2218,9.1037 Z M10.7628,18.7817 C10.7368,18.7817 10.7088,18.7807 10.6818,18.7787 C10.2488,18.7437 9.8888,18.4337 9.7888,18.0107 L8.2928,11.6397 L1.8368,10.5697 C1.4088,10.4997 1.0758,10.1607 1.0108,9.7307 C0.9478,9.3017 1.1668,8.8797 1.5558,8.6877 L16.8678,1.1037 C17.2428,0.9197 17.6918,0.9837 17.9958,1.2687 C18.2998,1.5537 18.3958,1.9977 18.2368,2.3827 L11.6868,18.1657 C11.5308,18.5407 11.1638,18.7817 10.7628,18.7817 L10.7628,18.7817 Z" />
</svg>