<svg id="headset" viewBox="0 0 20 20" xmlns="http://www.w3.org/2000/svg">
	<path d="M18,7 C19.103,7 20,7.897 20,9 L20,13 C20,14.103 19.103,15 18,15 L14,15 L14,7 L15.91,7 C15.432,4.167 12.967,2 10,2 C7.033,2 4.568,4.167 4.09,7 L6,7 L6,15 L4.185,15 C4.599,16.162 5.698,17 7,17 C7,16.45 7.45,16 8,16 L12,16 C12.55,16 13,16.45 13,17 L13,19 C13,19.55 12.55,20 12,20 L8,20 C7.45,20 7,19.55 7,19 C4.586,19 2.565,17.279 2.102,15 L2,15 C0.897,15 0,14.103 0,13 L0,9 C0,7.897 0.897,7 2,7 L2.069,7 C2.564,3.06 5.928,0 10,0 C14.072,0 17.436,3.06 17.931,7 L18,7 Z M16,13 L18,13 L18,9 L16,9 L16,13 Z M2,13 L4,13 L4,9 L2,9 L2,13 Z" />
</svg>