<svg id="heart-filled" viewBox="0 0 20 20" xmlns="http://www.w3.org/2000/svg">
	<path d="M10.0745 19.0008C10.0365 19.0008 9.99846 18.9998 9.96046 18.9988C9.44946 18.9688 8.90946 18.8778 8.42046 18.6458C8.02446 18.4578 7.77146 18.2568 7.56746 18.0958L7.41746 17.9788C6.96946 17.6108 6.65946 17.2988 6.35946 16.9978L6.10746 16.7458C5.35746 15.9878 4.63446 15.2138 3.88746 14.3738C3.01346 13.3828 2.36746 12.5928 1.79246 11.8088C1.47546 11.3638 1.12546 10.8718 0.806459 10.2898C0.659459 10.0428 0.507459 9.7178 0.355459 9.3248C0.197459 8.8958 0.124459 8.5228 0.0734593 8.2128C-0.150541 6.7088 0.142459 5.1938 0.899459 3.9328C1.69446 2.5868 2.99746 1.5868 4.46946 1.1958C5.98546 0.775802 7.69046 1.0398 9.01746 1.8998C9.37146 2.1248 9.70046 2.3858 10.0005 2.6808C10.2985 2.3878 10.6225 2.1298 10.9725 1.9048C12.2905 1.0438 13.9935 0.776802 15.5215 1.1938C16.9855 1.5768 18.2925 2.5748 19.0955 3.9268C19.8525 5.1828 20.1495 6.6978 19.9285 8.1898C19.8555 8.6308 19.7715 8.9668 19.6535 9.2948C19.4845 9.7298 19.3375 10.0468 19.1805 10.3118C18.8765 10.8698 18.5115 11.3818 18.2185 11.7938C17.6335 12.5918 16.9875 13.3828 16.1165 14.3678C15.3935 15.1848 14.6485 15.9808 13.9015 16.7368L13.6265 17.0128C13.3315 17.3118 13.0255 17.6198 12.6055 17.9578C12.0855 18.4478 11.1165 19.0008 10.0745 19.0008Z" />
</svg>