<svg id="help" viewBox="0 0 20 20" xmlns="http://www.w3.org/2000/svg">
	<path d="M11.1191,15.1191 C11.1191,15.7371 10.6181,16.2381 10.0001,16.2381 C9.3821,16.2381 8.8811,15.7371 8.8811,15.1191 C8.8811,14.5011 9.3821,14.0001 10.0001,14.0001 C10.6181,14.0001 11.1191,14.5011 11.1191,15.1191 M13.2611,6.5741 C13.5861,7.9931 12.9781,9.4531 11.7491,10.2061 C11.2871,10.4901 11.0001,11.0151 11.0001,11.5761 L11.0001,12.0001 C11.0001,12.5521 10.5531,13.0001 10.0001,13.0001 C9.4471,13.0001 9.0001,12.5521 9.0001,12.0001 L9.0001,11.5761 C9.0001,10.3251 9.6521,9.1471 10.7031,8.5021 C11.2081,8.1921 11.4461,7.6101 11.3111,7.0191 C11.2021,6.5411 10.8081,6.1471 10.3311,6.0381 C9.9061,5.9391 9.4881,6.0311 9.1601,6.2931 C8.8361,6.5511 8.6501,6.9361 8.6501,7.3491 C8.6501,7.9021 8.2031,8.3491 7.6501,8.3491 C7.0981,8.3491 6.6501,7.9021 6.6501,7.3491 C6.6501,6.3241 7.1101,5.3691 7.9131,4.7291 C8.7161,4.0901 9.7621,3.8571 10.7761,4.0881 C12.0061,4.3691 12.9811,5.3451 13.2611,6.5741 M10.0001,18.0001 C5.5891,18.0001 2.0001,14.4111 2.0001,10.0001 C2.0001,5.5891 5.5891,2.0001 10.0001,2.0001 C14.4111,2.0001 18.0001,5.5891 18.0001,10.0001 C18.0001,14.4111 14.4111,18.0001 10.0001,18.0001 M10.0001,0.0001 C4.4771,0.0001 0.0001,4.4761 0.0001,10.0001 C0.0001,15.5231 4.4771,20.0001 10.0001,20.0001 C15.5231,20.0001 20.0001,15.5231 20.0001,10.0001 C20.0001,4.4761 15.5231,0.0001 10.0001,0.0001" />
</svg>