<svg id="history" viewBox="0 0 20 20" xmlns="http://www.w3.org/2000/svg">
	<path d="M5.2782,3.0512 C7.3612,1.3332 10.0992,0.6482 12.7942,1.1722 C16.3142,1.8552 19.1392,4.6802 19.8252,8.2002 C20.3492,10.8942 19.6652,13.6352 17.9482,15.7182 C16.2302,17.8022 13.6972,18.9972 11.0002,18.9972 C10.4472,18.9972 10.0002,18.5502 10.0002,17.9972 C10.0002,17.4452 10.4472,16.9972 11.0002,16.9972 C13.0982,16.9972 15.0682,16.0672 16.4042,14.4462 C17.7402,12.8252 18.2712,10.6882 17.8622,8.5822 C17.3312,5.8542 15.1402,3.6652 12.4132,3.1352 C10.3072,2.7262 8.1702,3.2582 6.5512,4.5942 C4.9292,5.9302 4.0002,7.9002 4.0002,9.9972 L4.0002,9.9972 L4.0002,10.5832 L4.2932,10.2902 C4.6832,9.9002 5.3162,9.9002 5.7072,10.2902 C6.0972,10.6812 6.0972,11.3142 5.7072,11.7042 L5.7072,11.7042 L3.7072,13.7042 C3.5122,13.9002 3.2562,13.9972 3.0002,13.9972 C2.7442,13.9972 2.4882,13.9002 2.2932,13.7042 L2.2932,13.7042 L0.2932,11.7042 C-0.0978,11.3142 -0.0978,10.6812 0.2932,10.2902 C0.6832,9.9002 1.3162,9.9002 1.7072,10.2902 L1.7072,10.2902 L2.0002,10.5832 L2.0002,9.9972 C2.0002,7.3002 3.1942,4.7682 5.2782,3.0512 Z M11,4.4976 C11.553,4.4976 12,4.9456 12,5.4976 L12,5.4976 L12,10.0836 L13.707,11.7906 C14.098,12.1816 14.098,12.8136 13.707,13.2046 C13.512,13.3996 13.256,13.4976 13,13.4976 C12.744,13.4976 12.488,13.3996 12.293,13.2046 L12.293,13.2046 L10,10.9116 L10,5.4976 C10,4.9456 10.447,4.4976 11,4.4976 Z" />
</svg>