<svg id="home" viewBox="0 0 20 20" xmlns="http://www.w3.org/2000/svg">
	<path d="M13,18 L17,18 L17,9.414 L10,2.414 L3,9.414 L3,18 L7,18 L7,13 C7,12.448 7.447,12 8,12 L12,12 C12.553,12 13,12.448 13,13 L13,18 Z M18,20 L12,20 C11.447,20 11,19.552 11,19 L11,14 L9,14 L9,19 C9,19.552 8.553,20 8,20 L2,20 C1.447,20 1,19.552 1,19 L1,9 C1,8.735 1.105,8.48 1.293,8.293 L9.293,0.293 C9.684,-0.098 10.316,-0.098 10.707,0.293 L18.707,8.293 C18.895,8.48 19,8.735 19,9 L19,19 C19,19.552 18.553,20 18,20 Z" />
</svg>