<svg id="hourglass" viewBox="0 0 20 20" xmlns="http://www.w3.org/2000/svg">
	<path d="M15.2498,0 C15.8028,0 16.2498,0.448 16.2498,1 C16.2498,1.231 16.2088,6.365 12.9138,10 C16.2088,13.635 16.2498,18.769 16.2498,19 C16.2498,19.552 15.8028,20 15.2498,20 L15.2498,20 L3.9998,20 C3.4468,20 2.9998,19.552 2.9998,19 C2.9998,18.769 3.0408,13.635 6.3358,10 C3.17001569,6.50754902 3.00801992,1.6313614 3.00018293,1.04941091 L2.9998,1 C2.9998,0.448 3.4468,0 3.9998,0 L3.9998,0 Z M14.1758,2 L5.0738,2 C5.2668,3.666 5.9548,7.04 8.4188,9.257 C8.6298,9.446 8.7498,9.716 8.7498,10 C8.7498,10.284 8.6298,10.554 8.4188,10.743 C5.9548,12.96 5.2668,16.334 5.0738,18 L5.0738,18 L6.6958,18 C6.6958,18 6.6958,16.778 8.6488,14.93 C9.6248,14.112 10.6018,14.93 10.6018,14.93 C12.5548,16.778 12.5548,18 12.5548,18 L12.5548,18 L14.1758,18 C13.9838,16.334 13.2948,12.96 10.8308,10.743 C10.6198,10.554 10.4998,10.284 10.4998,10 C10.4998,9.716 10.6198,9.446 10.8308,9.257 C13.2948,7.04 13.9838,3.666 14.1758,2 L14.1758,2 Z M12.176,5 C12.176,5 12.176,6.212 10.476,8.045 C9.625,8.856 8.774,8.045 8.774,8.045 C7.19124138,6.33841379 7.08208561,5.17012604 7.07455763,5.01709984 L7.074,5 Z" />
</svg>