<svg id="image" viewBox="0 0 20 20" xmlns="http://www.w3.org/2000/svg">
	<path d="M7.457,6 C6.905,6 6.457,6.449 6.457,7 C6.457,7.551 6.905,8 7.457,8 C8.009,8 8.457,7.551 8.457,7 C8.457,6.449 8.009,6 7.457,6 Z M7.457,10 C5.803,10 4.457,8.654 4.457,7 C4.457,5.346 5.803,4 7.457,4 C9.111,4 10.457,5.346 10.457,7 C10.457,8.654 9.111,10 7.457,10 Z M18,10.5859 L18,1.9999 L2,1.9999 L2,12.5859 L3.293,11.2929 C3.684,10.9019 4.316,10.9019 4.707,11.2929 L7.016,13.6009 L13.291,7.2939 C13.479,7.1069 13.733,7.0009 13.999,6.9999 L14,6.9999 C14.266,6.9999 14.52,7.1059 14.707,7.2929 L18,10.5859 Z M18,17.9999 L18,13.4139 L14.002,9.4159 L7.743,15.7059 C7.548,15.9019 7.291,15.9999 7.034,15.9999 C7.028,15.9999 7.023,15.9969 7.018,15.9969 C7.012,15.9969 7.006,15.9999 7,15.9999 C6.744,15.9999 6.488,15.9019 6.293,15.7069 L4,13.4139 L2,15.4139 L2,17.9999 L18,17.9999 Z M19,-0.0001 C19.553,-0.0001 20,0.4479 20,0.9999 L20,18.9999 C20,19.5519 19.553,19.9999 19,19.9999 L1,19.9999 C0.447,19.9999 0,19.5519 0,18.9999 L0,0.9999 C0,0.4479 0.447,-0.0001 1,-0.0001 L19,-0.0001 Z" />
</svg>