<svg id="info" viewBox="0 0 20 20" xmlns="http://www.w3.org/2000/svg">
	<path d="M10,2 C5.589,2 2,5.589 2,10 C2,14.411 5.589,18 10,18 C14.411,18 18,14.411 18,10 C18,5.589 14.411,2 10,2 Z M10,20 C4.486,20 0,15.514 0,10 C0,4.486 4.486,0 10,0 C15.514,0 20,4.486 20,10 C20,15.514 15.514,20 10,20 Z M10.7812,4.7202 C10.8812,4.8202 10.9612,4.9402 11.0192,5.0802 C11.0692,5.2102 11.1002,5.3602 11.1002,5.5002 C11.1002,5.6502 11.0692,5.7902 11.0192,5.9202 C10.9612,6.0602 10.8812,6.1802 10.7812,6.2802 C10.5692,6.4902 10.2902,6.6002 10.0012,6.6002 C9.8502,6.6002 9.7112,6.5702 9.5812,6.5202 C9.4402,6.4602 9.3192,6.3802 9.2192,6.2802 C9.1202,6.1802 9.0402,6.0502 8.9782,5.9202 C8.9292,5.7902 8.8992,5.6502 8.8992,5.5002 C8.8992,5.3602 8.9292,5.2102 8.9782,5.0802 C9.0102,5.0102 9.0402,4.9502 9.0812,4.8902 C9.1202,4.8302 9.1702,4.7702 9.2192,4.7202 C9.4782,4.4702 9.8602,4.3502 10.2112,4.4202 C10.2812,4.4402 10.3502,4.4602 10.4202,4.4802 C10.4902,4.5102 10.5512,4.5502 10.6102,4.5902 C10.6702,4.6302 10.7282,4.6702 10.7812,4.7202 Z M10,15.5029 C9.447,15.5029 9,15.0549 9,14.5029 L9,9.5029 C9,8.9509 9.447,8.5029 10,8.5029 C10.553,8.5029 11,8.9509 11,9.5029 L11,14.5029 C11,15.0549 10.553,15.5029 10,15.5029 Z" />
</svg>