<svg id="instagram-filled" viewBox="0 0 20 20" xmlns="http://www.w3.org/2000/svg">
	<path d="M12.6689,7.9312 C12.9999,7.9312 13.2689,7.6622 13.2689,7.3312 C13.2689,6.9992 12.9999,6.7312 12.6689,6.7312 C12.3379,6.7312 12.0689,6.9992 12.0689,7.3312 C12.0689,7.6622 12.3379,7.9312 12.6689,7.9312 Z M9.9999,12.5672 C11.4179,12.5672 12.5669,11.4182 12.5669,10.0002 C12.5669,8.5822 11.4179,7.4322 9.9999,7.4322 C8.5819,7.4322 7.4329,8.5822 7.4329,10.0002 C7.4329,11.4182 8.5819,12.5672 9.9999,12.5672 Z M13.8979,7.0512 C13.9659,7.2272 14.0479,7.4922 14.0699,7.9792 C14.0939,8.5072 14.0989,8.6652 14.0989,10.0002 C14.0989,11.3352 14.0939,11.4932 14.0699,12.0202 C14.0479,12.5082 13.9659,12.7722 13.8979,12.9492 C13.8069,13.1822 13.6979,13.3482 13.5229,13.5242 C13.3489,13.6992 13.1829,13.8072 12.9489,13.8982 C12.7729,13.9662 12.5079,14.0482 12.0209,14.0702 C11.4929,14.0942 11.3349,14.0992 9.9999,14.0992 C8.6649,14.0992 8.5069,14.0942 7.9799,14.0702 C7.4919,14.0482 7.2279,13.9662 7.0509,13.8982 C6.8169,13.8072 6.6509,13.6992 6.4769,13.5242 C6.3019,13.3482 6.1929,13.1822 6.1029,12.9492 C6.0339,12.7722 5.9519,12.5082 5.9299,12.0202 C5.9059,11.4932 5.9009,11.3352 5.9009,10.0002 C5.9009,8.6652 5.9059,8.5072 5.9299,7.9792 C5.9519,7.4922 6.0339,7.2272 6.1029,7.0512 C6.1929,6.8182 6.3019,6.6512 6.4769,6.4762 C6.6509,6.3012 6.8169,6.1932 7.0509,6.1022 C7.2279,6.0342 7.4919,5.9522 7.9799,5.9302 C8.5069,5.9062 8.6649,5.9012 9.9999,5.9012 C11.3349,5.9012 11.4929,5.9062 12.0209,5.9302 C12.5079,5.9522 12.7729,6.0342 12.9489,6.1022 C13.1829,6.1932 13.3489,6.3012 13.5229,6.4762 C13.6979,6.6512 13.8069,6.8182 13.8979,7.0512 Z M14.9697,12.0615 C14.9937,11.5285 14.9997,11.3575 14.9997,9.9995 C14.9997,8.6425 14.9937,8.4715 14.9697,7.9385 C14.9457,7.4065 14.8617,7.0425 14.7377,6.7245 C14.6097,6.3955 14.4387,6.1175 14.1607,5.8395 C13.8827,5.5615 13.6037,5.3905 13.2757,5.2625 C12.9567,5.1385 12.5937,5.0545 12.0617,5.0305 C11.5287,5.0055 11.3577,4.9995 9.9997,4.9995 C8.6427,4.9995 8.4717,5.0055 7.9387,5.0305 C7.4067,5.0545 7.0427,5.1385 6.7247,5.2625 C6.3967,5.3905 6.1167,5.5615 5.8387,5.8395 C5.5617,6.1175 5.3907,6.3955 5.2627,6.7245 C5.1387,7.0425 5.0547,7.4065 5.0307,7.9385 C5.0057,8.4715 4.9997,8.6425 4.9997,9.9995 C4.9997,11.3575 5.0057,11.5285 5.0307,12.0615 C5.0547,12.5935 5.1387,12.9575 5.2627,13.2755 C5.3907,13.6035 5.5617,13.8825 5.8387,14.1605 C6.1167,14.4385 6.3967,14.6095 6.7247,14.7375 C7.0427,14.8615 7.4067,14.9455 7.9387,14.9695 C8.4717,14.9945 8.6427,14.9995 9.9997,14.9995 C11.3577,14.9995 11.5287,14.9945 12.0617,14.9695 C12.5937,14.9455 12.9567,14.8615 13.2757,14.7375 C13.6037,14.6095 13.8827,14.4385 14.1607,14.1605 C14.4387,13.8825 14.6097,13.6035 14.7377,13.2755 C14.8617,12.9575 14.9457,12.5935 14.9697,12.0615 Z M9.9997,-0.0005 C15.5137,-0.0005 19.9997,4.4855 19.9997,9.9995 C19.9997,15.5145 15.5137,19.9995 9.9997,19.9995 C4.4867,19.9995 -0.0003,15.5145 -0.0003,9.9995 C-0.0003,4.4855 4.4867,-0.0005 9.9997,-0.0005 Z M10,8.3335 C10.92,8.3335 11.667,9.0795 11.667,10.0005 C11.667,10.9205 10.92,11.6665 10,11.6665 C9.08,11.6665 8.333,10.9205 8.333,10.0005 C8.333,9.0795 9.08,8.3335 10,8.3335 Z" />
</svg>