<svg id="label" viewBox="0 0 20 20" xmlns="http://www.w3.org/2000/svg">
	<path d="M9.4141,6.586 C10.1951,7.367 10.1951,8.633 9.4141,9.414 C8.6331,10.195 7.3671,10.195 6.5861,9.414 C5.8051,8.633 5.8051,7.367 6.5861,6.586 C7.3671,5.805 8.6331,5.805 9.4141,6.586 M4,9.6573 L11.485,17.1423 L17.143,11.4853 L9.657,4.0003 L4,4.0003 L4,9.6573 Z M11.485,19.5563 C11.229,19.5563 10.974,19.4583 10.778,19.2633 L2.293,10.7783 C2.105,10.5913 2,10.3363 2,10.0713 L2,3.0003 C2,2.4483 2.447,2.0003 3,2.0003 L10.071,2.0003 C10.337,2.0003 10.591,2.1053 10.778,2.2933 L19.264,10.7783 C19.451,10.9663 19.557,11.2203 19.557,11.4853 C19.557,11.7503 19.451,12.0053 19.264,12.1923 L12.192,19.2633 C11.997,19.4583 11.741,19.5563 11.485,19.5563 L11.485,19.5563 " />
</svg>