<svg id="link" viewBox="0 0 20 20" xmlns="http://www.w3.org/2000/svg">
	<path d="M12.2717,7.7317 C13.0847,8.5447 13.5327,9.6277 13.5327,10.7827 C13.5327,11.9387 13.0847,13.0227 12.2717,13.8347 L8.3647,17.7417 C7.5237,18.5827 6.4177,19.0037 5.3137,19.0037 C4.2087,19.0037 3.1037,18.5837 2.2617,17.7427 C0.5797,16.0597 0.5797,13.3217 2.2617,11.6387 L3.8247,10.0767 C4.2147,9.6867 4.8477,9.6867 5.2387,10.0767 C5.6287,10.4677 5.6287,11.1007 5.2387,11.4907 L3.6757,13.0527 C2.7737,13.9557 2.7737,15.4247 3.6757,16.3277 C4.5787,17.2307 6.0477,17.2307 6.9507,16.3277 L10.8577,12.4207 C11.2927,11.9857 11.5327,11.4037 11.5327,10.7827 C11.5327,10.1627 11.2927,9.5807 10.8577,9.1457 C10.4667,8.7557 10.4667,8.1227 10.8577,7.7317 C11.2487,7.3407 11.8807,7.3407 12.2717,7.7317 Z M17.7427,2.2607 C19.4247,3.9437 19.4247,6.6817 17.7427,8.3647 L16.1787,9.9277 C15.7887,10.3177 15.1557,10.3177 14.7647,9.9277 C14.3747,9.5367 14.3747,8.9037 14.7647,8.5137 L16.3287,6.9507 C17.2307,6.0477 17.2307,4.5787 16.3287,3.6757 C15.4257,2.7727 13.9567,2.7727 13.0537,3.6757 L9.1467,7.5827 C8.7117,8.0177 8.4717,8.5997 8.4717,9.2207 C8.4717,9.8407 8.7117,10.4227 9.1467,10.8577 C9.5377,11.2477 9.5377,11.8807 9.1467,12.2717 C8.9517,12.4667 8.6957,12.5647 8.4397,12.5647 C8.1837,12.5647 7.9277,12.4667 7.7327,12.2717 C6.9197,11.4597 6.4717,10.3757 6.4717,9.2207 C6.4717,8.0647 6.9197,6.9817 7.7327,6.1687 L11.6397,2.2617 C13.3227,0.5797 16.0597,0.5797 17.7427,2.2607 Z" />
</svg>