<svg id="linkedin-filled" viewBox="0 0 20 20" xmlns="http://www.w3.org/2000/svg">
	<path d="M10.0003,0 C15.5133,0 20.0003,4.486 20.0003,10 C20.0003,15.514 15.5133,20 10.0003,20 C4.4863,20 0.0003,15.514 0.0003,10 C0.0003,4.486 4.4863,0 10.0003,0 Z M14.4873,14 L14.4873,10.41 C14.4873,8.359 13.4533,7.333 11.9233,7.333 C11.1623,7.333 10.2643,7.734 9.8723,8.615 L9.8723,7.333 L8.3333,7.333 C8.3333,7.333 8.3643,7.64 8.3333,14 L10.3843,14 L10.3843,9.897 C10.3843,9.897 10.6093,9.128 11.4103,9.128 C12.4353,9.128 12.4353,9.897 12.4353,10.41 L12.4353,14 L14.4873,14 Z M6.7853,6.564 C7.5843,6.564 8.0773,5.987 8.0773,5.282 C8.0663,4.555 7.5843,4 6.8053,4 C6.0253,4 5.5123,4.555 5.5123,5.282 C5.5123,5.987 6.0063,6.564 6.7753,6.564 L6.7853,6.564 Z M5.7693,14 L7.8203,14 L7.8203,7.333 L5.7693,7.333 L5.7693,14 Z" />
</svg>