<svg id="lock" viewBox="0 0 20 20" xmlns="http://www.w3.org/2000/svg">
	<path d="M11.5,12.5 C11.5,12.941 11.305,13.335 11,13.61 L11,15 C11,15.552 10.553,16 10,16 C9.447,16 9,15.552 9,15 L9,13.61 C8.695,13.335 8.5,12.941 8.5,12.5 C8.5,11.673 9.173,11 10,11 C10.827,11 11.5,11.673 11.5,12.5 Z M4,18 L16,18 L16,9 L4,9 L4,18 Z M6.999,5.048 L6.999,7 L12.999,7 L12.999,5.048 C12.999,3.368 11.653,2 9.999,2 C8.345,2 6.999,3.368 6.999,5.048 Z M17,7 C17.553,7 18,7.448 18,8 L18,19 C18,19.552 17.553,20 17,20 L3,20 C2.447,20 2,19.552 2,19 L2,8 C2,7.448 2.447,7 3,7 L4.999,7 L4.999,5.048 C4.999,2.265 7.242,0 9.999,0 C12.756,0 14.999,2.265 14.999,5.048 L14.999,7 L17,7 Z" />
</svg>