<svg id="login" viewBox="0 0 20 20" xmlns="http://www.w3.org/2000/svg">
	<path d="M18,19 L2,19 C1.447,19 1,18.552 1,18 L1,15 C1,14.448 1.447,14 2,14 C2.553,14 3,14.448 3,15 L3,17 L17,17 L17,3 L3,3 L3,5 C3,5.552 2.553,6 2,6 C1.447,6 1,5.552 1,5 L1,2 C1,1.448 1.447,1 2,1 L18,1 C18.553,1 19,1.448 19,2 L19,18 C19,18.552 18.553,19 18,19 Z M12.9229,10.3818 C12.8719,10.5048 12.7989,10.6148 12.7059,10.7078 L8.7069,14.7068 C8.5119,14.9028 8.2559,14.9998 7.9999,14.9998 C7.7439,14.9998 7.4879,14.9028 7.2929,14.7068 C6.9019,14.3168 6.9019,13.6838 7.2929,13.2928 L9.5859,10.9998 L1.9999,10.9998 C1.4469,10.9998 0.9999,10.5518 0.9999,9.9998 C0.9999,9.4478 1.4469,8.9998 1.9999,8.9998 L9.5859,8.9998 L7.2929,6.7068 C6.9019,6.3168 6.9019,5.6838 7.2929,5.2928 C7.6839,4.9028 8.3169,4.9028 8.7069,5.2928 L12.7059,9.2928 C12.7989,9.3848 12.8719,9.4948 12.9229,9.6178 C13.0239,9.8618 13.0239,10.1378 12.9229,10.3818 Z" />
</svg>