<svg id="logout" viewBox="0 0 20 20" xmlns="http://www.w3.org/2000/svg">
	<path d="M18,1 C18.553,1 19,1.448 19,2 L19,5 C19,5.552 18.553,6 18,6 C17.447,6 17,5.552 17,5 L17,3 L3,3 L3,17 L17,17 L17,15 C17,14.448 17.447,14 18,14 C18.553,14 19,14.448 19,15 L19,18 C19,18.552 18.553,19 18,19 L2,19 C1.447,19 1,18.552 1,18 L1,2 C1,1.448 1.447,1 2,1 L18,1 Z M13.293,14.707 C12.902,14.316 12.902,13.684 13.293,13.293 L15.586,11 L8,11 C7.447,11 7,10.552 7,10 C7,9.448 7.447,9 8,9 L15.586,9 L13.293,6.707 C12.902,6.316 12.902,5.684 13.293,5.293 C13.684,4.902 14.316,4.902 14.707,5.293 L18.706,9.292 C18.799,9.385 18.872,9.495 18.923,9.618 C19.023,9.862 19.023,10.138 18.923,10.382 C18.872,10.505 18.799,10.615 18.706,10.707 L14.707,14.707 C14.512,14.902 14.256,15 14,15 C13.744,15 13.488,14.902 13.293,14.707 Z" />
</svg>