<svg id="magnet" viewBox="0 0 20 20" xmlns="http://www.w3.org/2000/svg">
	<path d="M11.53175,15.849 C10.58775,16.793 9.33175,17.313 7.99675,17.313 C6.66075,17.313 5.40475,16.793 4.46075,15.849 C2.51075,13.899 2.51075,10.727 4.46075,8.778 L6.58275,6.656 L7.99675,8.071 L5.87575,10.192 C5.30875,10.759 4.99675,11.512 4.99675,12.313 C4.99675,13.115 5.30875,13.868 5.87575,14.434 C7.04575,15.604 8.94775,15.604 10.11775,14.434 L12.23875,12.313 L13.65375,13.727 L11.53175,15.849 Z M10.82475,5.243 L9.41075,6.657 L7.99675,5.242 L9.41075,3.828 L10.82475,5.243 Z M16.48175,10.899 L15.06775,12.313 L13.65375,10.899 L15.06775,9.485 L16.48175,10.899 Z M15.06775,6.657 L8.70375,13.02 C8.31275,13.41 7.67975,13.411 7.28975,13.02 C7.09975,12.831 6.99675,12.58 6.99675,12.313 C6.99675,12.046 7.09975,11.795 7.28975,11.606 L13.65275,5.243 L9.41075,1 L3.04675,7.364 C0.31775,10.093 0.31775,14.534 3.04675,17.263 C4.36875,18.585 6.12675,19.313 7.99675,19.313 C9.86675,19.313 11.62375,18.585 12.94575,17.263 L19.30975,10.899 L15.06775,6.657 Z" />
</svg>