<svg id="marker" viewBox="0 0 20 20" xmlns="http://www.w3.org/2000/svg">
	<path d="M10,6 C8.897,6 8,6.897 8,8 C8,9.103 8.897,10 10,10 C11.103,10 12,9.103 12,8 C12,6.897 11.103,6 10,6 Z M10,12 C7.794,12 6,10.206 6,8 C6,5.794 7.794,4 10,4 C12.206,4 14,5.794 14,8 C14,10.206 12.206,12 10,12 Z M10,2 C6.691,2 4,4.691 4,8 C4,13.296 8.479,16.783 9.999,17.813 C11.518,16.778 16,13.276 16,8 C16,4.691 13.309,2 10,2 Z M10,20 C9.829,20 9.657,19.956 9.504,19.868 C9.197,19.693 2,15.494 2,8 C2,3.589 5.589,0 10,0 C14.411,0 18,3.589 18,8 C18,15.494 10.803,19.693 10.496,19.868 C10.343,19.956 10.171,20 10,20 Z" />
</svg>