<svg id="maternity" viewBox="0 0 20 20" xmlns="http://www.w3.org/2000/svg">
	<path d="M16,18 C14.897,18 14,17.103 14,16 C14,15.907 14.016,15.819 14.027,15.729 C14.161,14.755 14.99,14 16,14 C16.353,14 16.679,14.1 16.967,14.26 C17.579,14.602 18,15.25 18,16 C18,17.103 17.103,18 16,18 Z M12.572,13.971 C12.384,13.989 12.193,14 12,14 C11.807,14 11.616,13.989 11.428,13.971 C10.73,12.797 9.463,12 8,12 C7.855,12 7.719,12.027 7.579,12.042 C6.816,11.209 6.294,10.16 6.096,9 L17.904,9 C17.706,10.16 17.184,11.209 16.421,12.042 C16.281,12.027 16.145,12 16,12 C14.537,12 13.27,12.797 12.572,13.971 Z M8,18 C6.897,18 6,17.103 6,16 C6,15.25 6.421,14.602 7.033,14.26 C7.321,14.1 7.647,14 8,14 C9.01,14 9.839,14.755 9.973,15.729 C9.984,15.819 10,15.907 10,16 C10,17.103 9.103,18 8,18 Z M13,2.091 C15.506,2.515 17.486,4.493 17.91,7 L13,7 L13,2.091 Z M18.381,12.805 C19.393,11.465 20,9.804 20,8 C20,3.589 16.411,0 12,0 C11.447,0 11,0.448 11,1 L11,7 L5.414,7 L3.708,5.294 C3.615,5.201 3.505,5.128 3.382,5.077 C3.26,5.026 3.13,5 3,5 L1,5 C0.447,5 0,5.448 0,6 C0,6.552 0.447,7 1,7 L2.586,7 L4.018,8.432 C4.107,10.068 4.689,11.573 5.619,12.805 C4.642,13.535 4,14.689 4,16 C4,18.206 5.794,20 8,20 C10.206,20 12,18.206 12,16 C12,18.206 13.794,20 16,20 C18.206,20 20,18.206 20,16 C20,14.689 19.358,13.535 18.381,12.805 Z" />
</svg>