<svg id="medical" viewBox="0 0 20 20" xmlns="http://www.w3.org/2000/svg">
	<path d="M18,12 L13,12 C12.447,12 12,12.448 12,13 L12,18 L8,18 L8,13 C8,12.448 7.553,12 7,12 L2,12 L2,8 L7,8 C7.553,8 8,7.552 8,7 L8,2 L12,2 L12,7 C12,7.552 12.447,8 13,8 L18,8 L18,12 Z M19,6 L14,6 L14,1 C14,0.448 13.553,0 13,0 L7,0 C6.447,0 6,0.448 6,1 L6,6 L1,6 C0.447,6 0,6.448 0,7 L0,13 C0,13.552 0.447,14 1,14 L6,14 L6,19 C6,19.552 6.447,20 7,20 L13,20 C13.553,20 14,19.552 14,19 L14,14 L19,14 C19.553,14 20,13.552 20,13 L20,7 C20,6.448 19.553,6 19,6 Z" />
</svg>