<svg id="megaphone" viewBox="0 0 20 20" xmlns="http://www.w3.org/2000/svg">
	<path d="M19.573,1.1809 C19.841,1.3679 20,1.6739 20,1.9999 L20,17.9999 C20,18.3259 19.841,18.6319 19.573,18.8189 C19.403,18.9379 19.202,18.9999 19,18.9999 C18.885,18.9999 18.77,18.9799 18.658,18.9399 L7.823,14.9999 L7,14.9999 L7,18.9999 C7,19.5519 6.553,19.9999 6,19.9999 L3,19.9999 C2.447,19.9999 2,19.5519 2,18.9999 L2,14.9999 L1,14.9999 C0.447,14.9999 0,14.5519 0,13.9999 L0,5.9999 C0,5.4469 0.447,4.9999 1,4.9999 L7.823,4.9999 L18.658,1.0599 C18.965,0.9489 19.307,0.9929 19.573,1.1809 Z M18,16.5719 L18,3.4269 L9,6.6999 L9,13.2999 L18,16.5719 Z M2,12.9999 L7,12.9999 L7,6.9999 L2,6.9999 L2,12.9999 Z M4,17.9999 L5,17.9999 L5,14.9999 L4,14.9999 L4,17.9999 Z" />
</svg>