<svg id="microphone" viewBox="0 0 20 20" xmlns="http://www.w3.org/2000/svg">
	<path d="M17,7 C17.553,7 18,7.448 18,8 C18,12.072 14.939,15.436 11,15.931 L11,15.931 L11,18 L13,18 C13.553,18 14,18.448 14,19 C14,19.552 13.553,20 13,20 L13,20 L7,20 C6.447,20 6,19.552 6,19 C6,18.448 6.447,18 7,18 L7,18 L9,18 L9,15.931 C5.061,15.436 2,12.072 2,8 C2,7.448 2.447,7 3,7 C3.553,7 4,7.448 4,8 C4,11.309 6.691,14 10,14 C13.309,14 16,11.309 16,8 C16,7.448 16.447,7 17,7 Z M10,0 C12.206,0 14,1.794 14,4 L14,4 L14,8 C14,10.206 12.206,12 10,12 C7.794,12 6,10.206 6,8 L6,8 L6,4 C6,1.794 7.794,0 10,0 Z M10,2 C8.897,2 8,2.897 8,4 L8,4 L8,8 C8,9.103 8.897,10 10,10 C11.103,10 12,9.103 12,8 L12,8 L12,4 C12,2.897 11.103,2 10,2 Z" />
</svg>