<svg id="multi-layer" viewBox="0 0 20 20" xmlns="http://www.w3.org/2000/svg">
	<path d="M16.937,14.003 L10.001,17.856 L3.058,13.999 L4.599,13.142 L9.516,15.874 C9.666,15.958 9.834,16 10.001,16 C10.168,16 10.336,15.958 10.487,15.874 L15.396,13.147 L16.937,14.003 Z M9.52,11.874 C9.67,11.958 9.838,12 10.005,12 C10.172,12 10.34,11.958 10.491,11.874 L15.397,9.148 L16.936,10.003 L10.001,13.856 L3.058,9.999 L4.601,9.141 L9.52,11.874 Z M9.994,2.144 L16.94,6.003 L10.005,9.856 L3.063,5.999 L9.994,2.144 Z M19.996,10.003 C19.996,9.64 19.798,9.305 19.481,9.129 L17.457,8.004 L19.485,6.877 C19.802,6.701 20,6.366 20,6.003 C20,5.64 19.802,5.305 19.485,5.129 L10.479,0.126 C10.178,-0.042 9.81,-0.042 9.507,0.126 L0.518,5.125 C0.201,5.302 0.004,5.636 0.004,5.999 C0.004,6.362 0.202,6.697 0.519,6.873 L2.541,7.997 L0.513,9.125 C0.196,9.302 0,9.636 0,9.999 C0,10.362 0.197,10.697 0.514,10.873 L2.54,11.998 L0.513,13.125 C0.196,13.302 0,13.636 0,13.999 C0,14.362 0.197,14.697 0.514,14.873 L9.516,19.874 C9.666,19.958 9.834,20 10.001,20 C10.168,20 10.336,19.958 10.487,19.874 L19.481,14.877 C19.798,14.701 19.996,14.366 19.996,14.003 C19.996,13.64 19.798,13.305 19.481,13.129 L17.455,12.003 L19.481,10.877 C19.798,10.701 19.996,10.366 19.996,10.003 L19.996,10.003 Z" />
</svg>