<svg id="pen-nib" viewBox="0 0 20 20" xmlns="http://www.w3.org/2000/svg">
	<path d="M11.7684,0.0264 C12.1074,-0.0526 12.4594,0.0484 12.7034,0.2924 L12.7034,0.2924 L19.7034,7.2924 C19.9504,7.5374 20.0494,7.8924 19.9714,8.2294 C19.8914,8.5674 19.6434,8.8384 19.3144,8.9474 L19.3144,8.9474 L16.9004,9.7524 L15.9884,16.1414 C15.9284,16.5564 15.6174,16.8894 15.2064,16.9774 L15.2064,16.9774 L1.2064,19.9774 C1.1374,19.9924 1.0674,19.9994 0.9964,19.9994 C0.8684,19.9994 0.7404,19.9744 0.6184,19.9244 C0.4964,19.8744 0.3864,19.8024 0.2894,19.7064 C0.2034,19.6204 0.1444,19.5194 0.0954,19.4114 C0.0824,19.3884 0.0734,19.3654 0.0644,19.3414 C0.0264,19.2374 0.0014,19.1274 -0.000599999999,19.0154 C-0.000599999999,18.9964 0.0034,18.9794 0.0044,18.9594 C0.0064,18.9034 0.0064,18.8464 0.0204,18.7894 L0.0204,18.7894 L3.0204,4.7894 C3.1084,4.3804 3.4414,4.0694 3.8564,4.0094 L3.8564,4.0094 L10.2444,3.0974 L11.0484,0.6834 C11.1594,0.3544 11.4304,0.1064 11.7684,0.0264 Z M12.4354,2.8514 L11.9464,4.3164 C11.8274,4.6754 11.5144,4.9364 11.1394,4.9894 L11.1394,4.9894 L4.8284,5.8914 L2.6854,15.8984 L7.0724,11.5114 C7.0294,11.3474 6.9964,11.1774 6.9964,10.9994 C6.9964,9.8954 7.8934,8.9994 8.9964,8.9994 C10.1024,8.9994 10.9964,9.8954 10.9964,10.9994 C10.9964,12.1044 10.1024,12.9994 8.9964,12.9994 C8.8204,12.9994 8.6504,12.9694 8.4864,12.9254 L8.4864,12.9254 L4.0994,17.3124 L14.1064,15.1674 L15.0064,8.8584 C15.0614,8.4834 15.3224,8.1704 15.6814,8.0514 L15.6814,8.0514 L17.1464,7.5624 L12.4354,2.8514 Z" />
</svg>