<svg id="person-warning" viewBox="0 0 20 20" xmlns="http://www.w3.org/2000/svg">
	<path d="M15,6 C15,7.956 13.866,9.631 12.229,10.453 C12.854,10.637 13.448,10.887 14,11.208 L14,13.666 C12.938,12.711 11.537,12.125 10,12.125 C6.691,12.125 4,14.816 4,18.125 L4,19 C4,19.552 3.553,20 3,20 C2.447,20 2,19.552 2,19 L2,18.125 C2,14.491 4.438,11.42 7.764,10.449 C6.131,9.626 5,7.953 5,6 C5,3.239 7.238,1 10,1 C12.762,1 15,3.239 15,6 Z M10,9 C11.654,9 13,7.654 13,6 C13,4.346 11.654,3 10,3 C8.346,3 7,4.346 7,6 C7,7.654 8.346,9 10,9 Z M17,10 C17.553,10 18,10.448 18,11 L18,16 C18,16.552 17.553,17 17,17 C16.447,17 16,16.552 16,16 L16,11 C16,10.448 16.447,10 17,10 Z M17.71,18.291 C17.801,18.381 17.873,18.491 17.927,18.618 C17.973,18.736 18,18.873 18,19 C18,19.136 17.973,19.264 17.927,19.382 C17.873,19.509 17.801,19.618 17.71,19.709 C17.518,19.9 17.264,20 17,20 C16.863,20 16.736,19.973 16.619,19.927 C16.491,19.873 16.382,19.8 16.29,19.709 C16.2,19.618 16.128,19.499 16.072,19.382 C16.026,19.264 16,19.136 16,19 C16,18.873 16.026,18.736 16.072,18.618 C16.1,18.554 16.128,18.5 16.164,18.445 C16.2,18.391 16.246,18.336 16.29,18.291 C16.526,18.063 16.873,17.955 17.191,18.018 C17.255,18.036 17.318,18.054 17.382,18.072 C17.446,18.1 17.5,18.136 17.555,18.172 C17.609,18.209 17.663,18.245 17.71,18.291 Z" />
</svg>