<svg id="person-check" viewBox="0 0 20 20" xmlns="http://www.w3.org/2000/svg">
	<path d="M12.874,13.551 L14.287,12.137 C13.417,11.368 12.381,10.784 11.238,10.448 C12.87,9.625 14,7.952 14,6 C14,3.239 11.762,1 9,1 C6.238,1 4,3.239 4,6 C4,7.953 5.131,9.626 6.764,10.449 C3.438,11.42 1,14.491 1,18.125 L1,19 C1,19.552 1.447,20 2,20 C2.553,20 3,19.552 3,19 L3,18.125 C3,14.816 5.691,12.125 9,12.125 C10.477,12.125 11.827,12.663 12.874,13.551 M9,3 C10.654,3 12,4.346 12,6 C12,7.654 10.654,9 9,9 C7.346,9 6,7.654 6,6 C6,4.346 7.346,3 9,3 Z M17.707,12.9595 C18.098,13.3505 18.098,13.9825 17.707,14.3735 L12.374,19.7075 C12.179,19.9025 11.923,20.0005 11.667,20.0005 C11.411,20.0005 11.155,19.9025 10.96,19.7075 L8.293,17.0405 C7.902,16.6505 7.902,16.0175 8.293,15.6265 C8.684,15.2355 9.316,15.2355 9.707,15.6265 L11.667,17.5855 L16.293,12.9595 C16.684,12.5685 17.316,12.5685 17.707,12.9595 Z" />
</svg>