<svg id="person" viewBox="0 0 20 20" xmlns="http://www.w3.org/2000/svg">
	<path d="M10,3 C11.654,3 13,4.346 13,6 C13,7.654 11.654,9 10,9 C8.346,9 7,7.654 7,6 C7,4.346 8.346,3 10,3 M12.236,10.449 C13.869,9.626 15,7.953 15,6 C15,3.239 12.762,1 10,1 C7.238,1 5,3.239 5,6 C5,7.953 6.131,9.626 7.764,10.449 C4.438,11.42 2,14.491 2,18.125 L2,19 C2,19.552 2.447,20 3,20 C3.553,20 4,19.552 4,19 L4,18.125 C4,14.816 6.691,12.125 10,12.125 C13.309,12.125 16,14.816 16,18.125 L16,19 C16,19.552 16.447,20 17,20 C17.553,20 18,19.552 18,19 L18,18.125 C18,14.491 15.562,11.42 12.236,10.449" />
</svg>