<svg id="phone" viewBox="0 0 20 20" xmlns="http://www.w3.org/2000/svg">
	<path d="M4.8174,1.9951 L4.1714,2.0001 C2.8924,2.0001 2.0004,3.7021 2.0004,5.2301 C2.0004,12.2601 7.7154,17.9791 14.7434,17.9791 C14.7774,17.9791 14.8124,17.9811 14.8454,17.9841 C15.6054,18.0621 16.3614,17.8331 16.9444,17.3561 C17.5274,16.8791 17.9044,16.1751 17.9764,15.4241 C18.0464,15.0331 17.8754,14.7351 17.5894,14.6371 L13.7634,13.1881 C13.5394,13.0881 13.3384,13.1171 13.1984,13.2351 C12.9274,13.6321 12.6524,14.0581 12.5674,14.1901 C12.0824,15.1071 10.9844,15.4931 10.0254,15.0711 C7.7774,13.9981 5.9544,12.1961 4.8704,9.9851 C4.6424,9.5251 4.6104,8.9801 4.7804,8.4921 C4.9544,7.9991 5.3254,7.5941 5.7954,7.3781 C6.0254,7.2811 6.2154,7.1751 6.3924,7.0491 C6.4224,7.0271 6.4544,7.0081 6.4864,6.9901 C6.7484,6.8441 6.8654,6.5231 6.7564,6.2431 L5.3474,2.4021 C5.2644,2.1781 5.0564,2.0181 4.8174,1.9951 M15.1314,19.9991 C14.9864,19.9991 14.8384,19.9921 14.6934,19.9791 C6.5864,19.9521 0.0004,13.3461 0.0004,5.2301 C0.0004,2.7141 1.5944,0.0001 4.1714,0.0001 L4.9114,0.0001 C6.0054,0.0991 6.8774,0.7691 7.2244,1.7111 L8.6304,5.5411 C9.0784,6.7131 8.5984,8.0681 7.5104,8.7081 C7.2544,8.8861 6.9814,9.0411 6.6974,9.1671 C7.5874,10.9461 9.0644,12.3961 10.8614,13.2541 C10.8784,13.2181 10.8354,13.1851 10.8574,13.1511 C10.8574,13.1511 11.2454,12.5451 11.6034,12.0251 C11.6304,11.9831 11.6624,11.9441 11.6974,11.9081 C12.4224,11.1321 13.5634,10.9031 14.5314,11.3411 L18.2674,12.7561 C19.4624,13.1641 20.2004,14.4391 19.9524,15.7111 C19.8424,16.8941 19.2024,18.0921 18.2094,18.9041 C17.3434,19.6121 16.2444,19.9991 15.1314,19.9991" />
</svg>