<svg id="phone-mobile" viewBox="0 0 20 20" xmlns="http://www.w3.org/2000/svg">
	<path d="M6,18 L14,18 L14,2 L6,2 L6,18 Z M14,20 L6,20 C4.897,20 4,19.103 4,18 L4,2 C4,0.897 4.897,0 6,0 L14,0 C15.103,0 16,0.897 16,2 L16,18 C16,19.103 15.103,20 14,20 Z M11,16 C11,16.552 10.553,17 10,17 C9.447,17 9,16.552 9,16 C9,15.448 9.447,15 10,15 C10.553,15 11,15.448 11,16 Z M11.5,4.5 L8.5,4.5 C8.224,4.5 8,4.276 8,4 C8,3.724 8.224,3.5 8.5,3.5 L11.5,3.5 C11.776,3.5 12,3.724 12,4 C12,4.276 11.776,4.5 11.5,4.5 Z" />
</svg>