<svg id="pin" viewBox="0 0 20 20" xmlns="http://www.w3.org/2000/svg">
	<path d="M5.1152,12 C5.6782,9.666 8.1292,9 8.2422,8.97 C8.7482,8.844 9.0722,8.35 8.9862,7.835 L8.1802,3 L11.8192,3 L11.0132,7.835 C10.9282,8.346 11.2522,8.838 11.7532,8.969 C11.8702,9 14.3212,9.666 14.8852,12 L5.1152,12 Z M13.1252,7.334 L13.9862,2.165 C14.0352,1.875 13.9532,1.578 13.7622,1.354 C13.5732,1.129 13.2942,1 13.0002,1 L7.0002,1 C6.7062,1 6.4272,1.129 6.2372,1.354 C6.0472,1.578 5.9652,1.875 6.0132,2.165 L6.8752,7.334 C5.1972,8.06 3.0002,9.822 3.0002,13 C3.0002,13.552 3.4472,14 4.0002,14 L9.0002,14 L9.0002,18 C9.0002,18.552 9.4472,19 10.0002,19 C10.5522,19 11.0002,18.552 11.0002,18 L11.0002,14 L16.0002,14 C16.5532,14 17.0002,13.552 17.0002,13 C17.0002,9.822 14.8032,8.06 13.1252,7.334 L13.1252,7.334 Z" />
</svg>