<svg id="play-filled" viewBox="0 0 20 20" xmlns="http://www.w3.org/2000/svg">
	<path d="M15.77475,1.83525 C21.40775,5.87825 21.40775,14.12125 15.77475,18.16325 C12.36275,20.61125 7.63675,20.61125 4.22475,18.16325 C-1.40825,14.12125 -1.40825,5.87825 4.22475,1.83525 C7.63675,-0.61175 12.36275,-0.61175 15.77475,1.83525 Z M13.66275,10.82925 C13.95675,10.63125 14.10375,10.31525 14.10375,9.99925 C14.10375,9.68325 13.95675,9.36825 13.66275,9.17025 L11.18475,7.50325 L8.70775,5.83625 C8.37475,5.61225 7.98575,5.62025 7.67975,5.78325 C7.37275,5.94625 7.14875,6.26525 7.14875,6.66525 L7.14875,9.99925 L7.14875,13.33325 C7.14875,13.73425 7.37275,14.05325 7.67975,14.21625 C7.98575,14.37925 8.37475,14.38725 8.70775,14.16325 L11.18475,12.49625 L13.66275,10.82925 Z" />
</svg>