<svg id="podcast" viewBox="0 0 20 20" xmlns="http://www.w3.org/2000/svg">
	<path d="M10,8 C11.103,8 12,8.897 12,10 C12,10.737 11.595,11.375 11,11.722 L11,11.722 L11,18 L13,18 C13.553,18 14,18.448 14,19 C14,19.552 13.553,20 13,20 L13,20 L7,20 C6.447,20 6,19.552 6,19 C6,18.448 6.447,18 7,18 L7,18 L9,18 L9,11.722 C8.405,11.375 8,10.737 8,10 C8,8.897 8.897,8 10,8 Z M10,0 C15.514,0 20,4.486 20,10 C20,12.464 19.096,14.832 17.453,16.667 C17.256,16.888 16.982,17 16.708,17 C16.471,17 16.232,16.917 16.041,16.746 C15.63,16.377 15.595,15.745 15.963,15.333 C17.276,13.866 18,11.971 18,10 C18,5.589 14.411,2 10,2 C5.589,2 2,5.589 2,10 C2,11.956 2.713,13.838 4.009,15.301 C4.375,15.714 4.336,16.346 3.923,16.712 C3.51,17.077 2.878,17.041 2.511,16.627 C0.892,14.798 0,12.445 0,10 C0,4.486 4.486,0 10,0 Z M10,4 C13.309,4 16,6.691 16,10 C16,11.904 15.126,13.653 13.603,14.798 C13.163,15.13 12.535,15.041 12.202,14.599 C11.871,14.158 11.96,13.531 12.401,13.199 C13.417,12.436 14,11.27 14,10 C14,7.794 12.206,6 10,6 C7.794,6 6,7.794 6,10 C6,11.27 6.583,12.437 7.601,13.2 C8.042,13.532 8.131,14.159 7.8,14.601 C7.604,14.862 7.303,15 6.999,15 C6.79,15 6.579,14.935 6.399,14.8 C4.875,13.655 4,11.905 4,10 C4,6.691 6.691,4 10,4 Z" />
</svg>