<svg id="pound" viewBox="0 0 20 20" xmlns="http://www.w3.org/2000/svg">
	<path d="M13.999,17.133857 L7,17.133857 L7,11.133857 L10.999,11.133857 C11.552,11.133857 11.999,10.685857 11.999,10.133857 C11.999,9.58185699 11.552,9.13385699 10.999,9.13385699 L7,9.13385699 L7,6.16785699 C7,4.64485699 8.002,3.33985699 9.383,3.06285699 C10.307,2.87785699 11.216,3.09585699 11.929,3.68085699 C12.632,4.25785699 13.035,5.10885699 13.035,6.01685699 C13.035,6.56885699 13.482,7.01685699 14.035,7.01685699 C14.588,7.01685699 15.035,6.56885699 15.035,6.01685699 C15.035,4.50685699 14.365,3.09185699 13.196,2.13385699 C12.028,1.17685699 10.495,0.799856988 8.99,1.10185699 C6.678,1.56485699 5,3.69585699 5,6.16785699 L5,9.13385699 C4.447,9.13385699 4,9.58185699 4,10.133857 C4,10.685857 4.447,11.133857 5,11.133857 L5,17.133857 C4.447,17.133857 4,17.581857 4,18.133857 C4,18.685857 4.447,19.133857 5,19.133857 L13.999,19.133857 C14.552,19.133857 14.999,18.685857 14.999,18.133857 C14.999,17.581857 14.552,17.133857 13.999,17.133857" />
</svg>