<svg id="print" viewBox="0 0 20 20" xmlns="http://www.w3.org/2000/svg">
	<path d="M19,5 C19.553,5 20,5.448 20,6 L20,16 C20,16.552 19.553,17 19,17 L16,17 L16,19 C16,19.552 15.553,20 15,20 L5,20 C4.447,20 4,19.552 4,19 L4,17 L1,17 C0.447,17 0,16.552 0,16 L0,6 C0,5.448 0.447,5 1,5 L4,5 L4,1 C4,0.448 4.447,0 5,0 L15,0 C15.553,0 16,0.448 16,1 L16,5 L19,5 Z M6,18 L14,18 L14,14 L6,14 L6,18 Z M6,5 L14,5 L14,2 L6,2 L6,5 Z M18,15 L18,7 L15,7 L5,7 L2,7 L2,15 L4,15 L4,13 C4,12.448 4.447,12 5,12 L15,12 C15.553,12 16,12.448 16,13 L16,15 L18,15 Z" />
</svg>