<svg id="promotion" viewBox="0 0 20 20" xmlns="http://www.w3.org/2000/svg">
	<path d="M12.6211,11 C12.9871,11 13.1401,11.49 12.8441,11.715 L11.6681,12.607 C11.5361,12.708 11.4801,12.886 11.5311,13.049 L11.9791,14.492 C12.0931,14.856 11.6931,15.159 11.3971,14.934 L10.2231,14.042 C10.0901,13.941 9.9101,13.941 9.7771,14.042 L8.6021,14.934 C8.3071,15.159 7.9071,14.856 8.0201,14.492 L8.4691,13.049 C8.5191,12.886 8.4641,12.708 8.3311,12.607 L7.1561,11.715 C6.8601,11.49 7.0131,11 7.3791,11 L8.8311,11 C8.9951,11 9.1411,10.89 9.1911,10.727 L9.6401,9.284 C9.7531,8.92 10.2471,8.92 10.3601,9.284 L10.8091,10.727 C10.8591,10.89 11.0051,11 11.1691,11 L12.6211,11 Z M17,3.5859 L17,1.9999 L3,1.9999 L3,3.5859 L5.103,5.6889 C6.457,4.6339 8.154,3.9999 10,3.9999 C11.846,3.9999 13.543,4.6339 14.897,5.6889 L17,3.5859 Z M10,17.9999 C13.309,17.9999 16,15.3089 16,11.9999 C16,8.6909 13.309,5.9999 10,5.9999 C6.691,5.9999 4,8.6909 4,11.9999 C4,15.3089 6.691,17.9999 10,17.9999 Z M18,-0.0001 C18.553,-0.0001 19,0.4479 19,0.9999 L19,3.9999 C19,4.2649 18.895,4.5199 18.707,4.7069 L16.312,7.1029 C17.365,8.4579 18,10.1539 18,11.9999 C18,16.4109 14.411,19.9999 10,19.9999 C5.589,19.9999 2,16.4109 2,11.9999 C2,10.1539 2.635,8.4579 3.688,7.1029 L1.293,4.7069 C1.105,4.5199 1,4.2649 1,3.9999 L1,0.9999 C1,0.4479 1.447,-0.0001 2,-0.0001 L18,-0.0001 Z" />
</svg>