<svg id="puzzle" viewBox="0 0 20 20" xmlns="http://www.w3.org/2000/svg">
	<path d="M11.9639,18 L13.9999,18 L13.9999,13.489 C13.9999,13.109 14.2149,12.763 14.5549,12.594 C14.8929,12.424 15.2999,12.462 15.6029,12.691 C15.7889,12.832 16.0969,13 16.4999,13 C17.3269,13 17.9999,12.327 17.9999,11.5 C17.9999,10.673 17.3269,10 16.4999,10 C16.0969,10 15.7889,10.168 15.6029,10.309 C15.2999,10.538 14.8929,10.576 14.5549,10.406 C14.2149,10.237 13.9999,9.891 13.9999,9.511 L13.9999,6 L10.4889,6 C10.1099,6 9.7629,5.785 9.5939,5.446 C9.4249,5.106 9.4629,4.7 9.6919,4.397 C9.8319,4.211 9.9999,3.904 9.9999,3.5 C9.9999,2.673 9.3269,2 8.4999,2 C7.6729,2 6.9999,2.673 6.9999,3.5 C6.9999,3.903 7.1679,4.21 7.3099,4.397 C7.5379,4.7 7.5759,5.106 7.4069,5.446 C7.2379,5.785 6.8909,6 6.5119,6 L1.9999,6 L1.9999,18 L5.0359,18 C5.0119,17.835 4.9999,17.668 4.9999,17.5 C4.9999,15.57 6.5699,14 8.4999,14 C10.4299,14 11.9999,15.57 11.9999,17.5 C11.9999,17.668 11.9869,17.835 11.9639,18 M14.9999,20 L10.4879,20 C10.1099,20 9.7619,19.785 9.5929,19.446 C9.4239,19.106 9.4619,18.7 9.6909,18.397 C9.8319,18.21 9.9999,17.903 9.9999,17.5 C9.9999,16.673 9.3269,16 8.4999,16 C7.6729,16 6.9999,16.673 6.9999,17.5 C6.9999,17.904 7.1679,18.211 7.3089,18.397 C7.5369,18.7 7.5749,19.106 7.4059,19.446 C7.2369,19.785 6.8899,20 6.5109,20 L0.9999,20 C0.4469,20 -0.0001,19.552 -0.0001,19 L-0.0001,5 C-0.0001,4.448 0.4469,4 0.9999,4 L5.0359,4 C5.0129,3.835 4.9999,3.668 4.9999,3.5 C4.9999,1.57 6.5699,0 8.4999,0 C10.4299,0 11.9999,1.57 11.9999,3.5 C11.9999,3.668 11.9879,3.835 11.9639,4 L14.9999,4 C15.5529,4 15.9999,4.448 15.9999,5 L15.9999,8.036 C16.1649,8.012 16.3309,8 16.4999,8 C18.4299,8 19.9999,9.57 19.9999,11.5 C19.9999,13.43 18.4299,15 16.4999,15 C16.3309,15 16.1649,14.988 15.9999,14.964 L15.9999,19 C15.9999,19.552 15.5529,20 14.9999,20" />
</svg>