<svg id="redo" viewBox="0 0 20 20" xmlns="http://www.w3.org/2000/svg">
	<path d="M17 10.5C16.447 10.5 16 10.948 16 11.5C16 15.084 13.084 18 9.5 18C5.916 18 3 15.084 3 11.5C3 7.91601 5.916 5.00001 9.5 5.00001H10.586L9.293 6.29301C8.902 6.68401 8.902 7.31601 9.293 7.70701C9.488 7.90201 9.744 8.00001 10 8.00001C10.256 8.00001 10.512 7.90201 10.707 7.70701L13.706 4.70801C13.799 4.61601 13.872 4.50501 13.923 4.38201C14.024 4.13801 14.024 3.86201 13.923 3.61801C13.872 3.49501 13.799 3.38401 13.706 3.29201L10.707 0.293006C10.316 -0.0979941 9.684 -0.0979941 9.293 0.293006C8.902 0.684006 8.902 1.31601 9.293 1.70701L10.586 3.00001H9.5C4.813 3.00001 1 6.81301 1 11.5C1 16.187 4.813 20 9.5 20C14.187 20 18 16.187 18 11.5C18 10.948 17.553 10.5 17 10.5Z" />
</svg>