<svg id="refresh" viewBox="0 0 20 20" xmlns="http://www.w3.org/2000/svg">
	<path d="M18.0605,10.0132 C18.6085,10.0812 18.9975,10.5812 18.9285,11.1292 C18.3685,15.6162 14.5295,19.0002 9.9995,19.0002 C7.2145,19.0002 4.6835,17.7362 2.9995,15.6312 L2.9995,17.0002 C2.9995,17.5522 2.5525,18.0002 1.9995,18.0002 C1.4475,18.0002 0.9995,17.5522 0.9995,17.0002 L0.9995,13.0002 C0.9995,12.4482 1.4475,12.0002 1.9995,12.0002 L5.9995,12.0002 C6.5525,12.0002 6.9995,12.4482 6.9995,13.0002 C6.9995,13.5522 6.5525,14.0002 5.9995,14.0002 L4.2585,14.0002 C5.5555,15.8712 7.6685,17.0002 9.9995,17.0002 C13.5225,17.0002 16.5075,14.3692 16.9445,10.8812 C17.0135,10.3342 17.5035,9.9462 18.0605,10.0132 Z M18,2 C18.553,2 19,2.448 19,3 L19,7 C19,7.552 18.553,8 18,8 L14,8 C13.447,8 13,7.552 13,7 C13,6.448 13.447,6 14,6 L15.728,6 C14.434,4.15 12.313,3 10,3 C6.476,3 3.489,5.632 3.054,9.123 C2.99,9.629 2.56,10 2.062,10 C2.021,10 1.979,9.997 1.938,9.992 C1.39,9.923 1.001,9.424 1.069,8.875 C1.629,4.386 5.469,1 10,1 C12.764,1 15.316,2.276 17,4.364 L17,3 C17,2.448 17.447,2 18,2 Z" />
</svg>