<svg id="reply" viewBox="0 0 20 20" xmlns="http://www.w3.org/2000/svg">
	<path d="M8,11.9997 C7.447,11.9997 7,12.4477 7,12.9997 L7,15.5857 L1.414,9.9997 L7,4.4137 L7,6.9997 C7,7.5517 7.447,7.9997 8,7.9997 C11.113,7.9997 13.466,8.8497 14.991,10.5257 C15.983,11.6177 16.497,12.9217 16.76,14.0647 C15.179,12.9887 12.501,11.9997 8,11.9997 M16.485,9.1967 C14.741,7.2707 12.227,6.2057 9,6.0267 L9,1.9997 C9,1.5957 8.757,1.2307 8.383,1.0757 C8.01,0.9217 7.579,1.0057 7.293,1.2927 L-0.707,9.2927 C-1.098,9.6837 -1.098,10.3157 -0.707,10.7067 L7.293,18.7067 C7.484,18.8977 7.74,18.9997 8,18.9997 C8.129,18.9997 8.259,18.9747 8.383,18.9237 C8.757,18.7687 9,18.4037 9,17.9997 L9,14.0177 C16.037,14.2757 17.026,17.2337 17.03,17.2427 C17.147,17.7137 17.591,18.0297 18.072,17.9977 C18.558,17.9617 18.946,17.5827 18.995,17.0997 C19.014,16.9107 19.423,12.4437 16.485,9.1967" />
</svg>