<svg id="robot" viewBox="0 0 20 20" xmlns="http://www.w3.org/2000/svg">
	<path d="M10,0 C11.104,0 12,0.895 12,2 C12,2.738 11.596,3.376 11,3.723 L11,3.723 L11,5 L16,5 C16.553,5 17,5.448 17,6 L17,6 L17,9 L18,9 C18.553,9 19,9.448 19,10 L19,10 L19,15 C19,15.552 18.553,16 18,16 L18,16 L17,16 L17,19 C17,19.552 16.553,20 16,20 L16,20 L4,20 C3.447,20 3,19.552 3,19 L3,19 L3,16 L2,16 C1.447,16 1,15.552 1,15 L1,15 L1,10 C1,9.448 1.447,9 2,9 L2,9 L3,9 L3,6 C3,5.448 3.447,5 4,5 L4,5 L9,5 L9,3.723 C8.404,3.376 8,2.738 8,2 C8,0.895 8.896,0 10,0 Z M15,7 L5,7 L5,10 C5,10.552 4.553,11 4,11 L4,11 L3,11 L3,14 L4,14 C4.553,14 5,14.448 5,15 L5,15 L5,18 L15,18 L15,15 C15,14.448 15.447,14 16,14 L16,14 L17,14 L17,11 L16,11 C15.447,11 15,10.552 15,10 L15,10 L15,7 Z M12,14 C12.553,14 13,14.448 13,15 C13,15.552 12.553,16 12,16 L8,16 C7.447,16 7,15.552 7,15 C7,14.448 7.447,14 8,14 L12,14 Z M7.5,9 C8.328,9 9,9.671 9,10.5 C9,11.329 8.328,12 7.5,12 C6.672,12 6,11.329 6,10.5 C6,9.671 6.672,9 7.5,9 Z M12.5,9 C13.328,9 14,9.671 14,10.5 C14,11.329 13.328,12 12.5,12 C11.672,12 11,11.329 11,10.5 C11,9.671 11.672,9 12.5,9 Z" />
</svg>