<svg id="salary" viewBox="0 0 20 20" xmlns="http://www.w3.org/2000/svg">
	<path d="M9.0011,13 C9.0011,13.829 8.3291,14.5 7.5011,14.5 C6.6731,14.5 6.0011,13.829 6.0011,13 C6.0011,12.171 6.6731,11.5 7.5011,11.5 C8.3291,11.5 9.0011,12.171 9.0011,13 Z M18.8429,3 C19.4819,3 19.9999,3.518 19.9999,4.157 L19.9999,11.843 C19.9999,12.482 19.4819,13 18.8429,13 L16.9999,13 C16.4469,13 15.9999,12.552 15.9999,12 C15.9999,11.448 16.4469,11 16.9999,11 L17.9999,11 L17.9999,5 L5.9979,5 L5.9979,5.933 C5.9989,5.955 5.9999,5.978 5.9999,6 C5.9999,6.552 5.5529,7 4.9999,7 C4.4469,7 3.9999,6.552 3.9999,6 L3.9979,6 L3.9979,4.157 C3.9979,3.518 4.5159,3 5.1549,3 L18.8429,3 Z M1.937,16.063 L13.067,16.063 L13.067,9.936 L1.937,9.936 L1.937,16.063 Z M13.881,8 C14.5,8 15.002,8.502 15.002,9.121 L15.002,16.879 C15.002,17.498 14.5,18 13.881,18 L1.121,18 C0.502,18 2.03392858e-13,17.498 2.03392858e-13,16.879 L2.03392858e-13,9.121 C2.03392858e-13,8.502 0.502,8 1.121,8 L13.881,8 Z" />
</svg>