<svg id="settings" viewBox="0 0 20 20" xmlns="http://www.w3.org/2000/svg">
	<path d="M9.4981,8 C8.3951,8 7.4981,8.897 7.4981,10 C7.4981,11.103 8.3951,12 9.4981,12 C10.6011,12 11.4981,11.103 11.4981,10 C11.4981,8.897 10.6011,8 9.4981,8 Z M9.4981,14 C7.2921,14 5.4981,12.206 5.4981,10 C5.4981,7.794 7.2921,6 9.4981,6 C11.7041,6 13.4981,7.794 13.4981,10 C13.4981,12.206 11.7041,14 9.4981,14 Z M8.8126,18 L10.1836,18 L10.8426,16.025 C10.9396,15.735 11.1636,15.505 11.4516,15.401 C12.0966,15.168 12.6866,14.828 13.2046,14.392 C13.4376,14.195 13.7496,14.115 14.0486,14.177 L16.0836,14.594 L16.7696,13.407 L15.3886,11.85 C15.1856,11.621 15.0986,11.311 15.1526,11.009 C15.2166,10.651 15.2486,10.321 15.2486,10 C15.2486,9.679 15.2166,9.348 15.1526,8.99 C15.0986,8.688 15.1856,8.378 15.3886,8.149 L16.7686,6.593 L16.0836,5.406 L14.0476,5.822 C13.7486,5.884 13.4366,5.804 13.2026,5.607 C12.6876,5.172 12.0986,4.833 11.4506,4.599 C11.1626,4.495 10.9386,4.265 10.8416,3.974 L10.1836,2 L8.8126,2 L8.1536,3.975 C8.0566,4.265 7.8336,4.495 7.5446,4.599 C6.8986,4.833 6.3086,5.172 5.7926,5.607 C5.5586,5.805 5.2486,5.886 4.9476,5.823 L2.9126,5.406 L2.2266,6.593 L3.6076,8.15 C3.8106,8.379 3.8976,8.689 3.8436,8.991 C3.7796,9.349 3.7486,9.679 3.7486,10 C3.7486,10.321 3.7796,10.652 3.8436,11.01 C3.8976,11.312 3.8106,11.622 3.6076,11.851 L2.2276,13.407 L2.9136,14.594 L4.9486,14.178 C5.2506,14.115 5.5596,14.196 5.7936,14.393 C6.3086,14.828 6.8976,15.167 7.5456,15.401 C7.8336,15.505 8.0576,15.735 8.1546,16.026 L8.8126,18 Z M10.9046,20 L8.0916,20 C7.6616,20 7.2796,19.725 7.1436,19.316 L6.4046,17.099 C5.8666,16.865 5.3606,16.575 4.8936,16.23 L2.6076,16.698 C2.1906,16.785 1.7566,16.591 1.5416,16.218 L0.1346,13.783 C-0.0804,13.41 -0.0334,12.941 0.2526,12.619 L1.8016,10.873 C1.7656,10.575 1.7486,10.287 1.7486,10 C1.7486,9.713 1.7656,9.425 1.8006,9.128 L0.2516,7.381 C-0.0344,7.059 -0.0814,6.59 0.1336,6.218 L1.5406,3.782 C1.7556,3.41 2.1866,3.213 2.6066,3.303 L4.8936,3.771 C5.3606,3.425 5.8666,3.135 6.4036,2.901 L7.1436,0.684 C7.2796,0.275 7.6616,0 8.0916,0 L10.9046,0 C11.3346,0 11.7166,0.275 11.8526,0.684 L12.5916,2.901 C13.1296,3.135 13.6356,3.425 14.1026,3.77 L16.3886,3.302 C16.8076,3.218 17.2396,3.409 17.4556,3.782 L18.8616,6.217 C19.0766,6.59 19.0296,7.059 18.7436,7.381 L17.1946,9.127 C17.2306,9.425 17.2486,9.713 17.2486,10 C17.2486,10.287 17.2306,10.575 17.1956,10.872 L18.7446,12.619 C19.0306,12.941 19.0776,13.41 18.8626,13.782 L17.4566,16.218 C17.2406,16.59 16.8096,16.786 16.3896,16.697 L14.1026,16.229 C13.6346,16.575 13.1296,16.866 12.5926,17.099 L11.8526,19.316 C11.7166,19.725 11.3346,20 10.9046,20 Z" />
</svg>