<svg id="share" viewBox="0 0 20 20" xmlns="http://www.w3.org/2000/svg">
	<path d="M16.5,18 C15.673,18 15,17.327 15,16.5 C15,15.673 15.673,15 16.5,15 C17.327,15 18,15.673 18,16.5 C18,17.327 17.327,18 16.5,18 M3.5,11.5 C2.673,11.5 2,10.827 2,10 C2,9.173 2.673,8.5 3.5,8.5 C4.327,8.5 5,9.173 5,10 C5,10.827 4.327,11.5 3.5,11.5 M16.5,2 C17.327,2 18,2.673 18,3.5 C18,4.327 17.327,5 16.5,5 C15.673,5 15,4.327 15,3.5 C15,2.673 15.673,2 16.5,2 M16.5,13 C15.443,13 14.505,13.481 13.863,14.225 L6.961,10.39 C6.976,10.26 7,10.134 7,10 C7,9.866 6.976,9.74 6.961,9.61 L13.863,5.775 C14.505,6.519 15.443,7 16.5,7 C18.43,7 20,5.43 20,3.5 C20,1.57 18.43,0 16.5,0 C14.57,0 13,1.57 13,3.5 C13,3.651 13.025,3.796 13.045,3.942 L6.169,7.763 C5.526,6.998 4.575,6.5 3.5,6.5 C1.57,6.5 0,8.07 0,10 C0,11.93 1.57,13.5 3.5,13.5 C4.575,13.5 5.526,13.002 6.169,12.237 L13.045,16.058 C13.025,16.204 13,16.349 13,16.5 C13,18.43 14.57,20 16.5,20 C18.43,20 20,18.43 20,16.5 C20,14.57 18.43,13 16.5,13" />
</svg>