<svg id="shield" viewBox="0 0 20 20" xmlns="http://www.w3.org/2000/svg">
	<path d="M10.6 0.200049C13.4 2.00005 17.3 3.10005 17.3 3.10005C17.7 3.20005 18 3.60005 18 4.10005V11C18 16.6 10.7 19.8 10.4 19.9C10.3 20 10.1 20 10 20C9.9 20 9.7 20 9.6 19.9C9.3 19.8 2 16.6 2 11V4.10005C2 3.60005 2.3 3.20005 2.7 3.10005C2.8 3.10005 6.6 2.00005 9.5 0.200049C9.8 4.88274e-05 10.3 4.88274e-05 10.6 0.200049ZM10 17.9C11.4 17.2 16 14.6 16 11V4.80005C14.8 4.50005 12.2 3.60005 10 2.20005C7.8 3.50005 5.2 4.40005 4 4.80005V11C4 14.6 8.6 17.2 10 17.9ZM6.3 9.3C6.7 8.9 7.3 8.9 7.7 9.3L9 10.6L12.3 7.3C12.7 6.9 13.3 6.9 13.7 7.3C14.1 7.7 14.1 8.3 13.7 8.7L9.7 12.7C9.5 12.9 9.3 13 9 13C8.8 13 8.5 12.9 8.3 12.7L6.3 10.7C5.9 10.3 5.9 9.7 6.3 9.3Z" />
</svg>