<svg id="star-filled" viewBox="0 0 20 20" xmlns="http://www.w3.org/2000/svg">
	<path d="M19.9511,7.1843 C19.8331,6.8223 19.5201,6.5583 19.1431,6.5033 L13.4451,5.6753 L10.8961,0.5123 C10.5601,-0.1707 9.4391,-0.1707 9.1031,0.5123 L6.5551,5.6753 L0.8561,6.5033 C0.4791,6.5583 0.1671,6.8223 0.0491,7.1843 C-0.0689,7.5463 0.0291,7.9433 0.3021,8.2093 L4.4261,12.2293 L3.4521,17.9053 C3.3881,18.2803 3.5421,18.6603 3.8491,18.8833 C4.1601,19.1073 4.5681,19.1363 4.9021,18.9593 L10.0001,16.2803 L15.0971,18.9593 C15.2431,19.0363 15.4031,19.0743 15.5621,19.0743 C15.7691,19.0743 15.9761,19.0103 16.1501,18.8833 C16.4581,18.6603 16.6121,18.2803 16.5481,17.9053 L15.5741,12.2293 L19.6981,8.2093 C19.9711,7.9433 20.0681,7.5463 19.9511,7.1843" />
</svg>