<svg id="star-half-filled" viewBox="0 0 20 20" xmlns="http://www.w3.org/2000/svg">
	<path d="M13.8048137,11.1124227 C13.5668137,11.3429657 13.4578137,11.6757495 13.5148137,12.0035215 L14.2328137,16.1703354 L13.2458137,15.6541196 C13.2458137,15.6541196 13.2448137,15.6531172 13.2438137,15.6531172 L11.4948137,14.7379618 L10.4628137,14.1976893 C10.4618137,14.1976893 10.4618137,14.1976893 10.4608137,14.1966869 L9.99981374,13.9561203 L9.99981374,3.20880759 L11.8858137,7.01276691 C12.0328137,7.30746099 12.3138137,7.51094024 12.6388137,7.5580512 L16.8408137,8.16648422 L13.8048137,11.1124227 Z M19.9508137,7.15710687 C19.8338137,6.79324989 19.5208137,6.52862663 19.1428137,6.47349679 L13.4438137,5.64855383 L10.8958137,0.510452249 C10.5578137,-0.17015075 9.44281374,-0.17015075 9.10481374,0.510452249 L6.55681374,5.64855383 L0.857813737,6.47349679 C0.479813737,6.52862663 0.165813737,6.79324989 0.048813737,7.15710687 C-0.069186263,7.52096385 0.030813737,7.91990346 0.304813737,8.18552908 L4.42481374,12.1839464 L3.45181374,17.8262355 C3.38781374,18.2021208 3.54081374,18.5820155 3.84781374,18.8065444 C4.15581374,19.0310732 4.56381374,19.061144 4.90081374,18.8857309 L7.64481374,17.4503502 C7.64481374,17.4503502 7.64481374,17.4493478 7.64581374,17.4493478 L9.99981374,16.2174464 L15.0998137,18.8857309 C15.2448137,18.9619103 15.4048137,19 15.5628137,19 C15.7708137,19 15.9778137,18.9348465 16.1528137,18.8065444 C16.4588137,18.5820155 16.6128137,18.2021208 16.5478137,17.8262355 L15.5758137,12.1839464 L19.6958137,8.18552908 C19.9698137,7.91990346 20.0698137,7.52096385 19.9508137,7.15710687 L19.9508137,7.15710687 Z" />
</svg>