<svg id="star" viewBox="0 0 20 20" xmlns="http://www.w3.org/2000/svg">
	<path d="M9.99978145,14.15025 C10.1597814,14.15025 10.3187814,14.18825 10.4647814,14.26525 L14.2337814,16.24625 L13.5147814,12.04925 C13.4587814,11.72525 13.5657814,11.39425 13.8017814,11.16525 L16.8517814,8.19225 L12.6377814,7.57925 C12.3117814,7.53225 12.0297814,7.32725 11.8847814,7.03225 L9.99978145,3.21325 L8.11478145,7.03225 C7.96978145,7.32725 7.68778145,7.53225 7.36178145,7.57925 L3.14778145,8.19225 L6.19778145,11.16525 C6.43378145,11.39425 6.54078145,11.72525 6.48478145,12.04925 L5.76578145,16.24625 L9.53478145,14.26525 C9.68078145,14.18825 9.83978145,14.15025 9.99978145,14.15025 M15.5617814,19.07425 C15.4027814,19.07425 15.2427814,19.03625 15.0977814,18.96025 L9.99978145,16.28025 L4.90178145,18.96025 C4.56778145,19.13625 4.15978145,19.10825 3.84978145,18.88325 C3.54178145,18.66025 3.38778145,18.28025 3.45178145,17.90525 L4.42578145,12.23025 L0.301781447,8.20925 C0.0287814475,7.94325 -0.0682185525,7.54625 0.0487814475,7.18425 C0.166781447,6.82225 0.478781447,6.55825 0.855781447,6.50425 L6.55478145,5.67525 L9.10378145,0.51225 C9.43878145,-0.17075 10.5607814,-0.17075 10.8957814,0.51225 L13.4447814,5.67525 L19.1437814,6.50425 C19.5207814,6.55825 19.8327814,6.82225 19.9507814,7.18425 C20.0677814,7.54625 19.9707814,7.94325 19.6977814,8.20925 L15.5737814,12.23025 L16.5477814,17.90525 C16.6117814,18.28025 16.4577814,18.66025 16.1497814,18.88325 C15.9767814,19.01025 15.7697814,19.07425 15.5617814,19.07425" />
</svg>