<svg id="task-check" viewBox="0 0 20 20" xmlns="http://www.w3.org/2000/svg">
	<path d="M16,18 L16,4 L15,4 L15,5 C15,5.552 14.553,6 14,6 L6,6 C5.447,6 5,5.552 5,5 L5,4 L4,4 L4,18 L16,18 Z M13,2 L7,2 L7,3 L7,4 L13,4 L13,3 L13,2 Z M17,2 C17.553,2 18,2.448 18,3 L18,19 C18,19.552 17.553,20 17,20 L3,20 C2.447,20 2,19.552 2,19 L2,3 C2,2.448 2.447,2 3,2 L5,2 C5,0.897 5.897,0 7,0 L13,0 C14.103,0 15,0.897 15,2 L17,2 Z M12.293,9.293 C12.684,8.902 13.316,8.902 13.707,9.293 C14.098,9.684 14.098,10.316 13.707,10.707 L9.707,14.707 C9.512,14.902 9.256,15 9,15 C8.744,15 8.488,14.902 8.293,14.707 L6.293,12.707 C5.902,12.316 5.902,11.684 6.293,11.293 C6.684,10.902 7.316,10.902 7.707,11.293 L9,12.586 L12.293,9.293 Z" />
</svg>