<svg id="thumb-down" viewBox="0 0 20 20" xmlns="http://www.w3.org/2000/svg">
	<path d="M16.876,11.631 C16.809,11.714 16.607,11.963 15.986,12.003 L12.996,12.016 C12.675,12.018 12.374,12.173 12.188,12.433 C12.001,12.694 11.95,13.028 12.052,13.333 C12.957,16.049 12.611,17.123 12.324,17.521 C12.008,17.96 11.45,18.016 11,18.016 C10.679,17.787 10.272,16.053 9.974,14.787 C9.147,11.27 6.275,11.027 6.153,11.019 L6,11.019 L6,11.016 L6,5.016 C7.447,5.016 9.114,4.104 9.461,3.905 C10.957,3.221 12.119,3.071 13.06,3.014 C13.346,2.99 15.458,2.863 16.175,5.47 C16.921,8.185 17.143,10.109 17.145,10.128 C17.189,10.42 17.221,11.204 16.876,11.631 M19.124,9.848 C19.123,9.821 18.894,7.818 18.103,4.94 C17.237,1.795 14.785,1 13.303,1 C13.153,1 13.014,1.008 12.886,1.023 C11.871,1.082 10.409,1.264 8.581,2.109 C7.925,2.487 6.745,3.016 6,3.016 L3,3.016 C2.893,3.01 2.14,3.022 1.567,3.58 C1.309,3.832 1,4.287 1,5.016 L1,11.018 C1,11.986 1.701,13.016 3,13.016 L6.083,13.016 C6.155,13.029 7.553,13.232 8.026,15.245 C8.75,18.321 9.148,20.016 11,20.016 C12.321,20.016 13.313,19.57 13.946,18.691 C14.713,17.627 14.841,16.089 14.331,14.01 L16.022,14.003 C16.04,14.003 16.058,14.003 16.074,14.002 C17.346,13.93 18.064,13.349 18.443,12.873 C19.401,11.671 19.155,10.031 19.124,9.848" />
</svg>