<svg id="thumb-up" viewBox="0 0 20 20" xmlns="http://www.w3.org/2000/svg">
	<path d="M16.9890021,9.88067943 C16.9870214,9.89966344 16.7671664,11.8220446 16.0283745,14.533761 C15.3183024,17.1385675 13.2267092,17.0116744 12.9434726,16.9876946 C12.0125552,16.9317417 10.8617828,16.7808687 9.37924723,16.0984434 C9.03659039,15.8986117 7.38569745,14.987379 5.95168847,14.987379 L5.95168847,8.99242743 L5.95168847,8.99042911 L6.10420048,8.99042911 C6.22502168,8.98143668 9.0682812,8.7396403 9.88729047,5.22460034 C10.1824111,3.95966554 10.5854785,2.22812369 10.9033769,1.99831721 C11.3500192,1.99831721 11.9016373,2.05427009 12.2155744,2.49290072 C12.4998013,2.89056584 12.8424582,3.96366218 11.9452122,6.6783761 C11.8451881,6.98212032 11.894705,7.31683845 12.0798981,7.57661969 C12.2641009,7.83740008 12.5621926,7.99226967 12.8810813,7.99326883 L15.842191,8.00725705 C16.4571907,8.04722339 16.6562486,8.29601388 16.7226012,8.37894405 C17.0642677,8.80458561 17.0335673,9.58892512 16.9890021,9.88067943 M18.2754507,7.1369899 C17.9001128,6.66238957 17.18806,6.08087926 15.9293407,6.009939 C15.912505,6.00893984 15.8956693,6.00893984 15.8778432,6.00893984 L14.2031821,6.00094657 C14.707264,3.92469499 14.5805008,2.3869899 13.8219021,1.32488431 C13.194028,0.445624737 12.2126034,0 10.9033769,0 C9.07026187,0 8.67511713,1.69357383 7.95910298,4.7669857 C7.48968291,6.77929112 6.10618115,6.98212032 6.0338865,6.99411022 L2.98067539,6.99411022 C1.69521706,6.99411022 1,8.02324358 1,8.99142827 L1,14.987379 C1,15.7167648 1.30601435,16.1703828 1.56251181,16.42317 C2.12898497,16.9807005 2.87470926,16.9926904 2.98067539,16.9856963 L5.95168847,16.9856963 C6.69048039,16.9856963 7.85808854,17.5142512 8.5087404,17.8929323 C10.3190777,18.7362221 11.7669514,18.918069 12.7711538,18.9780185 C12.8979171,18.9930059 13.0365643,19 13.1841247,19 C14.6527955,19 17.0811035,18.2066681 17.9377456,15.0643143 C18.7211027,12.1887358 18.9488804,10.186422 18.9488804,10.1594447 C18.9805712,9.97659865 19.2241943,8.3389777 18.2754507,7.1369899" />
</svg>