<svg id="tiktok-filled" viewBox="0 0 20 20" xmlns="http://www.w3.org/2000/svg">
	<path d="M10.04,0C4.52,0,.04,4.49,.04,10s4.49,10,10,10,10-4.49,10-10S15.55,0,10.04,0Zm4.93,7.48v1.51c-1.01,0-1.94-.32-2.71-.87v3.95c0,1.97-1.61,3.58-3.58,3.58-.76,0-1.47-.24-2.05-.65-.92-.65-1.53-1.72-1.53-2.93,0-1.97,1.61-3.58,3.58-3.58,.16,0,.32,.01,.48,.03v1.99c-.15-.05-.31-.08-.48-.08-.9,0-1.63,.73-1.63,1.63,0,.63,.36,1.17,.88,1.45,.23,.12,.48,.19,.76,.19,.88,0,1.6-.7,1.63-1.57V4.34h1.95c0,.17,.02,.33,.05,.49,.14,.74,.58,1.38,1.19,1.77,.42,.28,.93,.44,1.47,.44v.43Z" />
</svg>