<svg id="tools" viewBox="0 0 20 20" xmlns="http://www.w3.org/2000/svg">
	<path d="M4.5,-2.0783375e-13 C5.053,-2.0783375e-13 5.5,0.448 5.5,1 L5.5,1 L5.5,10 L6,10 C6.553,10 7,10.448 7,11 L7,11 L7,19 C7,19.552 6.553,20 6,20 L6,20 L3,20 C2.447,20 2,19.552 2,19 L2,19 L2,11 C2,10.448 2.447,10 3,10 L3,10 L3.5,10 L3.5,1 C3.5,0.448 3.947,-2.0783375e-13 4.5,-2.0783375e-13 Z M11.6702,0.0578 C11.9742,-0.0512 12.3152,-0.0042 12.5812,0.1828 C12.8472,0.3708 13.0042,0.6758 13.0042,0.9998 L13.0042,0.9998 L13.0042,4.2258 C13.0042,4.5018 13.2282,4.7258 13.5052,4.7258 C13.7802,4.7258 14.0042,4.5018 14.0042,4.2258 L14.0042,4.2258 L14.0042,1.0028 C14.0042,0.6778 14.1622,0.3728 14.4282,0.1858 C14.6942,-0.0022 15.0342,-0.0472 15.3402,0.0608 C17.5292,0.8418 19.0002,2.9168 19.0002,5.2258 C19.0002,7.3078 17.8172,9.1868 16.0002,10.1168 L16.0002,10.1168 L16.0002,18.9998 C16.0002,19.5518 15.5532,19.9998 15.0002,19.9998 L15.0002,19.9998 L12.0002,19.9998 C11.4472,19.9998 11.0002,19.5518 11.0002,18.9998 L11.0002,18.9998 L11.0002,10.1168 C9.1822,9.1868 8.0002,7.3078 8.0002,5.2258 C8.0002,2.9118 9.4742,0.8348 11.6702,0.0578 Z M5,12 L4,12 L4,18 L5,18 L5,12 Z M11.0042,2.7918 C10.3752,3.4298 10.0002,4.2988 10.0002,5.2258 C10.0002,6.7108 10.9402,8.0378 12.3412,8.5298 L12.3412,8.5298 L12.3282,8.5668 C12.7182,8.7028 13.0002,9.0638 13.0002,9.4998 L13.0002,9.4998 L13.0002,17.9998 L14.0002,17.9998 L14.0002,9.4998 C14.0002,9.0638 14.2832,8.7028 14.6722,8.5668 L14.6722,8.5668 L14.6592,8.5298 C16.0592,8.0378 17.0002,6.7108 17.0002,5.2258 C17.0002,4.3028 16.6282,3.4378 16.0042,2.7998 L16.0042,2.7998 L16.0042,4.2258 C16.0042,5.6038 14.8832,6.7258 13.5052,6.7258 C12.1262,6.7258 11.0042,5.6038 11.0042,4.2258 L11.0042,4.2258 Z" />
</svg>