<svg id="twitter-filled" viewBox="0 0 20 20" xmlns="http://www.w3.org/2000/svg">
	<path d="M13.9736,7.9585 C13.9816,8.0175 13.9846,8.1055 13.9846,8.2235 C13.9846,8.7695 13.9046,9.3175 13.7446,9.8685 C13.5846,10.4175 13.3396,10.9455 13.0126,11.4495 C12.6836,11.9545 12.2896,12.4005 11.8346,12.7875 C11.3796,13.1745 10.8326,13.4845 10.1956,13.7155 C9.5566,13.9465 8.8726,14.0625 8.1436,14.0625 C7.0116,14.0625 5.9636,13.7545 4.9996,13.1445 C5.1566,13.1625 5.3186,13.1745 5.4886,13.1745 C6.4316,13.1745 7.2826,12.8795 8.0366,12.2945 C7.5946,12.2885 7.1986,12.1515 6.8516,11.8845 C6.5026,11.6175 6.2596,11.2785 6.1226,10.8685 C6.2926,10.8955 6.4196,10.9075 6.5026,10.9075 C6.6476,10.9075 6.8136,10.8815 7.0016,10.8305 C6.5266,10.7385 6.1266,10.5025 5.8016,10.1215 C5.4746,9.7405 5.3136,9.3065 5.3136,8.8185 L5.3136,8.7985 C5.6586,8.9615 5.9836,9.0455 6.2896,9.0525 C5.6976,8.6545 5.4016,8.0855 5.4016,7.3435 C5.4016,6.9795 5.4946,6.6335 5.6826,6.3085 C6.1976,6.9405 6.8226,7.4435 7.5596,7.8215 C8.2946,8.2005 9.0816,8.4115 9.9216,8.4575 C9.8886,8.3325 9.8726,8.1765 9.8726,7.9885 C9.8726,7.4215 10.0736,6.9375 10.4736,6.5385 C10.8736,6.1385 11.3566,5.9375 11.9236,5.9375 C12.5226,5.9375 13.0196,6.1525 13.4176,6.5825 C13.8676,6.4975 14.3026,6.3315 14.7266,6.0835 C14.5646,6.5855 14.2606,6.9655 13.8176,7.2265 C14.2416,7.1685 14.6346,7.0565 14.9996,6.8945 C14.7266,7.3115 14.3846,7.6665 13.9736,7.9585 M9.9996,0.0005 C4.4866,0.0005 -0.000400000001,4.4855 -0.000400000001,10.0005 C-0.000400000001,15.5145 4.4866,20.0005 9.9996,20.0005 C15.5136,20.0005 19.9996,15.5145 19.9996,10.0005 C19.9996,4.4855 15.5136,0.0005 9.9996,0.0005" />
</svg>