<svg id="undo" viewBox="0 0 20 20" xmlns="http://www.w3.org/2000/svg">
	<path d="M9.5 3.00001H8.414L9.707 1.70701C10.098 1.31601 10.098 0.684006 9.707 0.293006C9.316 -0.0979941 8.684 -0.0979941 8.293 0.293006L5.294 3.29201C5.201 3.38501 5.128 3.49501 5.077 3.61801C4.977 3.86201 4.977 4.13801 5.077 4.38201C5.128 4.50501 5.201 4.61501 5.294 4.70801L8.293 7.70701C8.488 7.90201 8.744 8.00001 9 8.00001C9.256 8.00001 9.512 7.90201 9.707 7.70701C10.098 7.31601 10.098 6.68401 9.707 6.29301L8.414 5.00001H9.5C13.084 5.00001 16 7.91601 16 11.5C16 15.084 13.084 18 9.5 18C5.916 18 3 15.084 3 11.5C3 10.948 2.553 10.5 2 10.5C1.447 10.5 1 10.948 1 11.5C1 16.187 4.813 20 9.5 20C14.187 20 18 16.187 18 11.5C18 6.81301 14.187 3.00001 9.5 3.00001Z" />
</svg>