<svg id="upload-success" viewBox="0 0 20 20" xmlns="http://www.w3.org/2000/svg">
	<path d="M15.0275 14.308C15.1645 14.731 15.5565 15 15.9785 15C16.0805 15 16.1845 14.984 16.2875 14.951C18.5755 14.208 19.9965 12.079 19.9965 9.394C19.9965 6.155 17.3605 3.521 14.1215 3.521C14.0835 3.521 14.0455 3.521 14.0085 3.522C12.9805 1.386 10.8455 0 8.47551 0C5.08051 0 2.31751 2.79 2.31751 6.22C2.31751 6.348 2.32251 6.478 2.33151 6.609C0.910512 7.443 -0.000488281 8.984 -0.000488281 10.657C-0.000488281 13.063 1.48151 14.726 3.86751 14.993C4.41951 15.058 4.91151 14.66 4.97251 14.111C5.03451 13.563 4.63851 13.067 4.08951 13.006C2.72251 12.852 1.99951 12.04 1.99951 10.657C1.99951 9.541 2.70851 8.527 3.76451 8.133L4.55851 7.837L4.39651 7.005C4.34351 6.735 4.31751 6.471 4.31751 6.22C4.31751 3.893 6.18251 2 8.47551 2C10.2225 2 11.8425 3.193 12.4155 4.903L12.6855 5.709L13.5245 5.572C13.7175 5.541 13.9165 5.521 14.1215 5.521C16.2575 5.521 17.9965 7.258 17.9965 9.394C17.9965 11.209 17.1265 12.576 15.6695 13.048C15.1445 13.219 14.8565 13.783 15.0275 14.308ZM8.27151 12.7065C8.46651 12.9015 8.72251 12.9995 8.97851 12.9995C9.23451 12.9995 9.49051 12.9015 9.68551 12.7065L13.6855 8.7065C14.0765 8.3155 14.0765 7.6835 13.6855 7.2925C13.2945 6.9015 12.6625 6.9015 12.2715 7.2925L8.97851 10.5855L7.68551 9.2925C7.29451 8.9015 6.66251 8.9015 6.27151 9.2925C5.88051 9.6835 5.88051 10.3155 6.27151 10.7065L8.27151 12.7065Z" />
</svg>