<svg id="upload" viewBox="0 0 20 20" xmlns="http://www.w3.org/2000/svg">
	<path d="M15.9785,15.0005 C15.5565,15.0005 15.1645,14.7315 15.0275,14.3085 C14.8565,13.7835 15.1445,13.2195 15.6695,13.0485 C17.1265,12.5765 17.9965,11.2095 17.9965,9.3945 C17.9965,7.2585 16.2575,5.5215 14.1215,5.5215 C13.9165,5.5215 13.7175,5.5415 13.5245,5.5725 L12.6855,5.7095 L12.4155,4.9035 C11.8425,3.1935 10.2225,2.0005 8.4755,2.0005 C6.1825,2.0005 4.3175,3.8935 4.3175,6.2205 C4.3175,6.4715 4.3435,6.7355 4.3965,7.0055 L4.5585,7.8375 L3.7645,8.1335 C2.7085,8.5275 1.9995,9.5415 1.9995,10.6575 C1.9995,12.0405 2.7225,12.8525 4.0895,13.0065 C4.6385,13.0675 5.0345,13.5635 4.9725,14.1115 C4.9115,14.6605 4.4195,15.0585 3.8675,14.9935 C1.4815,14.7265 -0.000500000002,13.0635 -0.000500000002,10.6575 C-0.000500000002,8.9845 0.9105,7.4435 2.3315,6.6095 C2.3225,6.4785 2.3175,6.3485 2.3175,6.2205 C2.3175,2.7905 5.0805,0.0005 8.4755,0.0005 C10.8455,0.0005 12.9805,1.3865 14.0085,3.5225 C14.0455,3.5215 14.0835,3.5215 14.1215,3.5215 C17.3605,3.5215 19.9965,6.1555 19.9965,9.3945 C19.9965,12.0795 18.5755,14.2085 16.2875,14.9515 C16.1845,14.9845 16.0805,15.0005 15.9785,15.0005 Z M13.6855,10.293 C14.0765,10.684 14.0765,11.316 13.6855,11.707 C13.4905,11.902 13.2345,12 12.9785,12 C12.7225,12 12.4665,11.902 12.2715,11.707 L11.0545,10.49 L10.9785,19.009 C10.9735,19.558 10.5265,20 9.9785,20 L9.9695,20 C9.4165,19.995 8.9735,19.543 8.9785,18.991 L9.0555,10.337 L7.6855,11.707 C7.2945,12.098 6.6625,12.098 6.2715,11.707 C5.8805,11.316 5.8805,10.684 6.2715,10.293 L9.2715,7.293 C9.6625,6.902 10.2945,6.902 10.6855,7.293 L13.6855,10.293 Z" />
</svg>