<svg id="vacation" viewBox="0 0 20 20" xmlns="http://www.w3.org/2000/svg">
	<path d="M2.4272,7.6115 C2.6512,6.9985 2.9562,6.4315 3.3262,5.9165 C2.9982,8.2015 3.6622,10.2045 4.0922,11.1935 L2.3022,12.0275 C1.8642,10.5875 1.9032,9.0505 2.4272,7.6115 M14.8632,6.1705 L13.1102,6.9875 C12.6352,6.0355 11.5492,4.2735 9.6352,3.0575 C10.2302,3.1125 10.8232,3.2175 11.3992,3.4275 C12.8392,3.9515 14.0402,4.9085 14.8632,6.1705 M8.4602,9.1535 C8.4562,9.1545 8.4542,9.1585 8.4502,9.1605 L5.9062,10.3465 C5.4362,9.2385 4.5732,6.4725 6.1582,3.8495 C9.2022,4.3205 10.7542,6.7515 11.2992,7.8315 L8.4722,9.1505 C8.4682,9.1525 8.4642,9.1515 8.4602,9.1535 M18.3752,17.8545 C17.7422,16.9045 16.6842,16.3385 15.5432,16.3385 C14.8132,16.3385 14.1162,16.5705 13.5432,16.9865 C13.3912,16.8765 13.2272,16.7825 13.0572,16.7005 C13.0482,16.6785 13.0512,16.6545 13.0402,16.6325 L10.2112,10.5465 L16.6782,7.5305 C17.1782,7.2975 17.3952,6.7025 17.1612,6.2015 C16.1462,4.0225 14.3422,2.3705 12.0832,1.5485 C9.8232,0.7245 7.3792,0.8325 5.2012,1.8485 C3.0232,2.8645 1.3692,4.6685 0.5472,6.9275 C-0.2748,9.1865 -0.1678,11.6305 0.8482,13.8085 C0.9602,14.0495 1.1632,14.2355 1.4122,14.3255 C1.5232,14.3665 1.6392,14.3865 1.7542,14.3865 C1.8992,14.3865 2.0432,14.3555 2.1772,14.2925 L8.3982,11.3915 L10.7542,16.4595 C10.3192,16.5565 9.9032,16.7265 9.5432,16.9865 C8.3972,16.1535 6.6902,16.1535 5.5432,16.9865 C4.9702,16.5705 4.2742,16.3385 3.5432,16.3385 C2.4032,16.3385 1.3442,16.9045 0.7112,17.8545 C0.4052,18.3135 0.5302,18.9345 0.9892,19.2405 C1.4482,19.5475 2.0702,19.4225 2.3752,18.9635 C2.9052,18.1685 4.1822,18.1685 4.7112,18.9635 C5.0822,19.5205 6.0042,19.5205 6.3752,18.9635 C6.9052,18.1685 8.1822,18.1685 8.7112,18.9635 C9.0822,19.5205 10.0042,19.5205 10.3752,18.9635 C10.9052,18.1685 12.1822,18.1685 12.7112,18.9635 C13.0822,19.5205 14.0042,19.5205 14.3752,18.9635 C14.9052,18.1685 16.1822,18.1685 16.7112,18.9635 C16.9042,19.2525 17.2212,19.4085 17.5442,19.4085 C17.7352,19.4085 17.9272,19.3545 18.0982,19.2405 C18.5572,18.9345 18.6822,18.3135 18.3752,17.8545" />
</svg>