<svg id="view-column" viewBox="0 0 20 20" xmlns="http://www.w3.org/2000/svg">
	<path d="M2,16 L4,16 L4,4 L2,4 L2,16 Z M5,18 L1,18 C0.447,18 0,17.552 0,17 L0,3 C0,2.448 0.447,2 1,2 L5,2 C5.553,2 6,2.448 6,3 L6,17 C6,17.552 5.553,18 5,18 Z M16,16 L18,16 L18,4 L16,4 L16,16 Z M19,18 L15,18 C14.447,18 14,17.552 14,17 L14,3 C14,2.448 14.447,2 15,2 L19,2 C19.553,2 20,2.448 20,3 L20,17 C20,17.552 19.553,18 19,18 Z M9,16 L11,16 L11,4 L9,4 L9,16 Z M12,18 L8,18 C7.447,18 7,17.552 7,17 L7,3 C7,2.448 7.447,2 8,2 L12,2 C12.553,2 13,2.448 13,3 L13,17 C13,17.552 12.553,18 12,18 Z" />
</svg>