<svg id="view-grid" viewBox="0 0 20 20" xmlns="http://www.w3.org/2000/svg">
	<path d="M8,11 C8.553,11 9,11.448 9,12 L9,17 C9,17.552 8.553,18 8,18 L3,18 C2.447,18 2,17.552 2,17 L2,12 C2,11.448 2.447,11 3,11 L8,11 Z M17,11 C17.553,11 18,11.448 18,12 L18,17 C18,17.552 17.553,18 17,18 L12,18 C11.447,18 11,17.552 11,17 L11,12 C11,11.448 11.447,11 12,11 L17,11 Z M7,13 L4,13 L4,16 L7,16 L7,13 Z M16,13 L13,13 L13,16 L16,16 L16,13 Z M8,2 C8.553,2 9,2.448 9,3 L9,8 C9,8.552 8.553,9 8,9 L3,9 C2.447,9 2,8.552 2,8 L2,3 C2,2.448 2.447,2 3,2 L8,2 Z M17,2 C17.553,2 18,2.448 18,3 L18,8 C18,8.552 17.553,9 17,9 L12,9 C11.447,9 11,8.552 11,8 L11,3 C11,2.448 11.447,2 12,2 L17,2 Z M7,4 L4,4 L4,7 L7,7 L7,4 Z M16,4 L13,4 L13,7 L16,7 L16,4 Z" />
</svg>