<svg id="warning" viewBox="0 0 20 20" xmlns="http://www.w3.org/2000/svg">
	<path d="M2.71015695,16.9625 L17.290157,16.9625 L10.000157,4.0025 L2.71015695,16.9625 Z M19.000157,18.9625 L1.00015695,18.9625 C0.645156954,18.9625 0.316156954,18.7745 0.137156954,18.4675 C-0.0428430462,18.1605 -0.0458430462,17.7815 0.129156954,17.4725 L9.12915695,1.4725 C9.48215695,0.8425 10.518157,0.8425 10.871157,1.4725 L19.871157,17.4725 C20.046157,17.7815 20.043157,18.1605 19.863157,18.4675 C19.684157,18.7745 19.356157,18.9625 19.000157,18.9625 Z M10.710157,14.2535 C10.800157,14.3435 10.873157,14.4535 10.927157,14.5805 C10.973157,14.6985 11.000157,14.8355 11.000157,14.9625 C11.000157,15.0985 10.973157,15.2265 10.927157,15.3435 C10.873157,15.4715 10.800157,15.5805 10.710157,15.6715 C10.518157,15.8625 10.264157,15.9625 10.000157,15.9625 C9.86315695,15.9625 9.73715695,15.9355 9.61915695,15.8895 C9.49115695,15.8355 9.38215695,15.7625 9.29015695,15.6715 C9.20015695,15.5805 9.12815695,15.4615 9.07215695,15.3435 C9.02615695,15.2265 9.00015695,15.0985 9.00015695,14.9625 C9.00015695,14.8355 9.02615695,14.6985 9.07215695,14.5805 C9.10015695,14.5165 9.12815695,14.4625 9.16415695,14.4075 C9.20015695,14.3535 9.24615695,14.2985 9.29015695,14.2535 C9.52615695,14.0255 9.87315695,13.9175 10.191157,13.9805 L10.382157,14.0345 C10.446157,14.0625 10.500157,14.0985 10.555157,14.1345 C10.609157,14.1715 10.663157,14.2075 10.710157,14.2535 Z M10.000257,12.9625 C9.44725695,12.9625 9.00025695,12.5145 9.00025695,11.9625 L9.00025695,8.9625 C9.00025695,8.4105 9.44725695,7.9625 10.000257,7.9625 C10.553257,7.9625 11.000257,8.4105 11.000257,8.9625 L11.000257,11.9625 C11.000257,12.5145 10.553257,12.9625 10.000257,12.9625 Z" />
</svg>