<svg id="wechat-filled" viewBox="0 0 20 20" xmlns="http://www.w3.org/2000/svg">
	<path d="M9.9995,0 C15.5225,0 19.9995,4.477 19.9995,10 C19.9995,15.523 15.5225,20 9.9995,20 C4.4775,20 -0.0005,15.523 -0.0005,10 C-0.0005,4.477 4.4775,0 9.9995,0 Z M15.7915,9.984 C14.5845,8.428 12.0755,8.054 10.3635,9.176 C8.4375,10.437 8.2005,12.798 9.8645,14.337 C10.7405,15.146 11.8005,15.477 12.9865,15.355 C13.3745,15.316 13.7655,15.101 14.1375,15.14 C14.5105,15.179 14.8615,15.434 15.2435,15.604 C15.2175,15.503 15.2125,15.401 15.1675,15.321 C14.9295,14.886 15.0635,14.614 15.4355,14.284 C16.7205,13.143 16.8445,11.342 15.7915,9.984 Z M11.7815,6.176 C10.6105,4.647 8.4465,4.006 6.5205,4.635 C5.1105,5.096 4.0725,5.98 3.6495,7.437 C3.1925,9.013 3.8025,10.544 5.2505,11.567 C5.4765,11.726 5.5105,11.863 5.4375,12.107 C5.3365,12.441 5.2805,12.787 5.1935,13.183 C5.6695,12.885 6.0725,12.617 6.4915,12.381 C6.6185,12.309 6.7945,12.292 6.9445,12.304 C7.3755,12.341 7.8055,12.405 8.2775,12.463 C8.1695,11.195 8.5635,10.172 9.4235,9.337 C10.2755,8.51 11.3255,8.144 12.5325,8.081 C12.4625,7.348 12.2045,6.728 11.7815,6.176 Z M10.8965,10.4939 C11.1515,10.4949 11.3555,10.7079 11.3455,10.9629 C11.3365,11.2029 11.1365,11.3929 10.8935,11.3929 C10.6525,11.3929 10.4505,11.1989 10.4415,10.9599 C10.4335,10.7089 10.6445,10.4929 10.8965,10.4939 Z M13.6973,10.4949 C13.9493,10.4969 14.1463,10.7079 14.1373,10.9629 C14.1293,11.2059 13.9353,11.3909 13.6913,11.3899 C13.4393,11.3899 13.2413,11.1799 13.2513,10.9249 C13.2603,10.6859 13.4613,10.4929 13.6973,10.4949 Z M9.8756,7.0336 C10.1786,7.0286 10.4236,7.2646 10.4266,7.5656 C10.4296,7.8716 10.1976,8.1096 9.8906,8.1126 C9.5836,8.1166 9.3366,7.8816 9.3316,7.5816 C9.3266,7.2926 9.5786,7.0386 9.8756,7.0336 Z M6.4424,7.0335 C6.7394,7.0425 6.9894,7.3025 6.9784,7.5905 C6.9664,7.8855 6.7134,8.1175 6.4094,8.1105 C6.1034,8.1025 5.8714,7.8595 5.8804,7.5555 C5.8884,7.2565 6.1384,7.0245 6.4424,7.0335 Z" />
</svg>