<svg id="weibo-filled" viewBox="0 0 20 20" xmlns="http://www.w3.org/2000/svg">
	<path d="M10,-0.0002 C15.522,-0.0002 20,4.4768 20,9.9998 C20,15.5228 15.522,19.9998 10,19.9998 C4.478,19.9998 -3.55271368e-15,15.5228 -3.55271368e-15,9.9998 C-3.55271368e-15,4.4768 4.478,-0.0002 10,-0.0002 Z M9.703,6.4948 C8.985,5.7758 7.076,6.5218 5.438,8.1588 C4.212,9.3848 3.5,10.6848 3.5,11.8088 C3.5,13.9588 6.257,15.2648 8.954,15.2648 C12.489,15.2648 14.842,13.2108 14.842,11.5808 C14.842,10.5948 14.012,10.0358 13.266,9.8048 C13.083,9.7498 12.957,9.7128 13.053,9.4718 C13.261,8.9498 13.282,8.4988 13.057,8.1778 C12.635,7.5748 11.48,7.6068 10.156,8.1618 C10.156,8.1608 9.741,8.3428 9.848,8.0138 C10.051,7.3588 10.02,6.8108 9.703,6.4948 Z M8.4547,9.3784 C10.6077,9.1654 12.4647,10.1384 12.6057,11.5504 C12.7437,12.9634 11.1137,14.2814 8.9607,14.4954 C6.8087,14.7074 4.9507,13.7344 4.8117,12.3214 C4.6717,10.9084 6.3037,9.5914 8.4547,9.3784 Z M9.1757,10.4654 C8.1527,10.1994 6.9937,10.7094 6.5497,11.6114 C6.0967,12.5324 6.5347,13.5534 7.5697,13.8884 C8.6407,14.2334 9.9047,13.7044 10.3437,12.7104 C10.7777,11.7394 10.2367,10.7394 9.1757,10.4654 Z M7.1843,12.2806 C7.3893,11.9576 7.8203,11.8136 8.1543,11.9536 C8.4913,12.0976 8.5983,12.4806 8.3943,12.8166 C8.1853,13.1486 7.7403,13.2936 7.4043,13.1406 C7.0733,12.9896 6.9753,12.6036 7.1843,12.2806 Z M8.9085963,11.5971852 L8.9743,11.6135 C9.1053,11.6605 9.1513,11.8065 9.0803,11.9355 C9.0043,12.0645 8.8383,12.1265 8.7083,12.0725 C8.5803,12.0205 8.5393,11.8755 8.6123,11.7495 C8.6873,11.6245 8.8473,11.5625 8.9743,11.6135 Z M15.613,5.8708 C14.76,4.9238 13.5,4.5628 12.338,4.8098 C12.068,4.8678 11.897,5.1318 11.955,5.4008 C12.012,5.6698 12.276,5.8408 12.545,5.7838 C13.372,5.6078 14.268,5.8648 14.875,6.5368 C15.461,7.1868 15.655,8.0988 15.386,8.9308 L15.386,8.9308 L15.3659602,9.01850782 C15.3342346,9.25261481 15.473,9.48224444 15.705,9.5578 L15.705,9.5578 C15.968,9.6418 16.248,9.4988 16.333,9.2378 L16.333,9.2378 C16.697,8.1048 16.468,6.8158 15.613,5.8708 Z M14.302,7.0538 C13.887,6.5928 13.273,6.4178 12.707,6.5378 C12.474,6.5808 12.32,6.8038 12.362,7.0368 C12.405,7.2688 12.628,7.4238 12.861,7.3808 L12.861,7.3808 L12.885,7.3758 L12.9928789,7.36021406 C13.2446875,7.34069062 13.493625,7.437925 13.666,7.6278 C13.862,7.8448 13.927,8.1508 13.836,8.4298 L13.836,8.4298 C13.764,8.6548 13.887,8.8968 14.112,8.9688 C14.338,9.0418 14.579,8.9188 14.652,8.6938 C14.83,8.1418 14.719,7.5148 14.302,7.0538 Z" />
</svg>