<svg id="whatsapp-filled" viewBox="0 0 20 20" xmlns="http://www.w3.org/2000/svg">
	<path d="M10.0004,-0.0002 C4.4864,-0.0002 0.000400000001,4.4858 0.000400000001,9.9998 C0.000400000001,15.5138 4.4864,19.9998 10.0004,19.9998 C15.5134,19.9998 20.0004,15.5138 20.0004,9.9998 C20.0004,4.4858 15.5134,-0.0002 10.0004,-0.0002 M10.0254,15.9248 L10.0214,15.9248 C9.0234,15.9238 8.0404,15.6738 7.1674,15.1968 L4.0004,16.0288 L4.8474,12.9318 C4.3264,12.0268 4.0494,10.9988 4.0494,9.9458 C4.0504,6.6518 6.7324,3.9718 10.0254,3.9718 C11.6234,3.9728 13.1234,4.5948 14.2504,5.7238 C15.3794,6.8528 16.0004,8.3548 16.0004,9.9508 C15.9984,13.2438 13.3174,15.9248 10.0254,15.9248 Z M10.0272,4.9811 C7.2872,4.9811 5.0592,7.2081 5.0592,9.9461 C5.0572,10.8841 5.3212,11.7981 5.8192,12.5881 L5.9362,12.7771 L5.4342,14.6091 L7.3142,14.1161 L7.4962,14.2241 C8.2582,14.6761 9.1332,14.9151 10.0232,14.9151 L10.0252,14.9151 C12.7622,14.9151 14.9892,12.6881 14.9892,9.9511 C14.9912,8.6231 14.4752,7.3751 13.5382,6.4371 C12.5992,5.4981 11.3522,4.9821 10.0272,4.9811 Z M12.9492,12.0811 C12.8222,12.4301 12.2272,12.7481 11.9402,12.7901 C11.6832,12.8291 11.3582,12.8451 10.9992,12.7321 C10.7832,12.6631 10.5052,12.5711 10.1482,12.4171 C8.6512,11.7711 7.6742,10.2631 7.5982,10.1631 C7.5232,10.0631 6.9892,9.3541 6.9892,8.6191 C6.9892,7.8831 7.3752,7.5231 7.5122,7.3731 C7.6482,7.2251 7.8102,7.1861 7.9102,7.1861 C8.0112,7.1861 8.1092,7.1871 8.1952,7.1921 C8.2872,7.1971 8.4112,7.1571 8.5322,7.4481 C8.6552,7.7471 8.9552,8.4821 8.9912,8.5571 C9.0302,8.6311 9.0532,8.7191 9.0042,8.8171 C8.9552,8.9171 8.9292,8.9791 8.8542,9.0661 C8.7812,9.1541 8.6982,9.2611 8.6312,9.3281 C8.5552,9.4031 8.4782,9.4841 8.5662,9.6331 C8.6532,9.7831 8.9532,10.2721 9.3952,10.6671 C9.9672,11.1761 10.4462,11.3331 10.5962,11.4091 C10.7472,11.4831 10.8332,11.4711 10.9212,11.3711 C11.0072,11.2711 11.2942,10.9351 11.3922,10.7861 C11.4922,10.6361 11.5932,10.6611 11.7292,10.7111 C11.8652,10.7611 12.5992,11.1221 12.7492,11.1971 C12.8972,11.2711 12.9962,11.3091 13.0352,11.3711 C13.0712,11.4331 13.0712,11.7321 12.9492,12.0811 Z" />
</svg>