<svg id="whatsapp" viewBox="0 0 20 20" xmlns="http://www.w3.org/2000/svg">
	<path d="M-9.76548e-05 10C-9.76548e-05 4.5 4.4999 0 9.9999 0C15.4999 0 19.9999 4.5 19.9999 10C19.9999 15.5 15.4999 20 9.9999 20C8.4999 20 7.0999 19.7 5.7999 19.1L1.1999 20H0.999902C0.699902 20 0.499902 19.9 0.299902 19.7C-9.76622e-05 19.5 -0.100098 19.1 -9.76548e-05 18.8L0.899902 14.2C0.299902 12.9 -9.76548e-05 11.5 -9.76548e-05 10ZM6.3999 17.1C7.4999 17.7 8.6999 18 9.9999 18C14.3999 18 17.9999 14.4 17.9999 10C17.9999 5.6 14.3999 2 9.9999 2C5.5999 2 1.9999 5.6 1.9999 10C1.9999 11.3 2.2999 12.5 2.8999 13.6C2.9999 13.8 2.9999 14.1 2.9999 14.3L2.1999 17.7L5.6999 17H5.8999C5.9999 17 6.0749 17.025 6.1499 17.05C6.2249 17.075 6.2999 17.1 6.3999 17.1ZM13.65 11.6C14.025 11.775 14.4 11.95 14.5 12C14.7 12.1 14.9 12.2 15 12.1C15.1 12.2 15.1 12.7 14.9 13.3C14.7 13.9 13.7 14.4 13.2 14.5C12.7 14.6 12.2 14.6 11.6 14.4L11.6 14.4C11.2 14.3 10.8 14.2 10.2 13.9C7.7 12.9 6.1 10.4 6 10.2C5.9 10.1 5 8.90001 5 7.70001C5 6.50001 5.6 5.90001 5.8 5.70001C6.1 5.50001 6.3 5.40001 6.5 5.40001H7C7.01287 5.40001 7.02739 5.39835 7.04335 5.39653C7.15147 5.38421 7.32573 5.36434 7.5 5.80001C7.7 6.30001 8.2 7.50001 8.3 7.60001C8.3 7.63029 8.30917 7.66056 8.31918 7.69362C8.34222 7.76973 8.36972 7.86056 8.3 8.00001C8.25 8.10001 8.225 8.17501 8.2 8.25001C8.175 8.32501 8.15 8.40001 8.1 8.50001L7.7 8.90001C7.6 9.00001 7.5 9.10001 7.5 9.50001C7.56967 9.56968 7.67573 9.71214 7.81397 9.89783C8.0726 10.2452 8.44383 10.7438 8.9 11.2C9.75481 11.8839 10.4635 12.2024 10.7762 12.3429C10.8293 12.3668 10.871 12.3855 10.9 12.4C11.1 12.5 11.3 12.5 11.4 12.3C11.5 12.2 11.65 12 11.8 11.8C11.95 11.6 12.1 11.4 12.2 11.3C12.4 11.1 12.6 11.1 12.8 11.2C12.9 11.25 13.275 11.425 13.65 11.6Z" />
</svg>