<svg id="xing-filled" viewBox="0 0 20 20" xmlns="http://www.w3.org/2000/svg">
	<path d="M14.9639,4.4946 L11.2119,11.1286 C11.2089,11.1326 11.2089,11.1366 11.2119,11.1406 L13.6009,15.5046 C13.6489,15.5986 13.6499,15.6946 13.6049,15.7666 C13.5619,15.8366 13.4819,15.8746 13.3789,15.8746 L11.6869,15.8746 C11.4269,15.8746 11.2969,15.7026 11.2129,15.5526 C11.2129,15.5526 8.8119,11.1466 8.8049,11.1346 C8.9259,10.9226 12.5759,4.4476 12.5759,4.4476 C12.6669,4.2846 12.7769,4.1246 13.0299,4.1246 L14.7419,4.1246 C14.8439,4.1246 14.9239,4.1626 14.9669,4.2326 C15.0119,4.3056 15.0109,4.4006 14.9639,4.4946 M6.9499,12.3576 L5.2559,12.3576 C5.1539,12.3576 5.0779,12.3116 5.0339,12.2426 C4.9899,12.1696 4.9869,12.0756 5.0339,11.9826 L6.8349,8.8046 C6.8369,8.8016 6.8369,8.7986 6.8349,8.7946 L5.6899,6.8116 C5.6419,6.7176 5.6349,6.6236 5.6799,6.5516 C5.7229,6.4816 5.8089,6.4456 5.9099,6.4456 L7.6059,6.4456 C7.8649,6.4456 7.9919,6.6136 8.0769,6.7636 C8.0769,6.7636 9.2349,8.7836 9.2419,8.7946 C9.1739,8.9156 7.4129,12.0306 7.4129,12.0306 C7.3259,12.1866 7.2039,12.3576 6.9499,12.3576 M9.9999,-0.0004 C4.4779,-0.0004 -0.0001,4.4766 -0.0001,9.9996 C-0.0001,15.5226 4.4779,19.9996 9.9999,19.9996 C15.5229,19.9996 19.9999,15.5226 19.9999,9.9996 C19.9999,4.4766 15.5229,-0.0004 9.9999,-0.0004" />
</svg>