<svg id="yen" viewBox="0 0 20 20" xmlns="http://www.w3.org/2000/svg">
	<path d="M15.5302,1.1523 C15.0612,0.8593 14.4452,1.0033 14.1522,1.4703 L10.0002,8.1143 L5.8472,1.4703 C5.5552,1.0033 4.9382,0.8593 4.4692,1.1523 C4.0022,1.4453 3.8592,2.0623 4.1522,2.5303 L8.1962,9.0003 L7.0002,9.0003 C6.4472,9.0003 6.0002,9.4483 6.0002,10.0003 C6.0002,10.5523 6.4472,11.0003 7.0002,11.0003 L9.0002,11.0003 L9.0002,12.0003 L7.0002,12.0003 C6.4472,12.0003 6.0002,12.4483 6.0002,13.0003 C6.0002,13.5523 6.4472,14.0003 7.0002,14.0003 L9.0002,14.0003 L9.0002,18.0003 C9.0002,18.5523 9.4472,19.0003 10.0002,19.0003 C10.5522,19.0003 11.0002,18.5523 11.0002,18.0003 L11.0002,14.0003 L13.0002,14.0003 C13.5522,14.0003 14.0002,13.5523 14.0002,13.0003 C14.0002,12.4483 13.5522,12.0003 13.0002,12.0003 L11.0002,12.0003 L11.0002,11.0003 L13.0002,11.0003 C13.5522,11.0003 14.0002,10.5523 14.0002,10.0003 C14.0002,9.4483 13.5522,9.0003 13.0002,9.0003 L11.8032,9.0003 L15.8472,2.5303 C16.1402,2.0623 15.9982,1.4453 15.5302,1.1523" />
</svg>