<svg id="youtube-filled" viewBox="0 0 20 20" xmlns="http://www.w3.org/2000/svg">
	<path d="M14.791,12.4224 C15,11.6374 15,10.0004 15,10.0004 C15,10.0004 15,8.3624 14.791,7.5774 C14.676,7.1444 14.337,6.8034 13.907,6.6874 C13.127,6.4774 10,6.4774 10,6.4774 C10,6.4774 6.873,6.4774 6.093,6.6874 C5.663,6.8034 5.324,7.1444 5.209,7.5774 C5,8.3624 5,10.0004 5,10.0004 C5,10.0004 5,11.6374 5.209,12.4224 C5.324,12.8554 5.663,13.1964 6.093,13.3124 C6.873,13.5224 10,13.5224 10,13.5224 C10,13.5224 13.127,13.5224 13.907,13.3124 C14.337,13.1964 14.676,12.8554 14.791,12.4224 Z M10,0.0004 C15.514,0.0004 20,4.4854 20,10.0004 C20,15.5144 15.514,20.0004 10,20.0004 C4.486,20.0004 0,15.5144 0,10.0004 C0,4.4854 4.486,0.0004 10,0.0004 Z M8.9775,11.4868 L8.9775,8.5128 L11.5905,9.9998 L8.9775,11.4868 Z" />
</svg>