<svg id="account-40" viewBox="0 0 40 40" xmlns="http://www.w3.org/2000/svg">
	<path d="M11.5498,12 C11.5498,7.589 15.1388,4 19.5498,4 C23.9608,4 27.5498,7.589 27.5498,12 C27.5498,16.411 23.9608,20 19.5498,20 C15.1388,20 11.5498,16.411 11.5498,12 M22.4968,21.557 C26.5808,20.299 29.5498,16.497 29.5498,12 C29.5498,6.477 25.0718,2 19.5498,2 C14.0278,2 9.5498,6.477 9.5498,12 C9.5498,16.497 12.5188,20.299 16.6028,21.557 C9.9878,22.923 4.9998,28.793 4.9998,35.806 L4.9998,37.5 C4.9998,38.052 5.4468,38.5 5.9998,38.5 C6.5528,38.5 6.9998,38.052 6.9998,37.5 L6.9998,35.806 C6.9998,28.886 12.6298,23.256 19.5498,23.256 C26.4698,23.256 32.0998,28.886 32.0998,35.806 L32.0998,37.5 C32.0998,38.052 32.5468,38.5 33.0998,38.5 C33.6528,38.5 34.0998,38.052 34.0998,37.5 L34.0998,35.806 C34.0998,28.793 29.1118,22.923 22.4968,21.557" />
</svg>