<svg id="account-circle-30" viewBox="0 0 30 30" xmlns="http://www.w3.org/2000/svg">
	<path d="M23.3408,24.9585 C22.7398,21.8655 20.4618,19.3665 17.4908,18.4535 C19.5608,17.5065 20.9998,15.4235 20.9998,13.0005 C20.9998,9.6865 18.3138,7.0005 14.9998,7.0005 C11.6868,7.0005 8.9998,9.6865 8.9998,13.0005 C8.9998,15.4235 10.4398,17.5065 12.5088,18.4535 C9.5378,19.3665 7.2598,21.8655 6.6588,24.9585 C3.8148,22.5715 1.9998,18.9955 1.9998,15.0005 C1.9998,7.8325 7.8318,2.0005 14.9998,2.0005 C22.1678,2.0005 27.9998,7.8325 27.9998,15.0005 C27.9998,18.9955 26.1858,22.5715 23.3408,24.9585 M10.9998,13.0005 C10.9998,10.7945 12.7948,9.0005 14.9998,9.0005 C17.2048,9.0005 18.9998,10.7945 18.9998,13.0005 C18.9998,15.2055 17.2048,17.0005 14.9998,17.0005 C12.7948,17.0005 10.9998,15.2055 10.9998,13.0005 M8.5168,26.2505 C8.6898,22.8195 11.5268,20.0795 14.9998,20.0795 C18.4738,20.0795 21.3108,22.8195 21.4838,26.2505 C19.5718,27.3565 17.3618,28.0005 14.9998,28.0005 C12.6378,28.0005 10.4278,27.3565 8.5168,26.2505 M14.9998,0.0005 C6.7158,0.0005 -0.0002,6.7155 -0.0002,15.0005 C-0.0002,23.2845 6.7158,30.0005 14.9998,30.0005 C23.2838,30.0005 29.9998,23.2845 29.9998,15.0005 C29.9998,6.7155 23.2838,0.0005 14.9998,0.0005" />
</svg>