<svg id="arrow-left-30" viewBox="0 0 30 30" xmlns="http://www.w3.org/2000/svg">
	<path d="M27,14.1045 L5.395,14.1045 L12.71,6.7035 C13.099,6.3105 13.095,5.6775 12.702,5.2885 C12.309,4.9005 11.676,4.9045 11.288,5.2965 L2.289,14.4015 C1.9,14.7945 1.904,15.4275 2.297,15.8155 L11.296,24.7115 C11.491,24.9045 11.745,25.0005 11.999,25.0005 C12.257,25.0005 12.515,24.9015 12.71,24.7045 C13.099,24.3115 13.095,23.6785 12.702,23.2905 L5.434,16.1045 L27,16.1045 C27.553,16.1045 28,15.6565 28,15.1045 C28,14.5525 27.553,14.1045 27,14.1045" />
</svg>