<svg id="arrow-up-30" viewBox="0 0 30 30" xmlns="http://www.w3.org/2000/svg">
	<path d="M15.896,27.0002673 L15.896,5.39526726 L23.297,12.7102673 C23.69,13.0992673 24.323,13.0952673 24.711,12.7022673 C25.099,12.3092673 25.096,11.6762673 24.704,11.2882673 L15.599,2.28926726 C15.206,1.90026726 14.573,1.90426726 14.185,2.29726726 L5.289,11.2962673 C5.095,11.4912673 5,11.7452673 5,11.9992673 C5,12.2572673 5.098,12.5152673 5.296,12.7102673 C5.689,13.0992673 6.322,13.0952673 6.71,12.7022673 L13.896,5.43426726 L13.896,27.0002673 C13.896,27.5532673 14.343,28.0002673 14.896,28.0002673 C15.448,28.0002673 15.896,27.5532673 15.896,27.0002673" />
</svg>