<svg id="arrow-right-30" viewBox="0 0 30 30" xmlns="http://www.w3.org/2000/svg">
	<path d="M3,15.8965 L24.605,15.8965 L17.29,23.2975 C16.901,23.6905 16.905,24.3235 17.298,24.7125 C17.691,25.1005 18.324,25.0965 18.712,24.7045 L27.711,15.5995 C28.1,15.2065 28.096,14.5735 27.703,14.1855 L18.704,5.2895 C18.509,5.0965 18.255,5.0005 18.001,5.0005 C17.743,5.0005 17.485,5.0995 17.29,5.2965 C16.901,5.6895 16.905,6.3225 17.298,6.7105 L24.566,13.8965 L3,13.8965 C2.447,13.8965 2,14.3445 2,14.8965 C2,15.4485 2.447,15.8965 3,15.8965" />
</svg>