<svg id="briefcase-strikethrough-30" viewBox="0 0 30 30" xmlns="http://www.w3.org/2000/svg">
	<path d="M28.2,3.478 C27.809,3.088 27.177,3.088 26.786,3.478 L1.897,28.298 C1.507,28.687 1.507,29.318 1.897,29.708 C2.093,29.902 2.348,30 2.604,30 C2.86,30 3.116,29.902 3.311,29.708 L28.2,4.888 C28.591,4.499 28.591,3.868 28.2,3.478 L28.2,3.478 Z M9.777,3.992 C9.777,3.442 10.225,2.995 10.777,2.995 L19.222,2.995 C19.774,2.995 20.222,3.442 20.222,3.992 L20.222,7.205 L9.777,7.205 L9.777,3.992 Z M2,25.82 L2,14.364 C5.263,15.686 8.627,16.496 12.014,16.798 L13.917,14.901 C9.882,14.764 5.859,13.869 2,12.197 L2,9.199 L19.635,9.199 L22.222,6.619 L22.222,3.992 C22.222,2.342 20.877,1 19.222,1 L10.777,1 C9.123,1 7.777,2.342 7.777,3.992 L7.777,7.205 L1,7.205 C0.447,7.205 0,7.651 0,8.202 L0,26.817 C0,27.368 0.447,27.814 1,27.814 L1.009,27.814 C1.065,27.739 1.121,27.662 1.19,27.593 L2.968,25.82 L2,25.82 Z M29,7.205 L27.291,7.205 L25.291,9.199 L28,9.199 L28,12.197 C25.369,13.337 22.664,14.12 19.929,14.546 L17.646,16.823 C21.148,16.546 24.629,15.73 28,14.364 L28,25.82 L8.624,25.82 L6.624,27.814 L29,27.814 C29.553,27.814 30,27.368 30,26.817 L30,8.202 C30,7.651 29.553,7.205 29,7.205 L29,7.205 Z" />
</svg>