<svg id="bullet-list-16" viewBox="0 0 16 16" xmlns="http://www.w3.org/2000/svg">
	<path d="M5.75,3.75 C5.197,3.75 4.75,3.302 4.75,2.75 C4.75,2.198 5.197,1.75 5.75,1.75 L14.75,1.75 C15.303,1.75 15.75,2.198 15.75,2.75 C15.75,3.302 15.303,3.75 14.75,3.75 L5.75,3.75 Z M14.75,6.75 C15.303,6.75 15.75,7.198 15.75,7.75 C15.75,8.302 15.303,8.75 14.75,8.75 L5.75,8.75 C5.197,8.75 4.75,8.302 4.75,7.75 C4.75,7.198 5.197,6.75 5.75,6.75 L14.75,6.75 Z M14.75,11.75 C15.303,11.75 15.75,12.198 15.75,12.75 C15.75,13.302 15.303,13.75 14.75,13.75 L5.75,13.75 C5.197,13.75 4.75,13.302 4.75,12.75 C4.75,12.198 5.197,11.75 5.75,11.75 L14.75,11.75 Z M1.75,1.5 C2.441,1.5 3,2.06 3,2.75 C3,3.44 2.441,4 1.75,4 C1.059,4 0.5,3.44 0.5,2.75 C0.5,2.06 1.059,1.5 1.75,1.5 Z M1.75,6.5 C2.441,6.5 3,7.06 3,7.75 C3,8.44 2.441,9 1.75,9 C1.059,9 0.5,8.44 0.5,7.75 C0.5,7.06 1.059,6.5 1.75,6.5 Z M1.75,11.5 C2.441,11.5 3,12.06 3,12.75 C3,13.44 2.441,14 1.75,14 C1.059,14 0.5,13.44 0.5,12.75 C0.5,12.06 1.059,11.5 1.75,11.5 Z" />
</svg>