<svg id="close-8" viewBox="0 0 8 8" xmlns="http://www.w3.org/2000/svg">
	<path d="M5.4141,4 L7.7071,1.707 C8.0981,1.316 8.0981,0.684 7.7071,0.293 C7.3161,-0.098 6.6841,-0.098 6.2931,0.293 L4.0001,2.586 L1.7071,0.293 C1.3161,-0.098 0.6841,-0.098 0.2931,0.293 C-0.0979,0.684 -0.0979,1.316 0.2931,1.707 L2.5861,4 L0.2931,6.293 C-0.0979,6.684 -0.0979,7.316 0.2931,7.707 C0.4881,7.902 0.7441,8 1.0001,8 C1.2561,8 1.5121,7.902 1.7071,7.707 L4.0001,5.414 L6.2931,7.707 C6.4881,7.902 6.7441,8 7.0001,8 C7.2561,8 7.5121,7.902 7.7071,7.707 C8.0981,7.316 8.0981,6.684 7.7071,6.293 L5.4141,4 Z" />
</svg>