<svg id="close-16" viewBox="0 0 16 16" xmlns="http://www.w3.org/2000/svg">
	<path d="M9.4141,8 L13.7071,3.707 C14.0981,3.316 14.0981,2.684 13.7071,2.293 C13.3161,1.902 12.6841,1.902 12.2931,2.293 L8.0001,6.586 L3.7071,2.293 C3.3161,1.902 2.6841,1.902 2.2931,2.293 C1.9021,2.684 1.9021,3.316 2.2931,3.707 L6.5861,8 L2.2931,12.293 C1.9021,12.684 1.9021,13.316 2.2931,13.707 C2.4881,13.902 2.7441,14 3.0001,14 C3.2561,14 3.5121,13.902 3.7071,13.707 L8.0001,9.414 L12.2931,13.707 C12.4881,13.902 12.7441,14 13.0001,14 C13.2561,14 13.5121,13.902 13.7071,13.707 C14.0981,13.316 14.0981,12.684 13.7071,12.293 L9.4141,8 Z" />
</svg>