<svg id="close-30" viewBox="0 0 30 30" xmlns="http://www.w3.org/2000/svg">
	<path d="M16.4141,15 L25.7071,5.707 C26.0981,5.316 26.0981,4.684 25.7071,4.293 C25.3161,3.902 24.6841,3.902 24.2931,4.293 L15.0001,13.586 L5.7071,4.293 C5.3161,3.902 4.6841,3.902 4.2931,4.293 C3.9021,4.684 3.9021,5.316 4.2931,5.707 L13.5861,15 L4.2931,24.293 C3.9021,24.684 3.9021,25.316 4.2931,25.707 C4.4881,25.902 4.7441,26 5.0001,26 C5.2561,26 5.5121,25.902 5.7071,25.707 L15.0001,16.414 L24.2931,25.707 C24.4881,25.902 24.7441,26 25.0001,26 C25.2561,26 25.5121,25.902 25.7071,25.707 C26.0981,25.316 26.0981,24.684 25.7071,24.293 L16.4141,15 Z" />
</svg>