<svg id="facebook-filled-30" viewBox="0 0 30 30" xmlns="http://www.w3.org/2000/svg">
	<path d="M19.6699,8.9902 L17.9699,8.9902 C16.6399,8.9902 16.3799,9.6192 16.3799,10.5472 L16.3799,12.5912 L19.5609,12.5912 L19.1479,15.8002 L16.3799,15.8002 L16.3799,24.0002 L13.0899,24.0002 L13.0899,15.8002 L10.3299,15.8002 L10.3299,12.5912 L13.0899,12.5912 L13.0899,10.2292 C13.0899,7.4912 14.7569,6.0002 17.2019,6.0002 C18.0259,5.9982 18.8509,6.0392 19.6699,6.1242 L19.6699,8.9902 Z M14.9999,0.0002 C6.7299,0.0002 -0.000100000001,6.7292 -0.000100000001,15.0002 C-0.000100000001,23.2712 6.7299,30.0002 14.9999,30.0002 C23.2709,30.0002 29.9999,23.2712 29.9999,15.0002 C29.9999,6.7292 23.2709,0.0002 14.9999,0.0002 Z" />
</svg>