<svg id="google-filled-30" viewBox="0 0 30 30" xmlns="http://www.w3.org/2000/svg">
	<path d="M14.9971,23.3369 C10.3941,23.3369 6.6601,19.6019 6.6601,14.9999 C6.6601,10.3979 10.3941,6.6629 14.9971,6.6629 C17.2481,6.6629 19.1321,7.4889 20.5741,8.8389 L18.2061,11.1399 C17.6061,10.5729 16.5561,9.9059 14.9971,9.9059 C12.2371,9.9059 9.9861,12.1989 9.9861,15.0079 C9.9861,17.8179 12.2371,20.1099 14.9971,20.1099 C18.1891,20.1099 19.3651,17.9009 19.5821,16.5919 L14.9881,16.5919 L14.9881,16.5839 L14.9881,13.4829 L22.7911,13.4829 C22.9081,14.0079 23.0001,14.4999 23.0001,15.1919 C23.0001,19.9519 19.8071,23.3369 14.9971,23.3369 M15.0001,-0.0001 C6.7291,-0.0001 0.0001,6.7289 0.0001,14.9999 C0.0001,23.2709 6.7291,29.9999 15.0001,29.9999 C23.2701,29.9999 30.0001,23.2709 30.0001,14.9999 C30.0001,6.7289 23.2701,-0.0001 15.0001,-0.0001" />
</svg>