<svg id="heart-30" viewBox="0 0 30 30" xmlns="http://www.w3.org/2000/svg">
	<path d="M14.9980923,26.4994122 C15.8420923,26.5314122 16.8500923,26.0004122 17.3930923,25.4904122 C17.9910923,25.0014122 18.3960923,24.5904122 18.8260923,24.1554122 L19.2620923,23.7164122 C20.3790923,22.5804122 21.5060923,21.3704122 22.6010923,20.1284122 C23.8950923,18.6574122 24.8550923,17.4784122 25.7100923,16.3064122 C26.1420923,15.6964122 26.6410923,14.9924122 27.0630923,14.2134122 C27.2490923,13.8984122 27.4260923,13.5154122 27.6220923,13.0064122 C27.7440923,12.6674122 27.8380923,12.2844122 27.9180923,11.7834122 C28.1750923,10.0514122 27.8330923,8.28641225 26.9540923,6.82441225 C26.0410923,5.27841225 24.5750923,4.14741225 22.9280923,3.71441225 C21.2370923,3.24941225 19.3610923,3.54641225 17.9000923,4.50341225 C17.1630923,4.97841225 16.5330923,5.57841225 16.0200923,6.29041225 L15.0070923,7.82741225 L13.9510923,6.25241225 C13.4600923,5.57141225 12.8110923,4.95841225 12.0910923,4.49941225 C10.6200923,3.54241225 8.74309228,3.25041225 7.06409228,3.71741225 C5.40709228,4.15941225 3.94409228,5.29241225 3.04109228,6.83141225 C2.16209228,8.29941225 1.82409228,10.0644122 2.08509228,11.8064122 C2.14609228,12.1814122 2.22809228,12.6024122 2.38809228,13.0374122 C2.56409228,13.4974122 2.74709228,13.8914122 2.92609228,14.1944122 C3.36709228,15.0024122 3.86509228,15.7044122 4.30509228,16.3224122 C5.37009228,17.7834122 6.52109228,19.1284122 7.40609228,20.1354122 C8.53409228,21.4104122 9.62909228,22.5854122 10.7520923,23.7274122 L11.1410923,24.1174122 C11.5870923,24.5674122 12.0080923,24.9924122 12.5490923,25.4404122 C12.6100923,25.4854122 12.7080923,25.5624122 12.8070923,25.6424122 C13.0650923,25.8484122 13.2890923,26.0264122 13.6420923,26.1944122 C14.0620923,26.3954122 14.5200923,26.4994122 14.9980923,26.4994122 M15.1140923,28.5014122 C15.0620923,28.5014122 15.0120923,28.5004122 14.9600923,28.4984122 C14.2220923,28.5374122 13.4700923,28.3284122 12.7800923,27.9994122 C12.2210923,27.7324122 11.8540923,27.4404122 11.5600923,27.2054122 C11.4770923,27.1404122 11.3970923,27.0754122 11.3120923,27.0124122 C10.6550923,26.4694122 10.1800923,25.9894122 9.72009228,25.5244122 L9.33509228,25.1384122 C8.17909228,23.9624122 7.06009228,22.7624122 5.90509228,21.4574122 C4.99109228,20.4164122 3.80109228,19.0264122 2.68209228,17.4904122 C2.20209228,16.8164122 1.66809228,16.0644122 1.18509228,15.1804122 C0.965092282,14.8054122 0.740092282,14.3244122 0.516092282,13.7404122 C0.293092282,13.1344122 0.185092282,12.5814122 0.109092282,12.1174122 C-0.222907718,9.90341225 0.209092282,7.66941225 1.32009228,5.81141225 C2.48409228,3.83041225 4.38809228,2.36141225 6.53909228,1.78741225 C8.75409228,1.17241225 11.2360923,1.55741225 13.1730923,2.81741225 C13.8510923,3.24941225 14.4640923,3.77041225 15.0010923,4.37241225 C15.5370923,3.77241225 16.1410923,3.25741225 16.8100923,2.82641225 C18.7380923,1.56541225 21.2190923,1.17441225 23.4460923,1.78341225 C25.5890923,2.34641225 27.4970923,3.81141225 28.6730923,5.80041225 C29.7860923,7.65241225 30.2210923,9.88841225 29.8940923,12.0884122 C29.7910923,12.7294122 29.6690923,13.2254122 29.4950923,13.7064122 C29.2470923,14.3484122 29.0290923,14.8164122 28.8030923,15.2004122 C28.3420923,16.0514122 27.8070923,16.8074122 27.3330923,17.4744122 C26.4340923,18.7074122 25.4390923,19.9314122 24.1020923,21.4514122 C22.9820923,22.7204122 21.8300923,23.9574122 20.6780923,25.1294122 L20.2500923,25.5594122 C19.8020923,26.0144122 19.3370923,26.4854122 18.7070923,26.9964122 C17.9830923,27.6784122 16.5800923,28.5014122 15.1140923,28.5014122" />
</svg>