<svg id="heart-filled-30" viewBox="0 0 30 30" xmlns="http://www.w3.org/2000/svg">
	<path d="M15.1140923,28.5014122 C15.0620923,28.5014122 15.0120923,28.5004122 14.9600923,28.4984122 C14.2220923,28.5374122 13.4700923,28.3284122 12.7800923,27.9994122 C12.2210923,27.7324122 11.8540923,27.4404122 11.5600923,27.2054122 C11.4770923,27.1404122 11.3970923,27.0754122 11.3120923,27.0124122 C10.6550923,26.4694122 10.1800923,25.9894122 9.72009228,25.5244122 L9.33509228,25.1384122 C8.17909228,23.9624122 7.06009228,22.7624122 5.90509228,21.4574122 C4.99109228,20.4164122 3.80109228,19.0264122 2.68209228,17.4904122 C2.20209228,16.8164122 1.66809228,16.0644122 1.18509228,15.1804122 C0.965092282,14.8054122 0.740092282,14.3244122 0.516092282,13.7404122 C0.293092282,13.1344122 0.185092282,12.5814122 0.109092282,12.1174122 C-0.222907718,9.90341225 0.209092282,7.66941225 1.32009228,5.81141225 C2.48409228,3.83041225 4.38809228,2.36141225 6.53909228,1.78741225 C8.75409228,1.17241225 11.2360923,1.55741225 13.1730923,2.81741225 C13.8510923,3.24941225 14.4640923,3.77041225 15.0010923,4.37241225 C15.5370923,3.77241225 16.1410923,3.25741225 16.8100923,2.82641225 C18.7380923,1.56541225 21.2190923,1.17441225 23.4460923,1.78341225 C25.5890923,2.34641225 27.4970923,3.81141225 28.6730923,5.80041225 C29.7860923,7.65241225 30.2210923,9.88841225 29.8940923,12.0884122 C29.7910923,12.7294122 29.6690923,13.2254122 29.4950923,13.7064122 C29.2470923,14.3484122 29.0290923,14.8164122 28.8030923,15.2004122 C28.3420923,16.0514122 27.8070923,16.8074122 27.3330923,17.4744122 C26.4340923,18.7074122 25.4390923,19.9314122 24.1020923,21.4514122 C22.9820923,22.7204122 21.8300923,23.9574122 20.6780923,25.1294122 L20.2500923,25.5594122 C19.8020923,26.0144122 19.3370923,26.4854122 18.7070923,26.9964122 C17.9830923,27.6784122 16.5800923,28.5014122 15.1140923,28.5014122" />
</svg>