<svg id="instagram-filled-30" viewBox="0 0 30 30" xmlns="http://www.w3.org/2000/svg">
	<path d="M22.4551,18.0923 C22.4911,17.2923 22.5001,17.0363 22.5001,15.0003 C22.5001,12.9633 22.4911,12.7073 22.4551,11.9073 C22.4181,11.1093 22.2921,10.5643 22.1061,10.0873 C21.9141,9.5943 21.6581,9.1753 21.2411,8.7593 C20.8241,8.3423 20.4061,8.0853 19.9131,7.8933 C19.4351,7.7083 18.8911,7.5813 18.0921,7.5453 C17.2921,7.5093 17.0371,7.5003 15.0001,7.5003 C12.9631,7.5003 12.7081,7.5093 11.9081,7.5453 C11.1091,7.5813 10.5641,7.7083 10.0871,7.8933 C9.5941,8.0853 9.1761,8.3423 8.7591,8.7593 C8.3421,9.1753 8.0861,9.5943 7.8931,10.0873 C7.7081,10.5643 7.5821,11.1093 7.5451,11.9073 C7.5091,12.7073 7.5001,12.9633 7.5001,15.0003 C7.5001,17.0363 7.5091,17.2923 7.5451,18.0923 C7.5821,18.8903 7.7081,19.4353 7.8931,19.9123 C8.0861,20.4053 8.3421,20.8243 8.7591,21.2413 C9.1761,21.6583 9.5941,21.9143 10.0871,22.1063 C10.5641,22.2913 11.1091,22.4183 11.9081,22.4553 C12.7081,22.4913 12.9631,22.5003 15.0001,22.5003 C17.0371,22.5003 17.2921,22.4913 18.0921,22.4553 C18.8911,22.4183 19.4351,22.2913 19.9131,22.1063 C20.4061,21.9143 20.8241,21.6583 21.2411,21.2413 C21.6581,20.8243 21.9141,20.4053 22.1061,19.9123 C22.2921,19.4353 22.4181,18.8903 22.4551,18.0923 Z M15.0001,0.0003 C23.2701,0.0003 30.0001,6.7293 30.0001,15.0003 C30.0001,23.2713 23.2701,30.0003 15.0001,30.0003 C6.7291,30.0003 0.000100000001,23.2713 0.000100000001,15.0003 C0.000100000001,6.7293 6.7291,0.0003 15.0001,0.0003 Z M19.0029,11.8965 C19.5009,11.8965 19.9029,11.4935 19.9029,10.9965 C19.9029,10.4995 19.5009,10.0965 19.0029,10.0965 C18.5069,10.0965 18.1039,10.4995 18.1039,10.9965 C18.1039,11.4935 18.5069,11.8965 19.0029,11.8965 Z M14.9999,18.8515 C17.1269,18.8515 18.8519,17.1265 18.8519,15.0005 C18.8519,12.8735 17.1269,11.1485 14.9999,11.1485 C12.8729,11.1485 11.1489,12.8735 11.1489,15.0005 C11.1489,17.1265 12.8729,18.8515 14.9999,18.8515 Z M20.8469,10.5765 C20.9489,10.8405 21.0709,11.2385 21.1049,11.9695 C21.1409,12.7605 21.1489,12.9975 21.1489,15.0005 C21.1489,17.0025 21.1409,17.2395 21.1049,18.0305 C21.0709,18.7615 20.9489,19.1595 20.8469,19.4235 C20.7109,19.7735 20.5479,20.0235 20.2849,20.2855 C20.0239,20.5475 19.7739,20.7105 19.4239,20.8465 C19.1589,20.9495 18.7619,21.0715 18.0299,21.1045 C17.2399,21.1415 17.0029,21.1485 14.9999,21.1485 C12.9969,21.1485 12.7599,21.1415 11.9699,21.1045 C11.2379,21.0715 10.8409,20.9495 10.5759,20.8465 C10.2269,20.7105 9.9769,20.5475 9.7149,20.2855 C9.4519,20.0235 9.2889,19.7735 9.1529,19.4235 C9.0509,19.1595 8.9289,18.7615 8.8959,18.0305 C8.8589,17.2395 8.8519,17.0025 8.8519,15.0005 C8.8519,12.9975 8.8589,12.7605 8.8959,11.9695 C8.9289,11.2385 9.0509,10.8405 9.1529,10.5765 C9.2889,10.2265 9.4519,9.9765 9.7149,9.7145 C9.9769,9.4525 10.2269,9.2895 10.5759,9.1535 C10.8409,9.0505 11.2379,8.9285 11.9699,8.8955 C12.7599,8.8585 12.9969,8.8515 14.9999,8.8515 C17.0029,8.8515 17.2399,8.8585 18.0299,8.8955 C18.7619,8.9285 19.1589,9.0505 19.4239,9.1535 C19.7739,9.2895 20.0239,9.4525 20.2849,9.7145 C20.5479,9.9765 20.7109,10.2265 20.8469,10.5765 Z M15,12.5 C16.381,12.5 17.5,13.619 17.5,15 C17.5,16.381 16.381,17.5 15,17.5 C13.619,17.5 12.5,16.381 12.5,15 C12.5,13.619 13.619,12.5 15,12.5 Z" />
</svg>