<svg id="linkedin-filled-30" viewBox="0 0 30 30" xmlns="http://www.w3.org/2000/svg">
	<path d="M15,0 C23.27,0 30,6.729 30,15 C30,23.271 23.27,30 15,30 C6.729,30 0,23.271 0,15 C0,6.729 6.729,0 15,0 Z M21.7300005,21 L21.73,15.615 C21.731,12.539 20.179,11 17.884,11 C16.743,11 15.396,11.601 14.807,12.923 L14.807,11 L12.5,11 C12.5,11 12.545,11.46 12.5,21 L15.577,21 L15.577,14.846 C15.577,14.846 15.914,13.692 17.115,13.692 C18.654,13.692 18.654,14.846 18.654,15.615 L18.654,21 L21.7300005,21 Z M10.176,9.846 C11.375,9.846 12.115,8.981 12.115,7.923 C12.099,6.833 11.375,6 10.208,6 C9.038,6 8.269,6.833 8.269,7.923 C8.269,8.981 9.008,9.846 10.163,9.846 L10.176,9.846 Z M8.654,21 L11.73,21 L11.73,11 L8.654,11 L8.654,21 Z" />
</svg>