<svg id="menu-30" viewBox="0 0 30 30" xmlns="http://www.w3.org/2000/svg">
	<path d="M26.0449,6.0909 L2.0449,6.0909 C1.4679,6.0909 0.9999,5.6229 0.9999,5.0459 C0.9999,4.4679 1.4679,3.9999 2.0449,3.9999 L26.0449,3.9999 C26.6219,3.9999 27.0899,4.4679 27.0899,5.0459 C27.0899,5.6229 26.6219,6.0909 26.0449,6.0909 Z M26.0449,16.0899 L2.0449,16.0899 C1.4679,16.0899 0.9999,15.6219 0.9999,15.0449 C0.9999,14.4669 1.4679,13.9989 2.0449,13.9989 L26.0449,13.9989 C26.6219,13.9989 27.0899,14.4669 27.0899,15.0449 C27.0899,15.6219 26.6219,16.0899 26.0449,16.0899 Z M26.0449,26.0889 L2.0449,26.0889 C1.4679,26.0889 0.9999,25.6209 0.9999,25.0439 C0.9999,24.4659 1.4679,23.9979 2.0449,23.9979 L26.0449,23.9979 C26.6219,23.9979 27.0899,24.4659 27.0899,25.0439 C27.0899,25.6209 26.6219,26.0889 26.0449,26.0889 Z" />
</svg>