<svg id="pause-circle-60" viewBox="0 0 60 60" xmlns="http://www.w3.org/2000/svg">
	<path d="M30,3 C15.112,3 3,15.112 3,30 C3,44.888 15.112,57 30,57 C44.888,57 57,44.888 57,30 C57,15.112 44.888,3 30,3 Z M30,60 C13.458,60 0,46.542 0,30 C0,13.458 13.458,0 30,0 C46.542,0 60,13.458 60,30 C60,46.542 46.542,60 30,60 Z M26,41 L24,41 C22.896,41 22,40.104 22,39 L22,21 C22,19.896 22.896,19 24,19 L26,19 C27.104,19 28,19.896 28,21 L28,39 C28,40.104 27.104,41 26,41 Z M36,41 L34,41 C32.896,41 32,40.104 32,39 L32,21 C32,19.896 32.896,19 34,19 L36,19 C37.104,19 38,19.896 38,21 L38,39 C38,40.104 37.104,41 36,41 Z" />
</svg>