<svg id="pause-circle-30" viewBox="0 0 30 30" xmlns="http://www.w3.org/2000/svg">
	<path d="M15,2 C7.832,2 2,7.832 2,15 C2,22.168 7.832,28 15,28 C22.168,28 28,22.168 28,15 C28,7.832 22.168,2 15,2 Z M15,30 C6.729,30 0,23.271 0,15 C0,6.729 6.729,0 15,0 C23.271,0 30,6.729 30,15 C30,23.271 23.271,30 15,30 Z M13,20 L12,20 C11.447,20 11,19.552 11,19 L11,11 C11,10.448 11.447,10 12,10 L13,10 C13.553,10 14,10.448 14,11 L14,19 C14,19.552 13.553,20 13,20 Z M18,20 L17,20 C16.447,20 16,19.552 16,19 L16,11 C16,10.448 16.447,10 17,10 L18,10 C18.553,10 19,10.448 19,11 L19,19 C19,19.552 18.553,20 18,20 Z" />
</svg>