<svg id="pause-circle-40" viewBox="0 0 40 40" xmlns="http://www.w3.org/2000/svg">
	<path d="M20,2 C10.075,2 2,10.075 2,20 C2,29.925 10.075,38 20,38 C29.925,38 38,29.925 38,20 C38,10.075 29.925,2 20,2 Z M20,40 C8.972,40 0,31.028 0,20 C0,8.972 8.972,0 20,0 C31.028,0 40,8.972 40,20 C40,31.028 31.028,40 20,40 Z M18,27 L16,27 C15.447,27 15,26.552 15,26 L15,14 C15,13.448 15.447,13 16,13 L18,13 C18.553,13 19,13.448 19,14 L19,26 C19,26.552 18.553,27 18,27 Z M24,27 L22,27 C21.447,27 21,26.552 21,26 L21,14 C21,13.448 21.447,13 22,13 L24,13 C24.553,13 25,13.448 25,14 L25,26 C25,26.552 24.553,27 24,27 Z" />
</svg>