<svg id="play-circle-30" viewBox="0 0 30 30" xmlns="http://www.w3.org/2000/svg">
	<path d="M19.4766,14.1704 C20.0656,14.5664 20.0656,15.4334 19.4766,15.8294 L13.5586,19.8124 C12.8936,20.2584 11.9996,19.7824 11.9996,18.9824 L11.9996,11.0184 C11.9996,10.2174 12.8936,9.7414 13.5586,10.1884 L19.4766,14.1704 Z M15,2 C7.832,2 2,7.832 2,15 C2,22.168 7.832,28 15,28 C22.168,28 28,22.168 28,15 C28,7.832 22.168,2 15,2 Z M15,30 C6.729,30 0,23.271 0,15 C0,6.729 6.729,0 15,0 C23.271,0 30,6.729 30,15 C30,23.271 23.271,30 15,30 Z" />
</svg>