<svg id="play-circle-40" viewBox="0 0 40 40" xmlns="http://www.w3.org/2000/svg">
	<path d="M26.5879,19.1235 C27.1769,19.5195 27.1769,20.3865 26.5879,20.7825 L17.5589,26.8575 C16.8939,27.3045 15.9999,26.8295 15.9999,26.0285 L15.9999,13.8775 C15.9999,13.0775 16.8939,12.6015 17.5589,13.0485 L26.5879,19.1235 Z M20,2 C10.075,2 2,10.075 2,20 C2,29.925 10.075,38 20,38 C29.925,38 38,29.925 38,20 C38,10.075 29.925,2 20,2 Z M20,40 C8.972,40 0,31.028 0,20 C0,8.972 8.972,0 20,0 C31.028,0 40,8.972 40,20 C40,31.028 31.028,40 20,40 Z" />
</svg>