<svg id="play-circle-60" viewBox="0 0 60 60" xmlns="http://www.w3.org/2000/svg">
	<path d="M39.1182,28.3496 C40.2792,29.1436 40.2792,30.8556 39.1182,31.6506 L27.1302,39.8576 C25.8032,40.7666 24.0002,39.8156 24.0002,38.2066 L24.0002,21.7926 C24.0002,20.1846 25.8032,19.2336 27.1302,20.1426 L39.1182,28.3496 Z M30,3 C15.112,3 3,15.112 3,30 C3,44.888 15.112,57 30,57 C44.888,57 57,44.888 57,30 C57,15.112 44.888,3 30,3 Z M30,60 C13.458,60 0,46.542 0,30 C0,13.458 13.458,0 30,0 C46.542,0 60,13.458 60,30 C60,46.542 46.542,60 30,60 Z" />
</svg>