<svg id="play-circle-120" viewBox="0 0 120 120" xmlns="http://www.w3.org/2000/svg">
	<path d="M81.8613,58.3496 C83.0213,59.1436 83.0213,60.8556 81.8613,61.6506 L50.4983,83.1206 C49.1713,84.0296 47.3683,83.0786 47.3683,81.4706 L47.3683,38.5296 C47.3683,36.9216 49.1713,35.9706 50.4983,36.8796 L81.8613,58.3496 Z M60,5 C29.673,5 5,29.673 5,60 C5,90.327 29.673,115 60,115 C90.327,115 115,90.327 115,60 C115,29.673 90.327,5 60,5 Z M60,120 C26.916,120 0,93.084 0,60 C0,26.916 26.916,0 60,0 C93.084,0 120,26.916 120,60 C120,93.084 93.084,120 60,120 Z" />
</svg>