<svg id="star-16" viewBox="0 0 16 16" xmlns="http://www.w3.org/2000/svg">
	<path d="M7.99973378,10.7666 C8.15573378,10.7666 8.31273378,10.8036 8.45673378,10.8776 L10.9927338,12.1836 L10.5147338,9.4536 C10.4567338,9.1226 10.5677338,8.7856 10.8107338,8.5536 L12.8137338,6.6416 L10.0217338,6.2436 C9.69873378,6.1976 9.41773378,5.9956 9.27073378,5.7036 L7.99973378,3.1826 L6.72873378,5.7036 C6.58173378,5.9956 6.30073378,6.1976 5.97773378,6.2436 L3.18573378,6.6416 L5.18873378,8.5536 C5.43173378,8.7856 5.54273378,9.1226 5.48473378,9.4536 L5.00673378,12.1836 L7.54273378,10.8776 C7.68673378,10.8036 7.84373378,10.7666 7.99973378,10.7666 M12.3257338,14.9996 C12.1697338,14.9996 12.0137338,14.9636 11.8687338,14.8896 L7.99973378,12.8966 L4.13073378,14.8896 C3.79173378,15.0616 3.38673378,15.0306 3.07973378,14.8046 C2.77473378,14.5786 2.62273378,14.1986 2.68773378,13.8236 L3.42173378,9.6366 L0.310733783,6.6646 C0.0327337827,6.3996 -0.0692662173,5.9986 0.0477337827,5.6326 C0.164733783,5.2666 0.478733783,4.9996 0.858733783,4.9456 L5.17973378,4.3306 L7.10673378,0.5066 C7.44673378,-0.1694 8.55273378,-0.1694 8.89273378,0.5066 L10.8197338,4.3306 L15.1407338,4.9456 C15.5207338,4.9996 15.8347338,5.2666 15.9517338,5.6326 C16.0687338,5.9986 15.9667338,6.3996 15.6887338,6.6646 L12.5777338,9.6366 L13.3117338,13.8236 C13.3767338,14.1986 13.2247338,14.5786 12.9197338,14.8046 C12.7437338,14.9336 12.5357338,14.9996 12.3257338,14.9996" />
</svg>