<svg id="star-filled-30" viewBox="0 0 30 30" xmlns="http://www.w3.org/2000/svg">
	<path d="M29.9511,10.8172 C29.8331,10.4552 29.5201,10.1912 29.1431,10.1362 L19.9901,8.8062 L15.8961,0.5122 C15.5601,-0.1708 14.4391,-0.1708 14.1031,0.5122 L10.0101,8.8062 L0.8561,10.1362 C0.4791,10.1912 0.1671,10.4552 0.0491,10.8172 C-0.0689,11.1792 0.0291,11.5762 0.3021,11.8422 L6.9261,18.3002 L5.3621,27.4172 C5.2981,27.7922 5.4521,28.1712 5.7601,28.3952 C6.0701,28.6192 6.4761,28.6482 6.8131,28.4712 L15.0001,24.1672 L23.1861,28.4712 C23.3331,28.5472 23.4931,28.5862 23.6521,28.5862 C23.8591,28.5862 24.0651,28.5212 24.2401,28.3952 C24.5481,28.1712 24.7021,27.7922 24.6381,27.4172 L23.0741,18.3002 L29.6981,11.8422 C29.9711,11.5762 30.0681,11.1792 29.9511,10.8172" />
</svg>