<svg id="star-30" viewBox="0 0 30 30" xmlns="http://www.w3.org/2000/svg">
	<path d="M21.3016122,17.23525 C21.0666122,17.46425 20.9586122,17.79625 21.0146122,18.12025 L22.3236122,25.75725 L15.4656122,22.15225 C15.3196122,22.07525 15.1596122,22.03725 14.9996122,22.03725 C14.8396122,22.03725 14.6806122,22.07525 14.5336122,22.15225 L7.67561216,25.75725 L8.98561216,18.12025 C9.04061216,17.79625 8.93361216,17.46425 8.69761216,17.23525 L3.14861216,11.82425 L10.8176122,10.71025 C11.1436122,10.66325 11.4246122,10.45825 11.5706122,10.16325 L14.9996122,3.21425 L18.4296122,10.16325 C18.5746122,10.45825 18.8566122,10.66325 19.1826122,10.71025 L26.8516122,11.82425 L21.3016122,17.23525 Z M29.1436122,10.13625 L19.9896122,8.80625 L15.8966122,0.51225 C15.5606122,-0.17075 14.4396122,-0.17075 14.1036122,0.51225 L10.0096122,8.80625 L0.856612159,10.13625 C0.479612159,10.19125 0.166612159,10.45525 0.0486121589,10.81725 C-0.0683878411,11.17925 0.0296121589,11.57625 0.301612159,11.84225 L6.92561216,18.30025 L5.36261216,27.41725 C5.29761216,27.79225 5.45161216,28.17125 5.75961216,28.39525 C6.07061216,28.61925 6.47661216,28.64825 6.81361216,28.47125 L14.9996122,24.16725 L23.1866122,28.47125 C23.3326122,28.54825 23.4926122,28.58625 23.6526122,28.58625 C23.8596122,28.58625 24.0656122,28.52125 24.2396122,28.39525 C24.5476122,28.17125 24.7016122,27.79225 24.6376122,27.41725 L23.0736122,18.30025 L29.6976122,11.84225 C29.9706122,11.57625 30.0686122,11.17925 29.9506122,10.81725 C29.8326122,10.45525 29.5206122,10.19125 29.1436122,10.13625 L29.1436122,10.13625 Z" />
</svg>