<svg id="star-half-filled-16" viewBox="0 0 16 16" xmlns="http://www.w3.org/2000/svg">
	<path d="M10.8105701,8.55398425 C10.5685701,8.78466476 10.4565701,9.12266185 10.5145701,9.45363823 L10.9935701,12.1836919 L10.6215701,11.9921268 C10.6205701,11.9921268 10.6205701,11.9911238 10.6205701,11.9911238 L9.22157014,11.2720024 L8.45657014,10.8778396 C8.45657014,10.8778396 8.45657014,10.8778396 8.45657014,10.8778396 L7.99957014,10.6431473 L7.99957014,3.18213731 L9.27057014,5.70357555 C9.41757014,5.99543654 9.69957014,6.1980342 10.0225701,6.2441703 L12.8145701,6.64134196 L10.8105701,8.55398425 Z M15.9525701,5.63236548 C15.8345701,5.2672885 15.5205701,5.00050148 15.1405701,4.94533875 L10.8205701,4.33152801 L8.89257014,0.506243418 C8.55257014,-0.168747806 7.44757014,-0.168747806 7.10757014,0.506243418 L5.17957014,4.33152801 L0.859570139,4.94533875 C0.479570139,5.00050148 0.164570139,5.2672885 0.0475701389,5.63236548 C-0.0694298611,5.99944837 0.0335701389,6.40063186 0.310570139,6.66541297 L3.42157014,9.63617672 L2.68857014,13.8235294 C2.62257014,14.198636 2.77557014,14.5787573 3.08057014,14.804423 C3.38657014,15.0310917 3.79157014,15.0621834 4.13057014,14.8896745 L6.22557014,13.8114939 C6.22557014,13.8114939 6.22657014,13.8104909 6.22657014,13.8104909 L7.99957014,12.8977985 L9.70657014,13.7763904 C9.70657014,13.7763904 9.70657014,13.7763904 9.70657014,13.7763904 L11.8695701,14.8896745 C12.0135701,14.9638935 12.1695701,15 12.3265701,15 C12.5365701,15 12.7445701,14.9338047 12.9195701,14.804423 C13.2245701,14.5787573 13.3765701,14.198636 13.3115701,13.8235294 L12.5785701,9.63617672 L15.6895701,6.66541297 C15.9665701,6.40063186 16.0695701,5.99944837 15.9525701,5.63236548 L15.9525701,5.63236548 Z" />
</svg>