<svg id="star-half-filled-30" viewBox="0 0 30 30" xmlns="http://www.w3.org/2000/svg">
	<path d="M21.2968673,17.5020712 C21.0658673,17.7314391 20.9598673,18.059966 21.0138673,18.3814817 L22.3268673,26.155951 L19.6138673,24.7066265 C19.6138673,24.7066265 19.6138673,24.7066265 19.6128673,24.7066265 L15.0348673,22.2627067 L15.0348673,3.31531737 L18.4268673,10.2945112 C18.5708673,10.5929899 18.8538673,10.7993208 19.1808673,10.8473979 L26.8718673,11.982218 L21.2968673,17.5020712 Z M29.9498673,10.9715971 C29.8318673,10.6120204 29.5208673,10.3485979 29.1458673,10.2935096 L19.9938673,8.94234244 L15.8998673,0.516828932 C15.5638673,-0.172276311 14.4368673,-0.172276311 14.1008673,0.516828932 L10.0058673,8.94234244 L0.85486728,10.2935096 C0.47986728,10.3485979 0.16786728,10.6120204 0.0498672798,10.9715971 C-0.0681327202,11.3331771 0.0268672798,11.7298132 0.29686728,11.9962405 L6.92786728,18.5607692 L5.36086728,27.8316386 C5.29786728,28.207241 5.45386728,28.5878515 5.76286728,28.8112097 C6.07186728,29.034568 6.48286728,29.0616113 6.81786728,28.8823238 L14.9998673,24.5133164 L23.1818673,28.8823238 C23.3288673,28.9604491 23.4908673,28.9995117 23.6518673,28.9995117 C23.8588673,28.9995117 24.0638673,28.9364105 24.2368673,28.8112097 C24.5458673,28.5878515 24.7018673,28.207241 24.6388673,27.8316386 L23.0718673,18.5607692 L29.7028673,11.9962405 C29.9728673,11.7298132 30.0678673,11.3331771 29.9498673,10.9715971 L29.9498673,10.9715971 Z" />
</svg>