<svg id="star-filled-16" viewBox="0 0 16 16" xmlns="http://www.w3.org/2000/svg">
	<path d="M15.9482,5.652925 C15.8292,5.3201125 15.5212,5.0763625 15.1512,5.0238625 L10.8422,4.40605 L8.9052,0.5388625 C8.7402,0.2098 8.3872,-0.0002 8.0002,-0.0002 C7.6122,-0.0002 7.2602,0.2098 7.0942,0.5388625 L5.1582,4.40605 L0.8482,5.0238625 C0.4782,5.0763625 0.1712,5.3201125 0.0522,5.652925 C-0.0678,5.9857375 0.0222,6.354175 0.2842,6.605425 L3.4312,9.6298 L2.6862,13.9113625 C2.6252,14.2657375 2.7852,14.6219875 3.0972,14.829175 C3.4112,15.035425 3.8242,15.05605 4.1572,14.8826125 L8.0002,12.8913625 L11.8432,14.8826125 C11.9932,14.9613625 12.1602,14.9998 12.3262,14.9998 C12.5282,14.9998 12.7302,14.9426125 12.9022,14.829175 C13.2152,14.6219875 13.3752,14.2657375 13.3132,13.9113625 L12.5682,9.6298 L15.7162,6.605425 C15.9772,6.354175 16.0672,5.9857375 15.9482,5.652925" />
</svg>