<svg id="thumb-down-16" viewBox="0 0 16 16" xmlns="http://www.w3.org/2000/svg">
	<path d="M12.822,9.22820207 C12.787,9.27118175 12.695,9.38412834 12.366,9.408117 L10.156,9.41811227 C9.838,9.4191118 9.538,9.57303901 9.351,9.8319166 C9.164,10.0897947 9.111,10.4216378 9.21,10.7254941 C9.901,12.8614841 9.557,13.5741471 9.436,13.7410681 C9.293,13.9389746 9.043,13.9889509 8.793,13.9989462 C8.602,13.6231239 8.344,12.4946575 8.168,11.7230224 C7.609,9.27118175 5.83,8.7764157 5.225,8.67846202 L5.225,4.52342674 C6.283,4.43147023 7.392,3.82175853 7.664,3.66283368 C8.728,3.16406952 9.554,3.05412151 10.264,3.00914278 C10.52,2.98715318 11.8,2.96516358 12.265,4.70933884 C12.814,6.76336758 12.977,8.21967896 12.985,8.28164965 C13.016,8.48755229 13.016,8.99031456 12.822,9.22820207 M14.968,8.01877396 C14.961,7.95380468 14.79,6.40653631 14.197,4.19258319 C13.447,1.38291175 11.141,0.894142866 10.099,1.01708473 C9.282,1.0670611 8.164,1.21099304 6.763,1.87667827 C6.733,1.89067165 6.703,1.90666409 6.675,1.92465558 C6.342,2.12656011 5.487,2.54336303 4.968,2.54336303 L2.767,2.54436255 C2.636,2.53836539 2.002,2.55035972 1.506,3.03313144 C1.275,3.25902462 1,3.66183415 1,4.30652931 L1,8.89136135 C1,9.74595725 1.61,10.6535281 2.742,10.6535281 L4.933,10.6485305 C5.032,10.6615243 5.908,10.8084548 6.218,12.1678121 C6.764,14.557682 7.093,16 8.677,16 C9.731,16 10.53,15.636172 11.053,14.9175119 C11.648,14.0998985 11.785,12.9464439 11.464,11.4111698 L12.405,11.4071717 C12.423,11.4071717 12.44,11.4061722 12.458,11.4051727 C13.482,11.3462006 14.072,10.8664274 14.385,10.4746127 C15.183,9.47808391 14.985,8.11472858 14.968,8.01877396" />
</svg>