<svg id="thumb-up-16" viewBox="0 0 16 16" xmlns="http://www.w3.org/2000/svg">
	<path d="M12.979,7.7696 C12.977,7.7836 12.814,9.2416 12.265,11.2966 C11.798,13.0436 10.517,13.0196 10.222,12.9936 C9.553,12.9526 8.728,12.8426 7.664,12.3436 C7.392,12.1846 6.283,11.5736 5.225,11.4816 L5.225,7.3316 C5.727,7.2536 7.593,6.8006 8.167,4.2796 C8.344,3.5076 8.602,2.3776 8.792,2.0016 C9.041,2.0116 9.291,2.0616 9.436,2.2596 C9.557,2.4276 9.901,3.1396 9.209,5.2766 C9.111,5.5806 9.164,5.9136 9.351,6.1716 C9.538,6.4296 9.837,6.5836 10.156,6.5846 L12.366,6.5956 C12.695,6.6186 12.787,6.7316 12.822,6.7746 C13.016,7.0136 13.016,7.5166 12.979,7.7696 M14.385,5.5286 C14.072,5.1356 13.482,4.6556 12.458,4.5966 C12.44,4.5956 12.422,4.5956 12.405,4.5956 L11.463,4.5906 C11.785,3.0556 11.648,1.9006 11.053,1.0826 C10.53,0.3646 9.731,-0.0004 8.677,-0.0004 C7.093,-0.0004 6.764,1.4426 6.218,3.8346 C5.908,5.1936 5.032,5.3416 5.029,5.3496 L2.742,5.3496 C1.61,5.3496 1,6.2576 1,7.1126 L1,11.6986 C1,12.3436 1.275,12.7476 1.505,12.9726 C2.002,13.4566 2.638,13.4636 2.742,13.4626 L4.967,13.4626 C5.436,13.4626 6.249,13.8256 6.763,14.1306 C8.164,14.7956 9.282,14.9396 10.043,14.9846 C10.147,14.9976 10.26,15.0036 10.381,15.0036 C11.566,15.0036 13.517,14.3596 14.197,11.8126 C14.79,9.5976 14.96,8.0496 14.959,8.0406 C14.985,7.8886 15.183,6.5246 14.385,5.5286" />
</svg>