<svg id="tiktok-filled-30" viewBox="0 0 30 30" xmlns="http://www.w3.org/2000/svg">
	<path d="M15,0C6.73,0,0,6.73,0,15s6.73,15,15,15,15-6.73,15-15S23.27,0,15,0Zm7.4,11.22v2.27c-1.51,0-2.91-.48-4.06-1.31v5.93c0,2.96-2.41,5.37-5.37,5.37-1.14,0-2.2-.36-3.08-.97-1.38-.97-2.29-2.58-2.29-4.4,0-2.96,2.41-5.37,5.37-5.37,.25,0,.49,.02,.72,.05v2.98c-.23-.07-.47-.11-.72-.11-1.35,0-2.45,1.1-2.45,2.45,0,.94,.53,1.76,1.31,2.17,.34,.18,.73,.28,1.14,.28,1.32,0,2.4-1.05,2.45-2.36V6.52h2.92c0,.25,.02,.5,.07,.74,.21,1.11,.87,2.07,1.78,2.66,.64,.41,1.4,.66,2.21,.66v.65Z" />
</svg>