<svg id="trash-16" viewBox="0 0 16 16" xmlns="http://www.w3.org/2000/svg">
	<path d="M11,0 C11.553,0 12,0.448 12,1 L12,1 L12,3 L14,3 C14.553,3 15,3.448 15,4 C15,4.552 14.553,5 14,5 L14,5 L14,15 C14,15.552 13.553,16 13,16 L13,16 L3,16 C2.447,16 2,15.552 2,15 L2,15 L2,5 C1.447,5 1,4.552 1,4 C1,3.448 1.447,3 2,3 L2,3 L4,3 L4,1 C4,0.448 4.447,0 5,0 L5,0 Z M12,5 L4,5 L4,14 L12,14 L12,5 Z M10,7 C10.553,7 11,7.448 11,8 L11,8 L11,11 C11,11.552 10.553,12 10,12 C9.447,12 9,11.552 9,11 L9,11 L9,8 C9,7.448 9.447,7 10,7 Z M6,7 C6.553,7 7,7.448 7,8 L7,8 L7,11 C7,11.552 6.553,12 6,12 C5.447,12 5,11.552 5,11 L5,11 L5,8 C5,7.448 5.447,7 6,7 Z M10,2 L6,2 L6,3 L10,3 L10,2 Z" />
</svg>