<svg id="twitter-filled-30" viewBox="0 0 30 30" xmlns="http://www.w3.org/2000/svg">
	<path d="M20.9609,11.938 C20.9719,12.026 20.9759,12.159 20.9759,12.334 C20.9759,13.154 20.8569,13.977 20.6159,14.802 C20.3779,15.626 20.0099,16.418 19.5199,17.174 C19.0249,17.931 18.4359,18.601 17.7529,19.181 C17.0689,19.763 16.2489,20.228 15.2929,20.574 C14.3359,20.92 13.3109,21.094 12.2159,21.094 C10.5179,21.094 8.9449,20.632 7.4999,19.717 C7.7339,19.744 7.9789,19.763 8.2319,19.763 C9.6479,19.763 10.9239,19.319 12.0559,18.441 C11.3919,18.432 10.7969,18.228 10.2769,17.827 C9.7539,17.426 9.3899,16.917 9.1849,16.303 C9.4389,16.342 9.6299,16.361 9.7549,16.361 C9.9709,16.361 10.2199,16.323 10.5039,16.245 C9.7889,16.108 9.1899,15.754 8.7019,15.182 C8.2129,14.611 7.9699,13.959 7.9699,13.228 L7.9699,13.198 C8.4869,13.443 8.9759,13.569 9.4349,13.579 C8.5459,12.982 8.1019,12.129 8.1019,11.015 C8.1019,10.468 8.2419,9.951 8.5239,9.463 C9.2959,10.411 10.2329,11.166 11.3389,11.732 C12.4419,12.301 13.6239,12.617 14.8819,12.686 C14.8329,12.499 14.8099,12.266 14.8099,11.983 C14.8099,11.132 15.1089,10.406 15.7099,9.808 C16.3109,9.207 17.0349,8.906 17.8859,8.906 C18.7839,8.906 19.5299,9.229 20.1259,9.874 C20.8009,9.746 21.4539,9.497 22.0889,9.125 C21.8459,9.878 21.3909,10.449 20.7259,10.84 C21.3619,10.753 21.9519,10.584 22.4999,10.342 C22.0889,10.966 21.5769,11.499 20.9609,11.938 M14.9999,0 C6.7299,0 -0.000100000001,6.729 -0.000100000001,15 C-0.000100000001,23.271 6.7299,30 14.9999,30 C23.2709,30 29.9999,23.271 29.9999,15 C29.9999,6.729 23.2709,0 14.9999,0" />
</svg>