<svg id="upload-30" viewBox="0 0 30 30" xmlns="http://www.w3.org/2000/svg">
	<path d="M23,22.975 C22.578,22.975 22.187,22.706 22.049,22.283 C21.878,21.758 22.166,21.194 22.691,21.023 C25.47,20.121 28,16.756 28,13.962 C28,10.331 25.046,7.377 21.415,7.377 C21.102,7.377 20.767,7.406 20.391,7.466 L19.555,7.598 L19.286,6.795 C18.326,3.927 15.651,2 12.631,2 C8.759,2 5.608,5.151 5.608,9.023 C5.608,9.456 5.652,9.904 5.739,10.353 L5.898,11.184 L5.106,11.479 C3.248,12.172 2,13.959 2,15.925 C2,18.457 3.845,20.725 6.112,20.981 C6.661,21.043 7.056,21.538 6.994,22.086 C6.933,22.634 6.436,23.026 5.888,22.968 C2.586,22.596 0,19.502 0,15.925 C0,13.403 1.44,11.089 3.657,9.939 C3.625,9.631 3.608,9.325 3.608,9.023 C3.608,4.048 7.656,6.75015599e-14 12.631,6.75015599e-14 C16.237,6.75015599e-14 19.46,2.138 20.888,5.396 C21.067,5.384 21.243,5.377 21.415,5.377 C26.148,5.377 30,9.228 30,13.962 C30,17.643 26.936,21.748 23.309,22.926 C23.206,22.959 23.103,22.975 23,22.975 Z M20.707,17.2675 C21.098,17.6585 21.098,18.2905 20.707,18.6815 C20.512,18.8765 20.256,18.9745 20,18.9745 C19.744,18.9745 19.488,18.8765 19.293,18.6815 L16.035,15.4245 L15.956,28.9805 C15.953,29.5305 15.506,29.9745 14.956,29.9745 L14.95,29.9745 C14.397,29.9715 13.953,29.5205 13.956,28.9685 L14.036,15.3525 L10.707,18.6815 C10.316,19.0725 9.684,19.0725 9.293,18.6815 C8.902,18.2905 8.902,17.6585 9.293,17.2675 L14.293,12.2675 C14.684,11.8765 15.316,11.8765 15.707,12.2675 L20.707,17.2675 Z" />
</svg>