<svg id="upload-success-30" viewBox="0 0 30 30" xmlns="http://www.w3.org/2000/svg">
	<path d="M14.5654,18.7744 C14.3094,18.7744 14.0534,18.6764 13.8584,18.4814 L10.7934,15.4174 C10.4024,15.0264 10.4024,14.3934 10.7934,14.0034 C11.1834,13.6124 11.8164,13.6124 12.2074,14.0034 L14.5654,16.3604 L19.6914,11.2344 C20.0824,10.8434 20.7144,10.8434 21.1054,11.2344 C21.4964,11.6254 21.4964,12.2574 21.1054,12.6484 L15.2724,18.4814 C15.0774,18.6764 14.8214,18.7744 14.5654,18.7744 Z M23,22.9746 C22.578,22.9746 22.187,22.7056 22.049,22.2836 C21.878,21.7576 22.166,21.1936 22.691,21.0226 C25.47,20.1206 28,16.7546 28,13.9616 C28,10.3306 25.046,7.3766 21.415,7.3766 C21.104,7.3766 20.769,7.4056 20.39,7.4646 L19.555,7.5966 L19.286,6.7946 C18.325,3.9266 15.651,1.9996 12.631,1.9996 C8.759,1.9996 5.608,5.1496 5.608,9.0216 C5.608,9.4556 5.652,9.9036 5.739,10.3526 L5.898,11.1836 L5.106,11.4786 C3.248,12.1716 2,13.9586 2,15.9246 C2,18.4566 3.845,20.7246 6.112,20.9806 C6.661,21.0426 7.056,21.5376 6.994,22.0856 C6.933,22.6336 6.436,23.0256 5.888,22.9676 C2.586,22.5956 0,19.5016 0,15.9246 C0,13.4026 1.44,11.0886 3.657,9.9386 C3.625,9.6306 3.608,9.3236 3.608,9.0216 C3.608,4.0476 7.656,-0.0004 12.631,-0.0004 C16.237,-0.0004 19.46,2.1376 20.888,5.3956 C21.068,5.3826 21.243,5.3766 21.415,5.3766 C26.148,5.3766 30,9.2276 30,13.9616 C30,17.6426 26.936,21.7466 23.309,22.9256 C23.206,22.9586 23.103,22.9746 23,22.9746 Z" />
</svg>