<svg id="whatsapp-filled-30" viewBox="0 0 30 30" xmlns="http://www.w3.org/2000/svg">
	<path d="M15,-0.0002 C6.729,-0.0002 7.85149723e-13,6.7288 7.85149723e-13,14.9998 C7.85149723e-13,23.2708 6.729,29.9998 15,29.9998 C23.271,29.9998 30,23.2708 30,14.9998 C30,6.7288 23.271,-0.0002 15,-0.0002 M15.042,24.8608 L15.036,24.8608 C13.374,24.8598 11.738,24.4418 10.285,23.6498 L5.014,25.0328 L6.425,19.8808 C5.557,18.3728 5.096,16.6618 5.096,14.9098 C5.099,9.4268 9.561,4.9668 15.042,4.9668 C17.701,4.9688 20.197,6.0038 22.072,7.8828 C23.953,9.7618 24.985,12.2608 24.985,14.9178 C24.982,20.3998 20.521,24.8608 15.042,24.8608 Z M15.0462,6.6464 C10.4842,6.6464 6.7772,10.3544 6.7772,14.9104 C6.7732,16.4714 7.2132,17.9934 8.0412,19.3074 L8.2362,19.6214 L7.4012,22.6704 L10.5302,21.8504 L10.8332,22.0294 C12.1002,22.7824 13.5562,23.1814 15.0392,23.1814 L15.0422,23.1814 C19.5972,23.1814 23.3032,19.4744 23.3032,14.9184 C23.3062,12.7094 22.4492,10.6314 20.8882,9.0704 C19.3272,7.5074 17.2512,6.6484 15.0462,6.6464 Z M19.9072,18.4634 C19.6962,19.0434 18.7062,19.5744 18.2292,19.6444 C17.8022,19.7094 17.2612,19.7354 16.6622,19.5474 C16.3032,19.4324 15.8402,19.2784 15.2472,19.0234 C12.7552,17.9474 11.1282,15.4374 11.0042,15.2714 C10.8772,15.1044 9.9892,13.9254 9.9892,12.7014 C9.9892,11.4764 10.6312,10.8784 10.8592,10.6284 C11.0872,10.3814 11.3552,10.3174 11.5212,10.3174 C11.6902,10.3174 11.8522,10.3194 11.9962,10.3274 C12.1492,10.3344 12.3562,10.2694 12.5562,10.7524 C12.7622,11.2494 13.2612,12.4734 13.3212,12.5974 C13.3852,12.7214 13.4242,12.8674 13.3422,13.0314 C13.2612,13.1984 13.2182,13.3014 13.0942,13.4464 C12.9712,13.5924 12.8332,13.7704 12.7202,13.8814 C12.5962,14.0064 12.4682,14.1414 12.6132,14.3894 C12.7582,14.6394 13.2572,15.4524 13.9942,16.1104 C14.9442,16.9564 15.7422,17.2194 15.9932,17.3444 C16.2422,17.4684 16.3862,17.4474 16.5322,17.2814 C16.6762,17.1154 17.1532,16.5564 17.3182,16.3084 C17.4832,16.0594 17.6512,16.0994 17.8782,16.1834 C18.1032,16.2664 19.3272,16.8674 19.5752,16.9924 C19.8222,17.1154 19.9852,17.1784 20.0522,17.2814 C20.1112,17.3844 20.1112,17.8834 19.9072,18.4634 Z" />
</svg>