<svg id="youtube-filled-30" viewBox="0 0 30 30" xmlns="http://www.w3.org/2000/svg">
	<path d="M14.9993,-0.0002 C23.2713,-0.0002 29.9993,6.7288 29.9993,14.9998 C29.9993,23.2708 23.2713,29.9998 14.9993,29.9998 C6.7293,29.9998 -0.000700000001,23.2708 -0.000700000001,14.9998 C-0.000700000001,6.7288 6.7293,-0.0002 14.9993,-0.0002 Z M22.1863,18.6338 C22.4993,17.4568 22.4993,14.9998 22.4993,14.9998 C22.4993,14.9998 22.4993,12.5438 22.1863,11.3658 C22.0143,10.7168 21.5053,10.2048 20.8603,10.0308 C19.6913,9.7158 14.9993,9.7158 14.9993,9.7158 C14.9993,9.7158 10.3093,9.7158 9.1393,10.0308 C8.4943,10.2048 7.9863,10.7168 7.8133,11.3658 C7.4993,12.5438 7.4993,14.9998 7.4993,14.9998 C7.4993,14.9998 7.4993,17.4568 7.8133,18.6338 C7.9863,19.2828 8.4943,19.7948 9.1393,19.9688 C10.3093,20.2838 14.9993,20.2838 14.9993,20.2838 C14.9993,20.2838 19.6913,20.2838 20.8603,19.9688 C21.5053,19.7948 22.0143,19.2828 22.1863,18.6338 Z M13.4656,17.2305 L13.4656,12.7695 L17.3866,15.0005 L13.4656,17.2305 Z" />
</svg>